G04 (created by PCBNEW (2013-jul-07)-stable) date Fri 23 Nov 2018 10:58:42 PM EST*
%MOIN*%
G04 Gerber Fmt 3.4, Leading zero omitted, Abs format*
%FSLAX34Y34*%
G01*
G70*
G90*
G04 APERTURE LIST*
%ADD10C,0.00590551*%
%ADD11C,0.011811*%
%ADD12C,0.012*%
%ADD13C,0.015*%
%ADD14C,0.01*%
%ADD15C,0.006*%
%ADD16C,0.008*%
%ADD17C,0.003*%
%ADD18C,0.0107*%
%ADD19C,0.0035*%
%ADD20C,0.01125*%
%ADD21R,0.055X0.055*%
%ADD22C,0.055*%
%ADD23R,0.06X0.06*%
%ADD24C,0.06*%
%ADD25C,0.066*%
G04 APERTURE END LIST*
G54D10*
G54D11*
X18639Y-46142D02*
X18357Y-46338D01*
X18639Y-46479D02*
X18048Y-46479D01*
X18048Y-46254D01*
X18076Y-46198D01*
X18104Y-46170D01*
X18160Y-46142D01*
X18245Y-46142D01*
X18301Y-46170D01*
X18329Y-46198D01*
X18357Y-46254D01*
X18357Y-46479D01*
X18610Y-45917D02*
X18639Y-45832D01*
X18639Y-45692D01*
X18610Y-45635D01*
X18582Y-45607D01*
X18526Y-45579D01*
X18470Y-45579D01*
X18414Y-45607D01*
X18385Y-45635D01*
X18357Y-45692D01*
X18329Y-45804D01*
X18301Y-45860D01*
X18273Y-45888D01*
X18217Y-45917D01*
X18160Y-45917D01*
X18104Y-45888D01*
X18076Y-45860D01*
X18048Y-45804D01*
X18048Y-45664D01*
X18076Y-45579D01*
X18104Y-45354D02*
X18076Y-45326D01*
X18048Y-45270D01*
X18048Y-45129D01*
X18076Y-45073D01*
X18104Y-45045D01*
X18160Y-45017D01*
X18217Y-45017D01*
X18301Y-45045D01*
X18639Y-45382D01*
X18639Y-45017D01*
X18048Y-44820D02*
X18048Y-44454D01*
X18273Y-44651D01*
X18273Y-44567D01*
X18301Y-44511D01*
X18329Y-44482D01*
X18385Y-44454D01*
X18526Y-44454D01*
X18582Y-44482D01*
X18610Y-44511D01*
X18639Y-44567D01*
X18639Y-44735D01*
X18610Y-44792D01*
X18582Y-44820D01*
X18104Y-44229D02*
X18076Y-44201D01*
X18048Y-44145D01*
X18048Y-44004D01*
X18076Y-43948D01*
X18104Y-43920D01*
X18160Y-43892D01*
X18217Y-43892D01*
X18301Y-43920D01*
X18639Y-44257D01*
X18639Y-43892D01*
X20114Y-44639D02*
X20114Y-44048D01*
X20254Y-44048D01*
X20339Y-44076D01*
X20395Y-44132D01*
X20423Y-44189D01*
X20451Y-44301D01*
X20451Y-44385D01*
X20423Y-44498D01*
X20395Y-44554D01*
X20339Y-44610D01*
X20254Y-44639D01*
X20114Y-44639D01*
X20676Y-44470D02*
X20957Y-44470D01*
X20620Y-44639D02*
X20817Y-44048D01*
X21014Y-44639D01*
X21126Y-44048D02*
X21464Y-44048D01*
X21295Y-44639D02*
X21295Y-44048D01*
X21632Y-44470D02*
X21913Y-44470D01*
X21576Y-44639D02*
X21773Y-44048D01*
X21970Y-44639D01*
X73059Y-52870D02*
X73340Y-52870D01*
X73003Y-53039D02*
X73200Y-52448D01*
X73396Y-53039D01*
X67659Y-52870D02*
X67940Y-52870D01*
X67603Y-53039D02*
X67800Y-52448D01*
X67996Y-53039D01*
X58859Y-52870D02*
X59140Y-52870D01*
X58803Y-53039D02*
X59000Y-52448D01*
X59196Y-53039D01*
X47459Y-52870D02*
X47740Y-52870D01*
X47403Y-53039D02*
X47600Y-52448D01*
X47796Y-53039D01*
X35059Y-52870D02*
X35340Y-52870D01*
X35003Y-53039D02*
X35200Y-52448D01*
X35396Y-53039D01*
X25659Y-52870D02*
X25940Y-52870D01*
X25603Y-53039D02*
X25800Y-52448D01*
X25996Y-53039D01*
X23039Y-52682D02*
X23039Y-53020D01*
X23039Y-52851D02*
X22448Y-52851D01*
X22532Y-52907D01*
X22589Y-52963D01*
X22617Y-53020D01*
X22448Y-52317D02*
X22448Y-52260D01*
X22476Y-52204D01*
X22504Y-52176D01*
X22560Y-52148D01*
X22673Y-52120D01*
X22814Y-52120D01*
X22926Y-52148D01*
X22982Y-52176D01*
X23010Y-52204D01*
X23039Y-52260D01*
X23039Y-52317D01*
X23010Y-52373D01*
X22982Y-52401D01*
X22926Y-52429D01*
X22814Y-52457D01*
X22673Y-52457D01*
X22560Y-52429D01*
X22504Y-52401D01*
X22476Y-52373D01*
X22448Y-52317D01*
X22814Y-51867D02*
X22814Y-51417D01*
X23039Y-51135D02*
X22448Y-51135D01*
X22729Y-51135D02*
X22729Y-50798D01*
X23039Y-50798D02*
X22448Y-50798D01*
X23039Y-50179D02*
X22757Y-50376D01*
X23039Y-50517D02*
X22448Y-50517D01*
X22448Y-50292D01*
X22476Y-50236D01*
X22504Y-50207D01*
X22560Y-50179D01*
X22645Y-50179D01*
X22701Y-50207D01*
X22729Y-50236D01*
X22757Y-50292D01*
X22757Y-50517D01*
X21070Y-53078D02*
X21070Y-52796D01*
X21239Y-53134D02*
X20648Y-52937D01*
X21239Y-52740D01*
X21239Y-52543D02*
X20648Y-52543D01*
X21070Y-52346D01*
X20648Y-52150D01*
X21239Y-52150D01*
X25636Y-55239D02*
X25636Y-54648D01*
X25636Y-54929D02*
X25973Y-54929D01*
X25973Y-55239D02*
X25973Y-54648D01*
X26367Y-54648D02*
X26479Y-54648D01*
X26535Y-54676D01*
X26592Y-54732D01*
X26620Y-54845D01*
X26620Y-55042D01*
X26592Y-55154D01*
X26535Y-55210D01*
X26479Y-55239D01*
X26367Y-55239D01*
X26311Y-55210D01*
X26254Y-55154D01*
X26226Y-55042D01*
X26226Y-54845D01*
X26254Y-54732D01*
X26311Y-54676D01*
X26367Y-54648D01*
X26873Y-54648D02*
X26873Y-55126D01*
X26901Y-55182D01*
X26929Y-55210D01*
X26985Y-55239D01*
X27098Y-55239D01*
X27154Y-55210D01*
X27182Y-55182D01*
X27210Y-55126D01*
X27210Y-54648D01*
X27829Y-55239D02*
X27632Y-54957D01*
X27492Y-55239D02*
X27492Y-54648D01*
X27717Y-54648D01*
X27773Y-54676D01*
X27801Y-54704D01*
X27829Y-54760D01*
X27829Y-54845D01*
X27801Y-54901D01*
X27773Y-54929D01*
X27717Y-54957D01*
X27492Y-54957D01*
X28054Y-55210D02*
X28138Y-55239D01*
X28279Y-55239D01*
X28335Y-55210D01*
X28363Y-55182D01*
X28392Y-55126D01*
X28392Y-55070D01*
X28363Y-55014D01*
X28335Y-54985D01*
X28279Y-54957D01*
X28167Y-54929D01*
X28110Y-54901D01*
X28082Y-54873D01*
X28054Y-54817D01*
X28054Y-54760D01*
X28082Y-54704D01*
X28110Y-54676D01*
X28167Y-54648D01*
X28307Y-54648D01*
X28392Y-54676D01*
X35019Y-54648D02*
X35356Y-54648D01*
X35187Y-55239D02*
X35187Y-54648D01*
X35553Y-54929D02*
X35750Y-54929D01*
X35834Y-55239D02*
X35553Y-55239D01*
X35553Y-54648D01*
X35834Y-54648D01*
X36087Y-55239D02*
X36087Y-54648D01*
X36425Y-55239D01*
X36425Y-54648D01*
X36706Y-55014D02*
X37156Y-55014D01*
X37437Y-55239D02*
X37437Y-54648D01*
X37634Y-55070D01*
X37831Y-54648D01*
X37831Y-55239D01*
X38112Y-55239D02*
X38112Y-54648D01*
X38393Y-55239D02*
X38393Y-54648D01*
X38731Y-55239D01*
X38731Y-54648D01*
X39012Y-54648D02*
X39012Y-55126D01*
X39040Y-55182D01*
X39068Y-55210D01*
X39124Y-55239D01*
X39237Y-55239D01*
X39293Y-55210D01*
X39321Y-55182D01*
X39349Y-55126D01*
X39349Y-54648D01*
X39546Y-54648D02*
X39884Y-54648D01*
X39715Y-55239D02*
X39715Y-54648D01*
X40080Y-54929D02*
X40277Y-54929D01*
X40362Y-55239D02*
X40080Y-55239D01*
X40080Y-54648D01*
X40362Y-54648D01*
X40587Y-55210D02*
X40671Y-55239D01*
X40812Y-55239D01*
X40868Y-55210D01*
X40896Y-55182D01*
X40924Y-55126D01*
X40924Y-55070D01*
X40896Y-55014D01*
X40868Y-54985D01*
X40812Y-54957D01*
X40699Y-54929D01*
X40643Y-54901D01*
X40615Y-54873D01*
X40587Y-54817D01*
X40587Y-54760D01*
X40615Y-54704D01*
X40643Y-54676D01*
X40699Y-54648D01*
X40840Y-54648D01*
X40924Y-54676D01*
X47470Y-55239D02*
X47470Y-54648D01*
X47667Y-55070D01*
X47864Y-54648D01*
X47864Y-55239D01*
X48145Y-55239D02*
X48145Y-54648D01*
X48426Y-55239D02*
X48426Y-54648D01*
X48764Y-55239D01*
X48764Y-54648D01*
X49045Y-54648D02*
X49045Y-55126D01*
X49073Y-55182D01*
X49101Y-55210D01*
X49157Y-55239D01*
X49270Y-55239D01*
X49326Y-55210D01*
X49354Y-55182D01*
X49382Y-55126D01*
X49382Y-54648D01*
X49579Y-54648D02*
X49917Y-54648D01*
X49748Y-55239D02*
X49748Y-54648D01*
X50113Y-54929D02*
X50310Y-54929D01*
X50395Y-55239D02*
X50113Y-55239D01*
X50113Y-54648D01*
X50395Y-54648D01*
X50620Y-55210D02*
X50704Y-55239D01*
X50845Y-55239D01*
X50901Y-55210D01*
X50929Y-55182D01*
X50957Y-55126D01*
X50957Y-55070D01*
X50929Y-55014D01*
X50901Y-54985D01*
X50845Y-54957D01*
X50732Y-54929D01*
X50676Y-54901D01*
X50648Y-54873D01*
X50620Y-54817D01*
X50620Y-54760D01*
X50648Y-54704D01*
X50676Y-54676D01*
X50732Y-54648D01*
X50873Y-54648D01*
X50957Y-54676D01*
X58850Y-54648D02*
X59187Y-54648D01*
X59019Y-55239D02*
X59019Y-54648D01*
X59384Y-54929D02*
X59581Y-54929D01*
X59665Y-55239D02*
X59384Y-55239D01*
X59384Y-54648D01*
X59665Y-54648D01*
X59919Y-55239D02*
X59919Y-54648D01*
X60256Y-55239D01*
X60256Y-54648D01*
X60537Y-55014D02*
X60987Y-55014D01*
X61240Y-55210D02*
X61325Y-55239D01*
X61465Y-55239D01*
X61521Y-55210D01*
X61550Y-55182D01*
X61578Y-55126D01*
X61578Y-55070D01*
X61550Y-55014D01*
X61521Y-54985D01*
X61465Y-54957D01*
X61353Y-54929D01*
X61296Y-54901D01*
X61268Y-54873D01*
X61240Y-54817D01*
X61240Y-54760D01*
X61268Y-54704D01*
X61296Y-54676D01*
X61353Y-54648D01*
X61493Y-54648D01*
X61578Y-54676D01*
X61831Y-54929D02*
X62028Y-54929D01*
X62112Y-55239D02*
X61831Y-55239D01*
X61831Y-54648D01*
X62112Y-54648D01*
X62703Y-55182D02*
X62674Y-55210D01*
X62590Y-55239D01*
X62534Y-55239D01*
X62449Y-55210D01*
X62393Y-55154D01*
X62365Y-55098D01*
X62337Y-54985D01*
X62337Y-54901D01*
X62365Y-54789D01*
X62393Y-54732D01*
X62449Y-54676D01*
X62534Y-54648D01*
X62590Y-54648D01*
X62674Y-54676D01*
X62703Y-54704D01*
X63068Y-54648D02*
X63181Y-54648D01*
X63237Y-54676D01*
X63293Y-54732D01*
X63321Y-54845D01*
X63321Y-55042D01*
X63293Y-55154D01*
X63237Y-55210D01*
X63181Y-55239D01*
X63068Y-55239D01*
X63012Y-55210D01*
X62956Y-55154D01*
X62928Y-55042D01*
X62928Y-54845D01*
X62956Y-54732D01*
X63012Y-54676D01*
X63068Y-54648D01*
X63574Y-55239D02*
X63574Y-54648D01*
X63912Y-55239D01*
X63912Y-54648D01*
X64193Y-55239D02*
X64193Y-54648D01*
X64334Y-54648D01*
X64418Y-54676D01*
X64474Y-54732D01*
X64502Y-54789D01*
X64530Y-54901D01*
X64530Y-54985D01*
X64502Y-55098D01*
X64474Y-55154D01*
X64418Y-55210D01*
X64334Y-55239D01*
X64193Y-55239D01*
X64755Y-55210D02*
X64840Y-55239D01*
X64980Y-55239D01*
X65037Y-55210D01*
X65065Y-55182D01*
X65093Y-55126D01*
X65093Y-55070D01*
X65065Y-55014D01*
X65037Y-54985D01*
X64980Y-54957D01*
X64868Y-54929D01*
X64812Y-54901D01*
X64784Y-54873D01*
X64755Y-54817D01*
X64755Y-54760D01*
X64784Y-54704D01*
X64812Y-54676D01*
X64868Y-54648D01*
X65008Y-54648D01*
X65093Y-54676D01*
X67673Y-55210D02*
X67758Y-55239D01*
X67898Y-55239D01*
X67954Y-55210D01*
X67983Y-55182D01*
X68011Y-55126D01*
X68011Y-55070D01*
X67983Y-55014D01*
X67954Y-54985D01*
X67898Y-54957D01*
X67786Y-54929D01*
X67729Y-54901D01*
X67701Y-54873D01*
X67673Y-54817D01*
X67673Y-54760D01*
X67701Y-54704D01*
X67729Y-54676D01*
X67786Y-54648D01*
X67926Y-54648D01*
X68011Y-54676D01*
X68264Y-54929D02*
X68461Y-54929D01*
X68545Y-55239D02*
X68264Y-55239D01*
X68264Y-54648D01*
X68545Y-54648D01*
X69135Y-55182D02*
X69107Y-55210D01*
X69023Y-55239D01*
X68967Y-55239D01*
X68882Y-55210D01*
X68826Y-55154D01*
X68798Y-55098D01*
X68770Y-54985D01*
X68770Y-54901D01*
X68798Y-54789D01*
X68826Y-54732D01*
X68882Y-54676D01*
X68967Y-54648D01*
X69023Y-54648D01*
X69107Y-54676D01*
X69135Y-54704D01*
X69501Y-54648D02*
X69614Y-54648D01*
X69670Y-54676D01*
X69726Y-54732D01*
X69754Y-54845D01*
X69754Y-55042D01*
X69726Y-55154D01*
X69670Y-55210D01*
X69614Y-55239D01*
X69501Y-55239D01*
X69445Y-55210D01*
X69389Y-55154D01*
X69360Y-55042D01*
X69360Y-54845D01*
X69389Y-54732D01*
X69445Y-54676D01*
X69501Y-54648D01*
X70007Y-55239D02*
X70007Y-54648D01*
X70345Y-55239D01*
X70345Y-54648D01*
X70626Y-55239D02*
X70626Y-54648D01*
X70767Y-54648D01*
X70851Y-54676D01*
X70907Y-54732D01*
X70935Y-54789D01*
X70963Y-54901D01*
X70963Y-54985D01*
X70935Y-55098D01*
X70907Y-55154D01*
X70851Y-55210D01*
X70767Y-55239D01*
X70626Y-55239D01*
X71188Y-55210D02*
X71273Y-55239D01*
X71413Y-55239D01*
X71470Y-55210D01*
X71498Y-55182D01*
X71526Y-55126D01*
X71526Y-55070D01*
X71498Y-55014D01*
X71470Y-54985D01*
X71413Y-54957D01*
X71301Y-54929D01*
X71245Y-54901D01*
X71216Y-54873D01*
X71188Y-54817D01*
X71188Y-54760D01*
X71216Y-54704D01*
X71245Y-54676D01*
X71301Y-54648D01*
X71441Y-54648D01*
X71526Y-54676D01*
X73116Y-54648D02*
X73453Y-54648D01*
X73284Y-55239D02*
X73284Y-54648D01*
X73650Y-54929D02*
X73847Y-54929D01*
X73931Y-55239D02*
X73650Y-55239D01*
X73650Y-54648D01*
X73931Y-54648D01*
X74184Y-55239D02*
X74184Y-54648D01*
X74522Y-55239D01*
X74522Y-54648D01*
X74719Y-54648D02*
X75056Y-54648D01*
X74887Y-55239D02*
X74887Y-54648D01*
X75253Y-55239D02*
X75253Y-54648D01*
X75253Y-54929D02*
X75590Y-54929D01*
X75590Y-55239D02*
X75590Y-54648D01*
X75871Y-55014D02*
X76321Y-55014D01*
X76575Y-55210D02*
X76659Y-55239D01*
X76800Y-55239D01*
X76856Y-55210D01*
X76884Y-55182D01*
X76912Y-55126D01*
X76912Y-55070D01*
X76884Y-55014D01*
X76856Y-54985D01*
X76800Y-54957D01*
X76687Y-54929D01*
X76631Y-54901D01*
X76603Y-54873D01*
X76575Y-54817D01*
X76575Y-54760D01*
X76603Y-54704D01*
X76631Y-54676D01*
X76687Y-54648D01*
X76828Y-54648D01*
X76912Y-54676D01*
X77165Y-54929D02*
X77362Y-54929D01*
X77446Y-55239D02*
X77165Y-55239D01*
X77165Y-54648D01*
X77446Y-54648D01*
X78037Y-55182D02*
X78009Y-55210D01*
X77924Y-55239D01*
X77868Y-55239D01*
X77784Y-55210D01*
X77728Y-55154D01*
X77699Y-55098D01*
X77671Y-54985D01*
X77671Y-54901D01*
X77699Y-54789D01*
X77728Y-54732D01*
X77784Y-54676D01*
X77868Y-54648D01*
X77924Y-54648D01*
X78009Y-54676D01*
X78037Y-54704D01*
X78402Y-54648D02*
X78515Y-54648D01*
X78571Y-54676D01*
X78627Y-54732D01*
X78656Y-54845D01*
X78656Y-55042D01*
X78627Y-55154D01*
X78571Y-55210D01*
X78515Y-55239D01*
X78402Y-55239D01*
X78346Y-55210D01*
X78290Y-55154D01*
X78262Y-55042D01*
X78262Y-54845D01*
X78290Y-54732D01*
X78346Y-54676D01*
X78402Y-54648D01*
X78909Y-55239D02*
X78909Y-54648D01*
X79246Y-55239D01*
X79246Y-54648D01*
X79527Y-55239D02*
X79527Y-54648D01*
X79668Y-54648D01*
X79752Y-54676D01*
X79808Y-54732D01*
X79837Y-54789D01*
X79865Y-54901D01*
X79865Y-54985D01*
X79837Y-55098D01*
X79808Y-55154D01*
X79752Y-55210D01*
X79668Y-55239D01*
X79527Y-55239D01*
X80090Y-55210D02*
X80174Y-55239D01*
X80315Y-55239D01*
X80371Y-55210D01*
X80399Y-55182D01*
X80427Y-55126D01*
X80427Y-55070D01*
X80399Y-55014D01*
X80371Y-54985D01*
X80315Y-54957D01*
X80202Y-54929D01*
X80146Y-54901D01*
X80118Y-54873D01*
X80090Y-54817D01*
X80090Y-54760D01*
X80118Y-54704D01*
X80146Y-54676D01*
X80202Y-54648D01*
X80343Y-54648D01*
X80427Y-54676D01*
X91529Y-50726D02*
X91529Y-50923D01*
X91839Y-50923D02*
X91248Y-50923D01*
X91248Y-50641D01*
X91670Y-50445D02*
X91670Y-50163D01*
X91839Y-50501D02*
X91248Y-50304D01*
X91839Y-50107D01*
X91670Y-49938D02*
X91670Y-49657D01*
X91839Y-49995D02*
X91248Y-49798D01*
X91839Y-49601D01*
X91810Y-49432D02*
X91839Y-49348D01*
X91839Y-49207D01*
X91810Y-49151D01*
X91782Y-49123D01*
X91726Y-49095D01*
X91670Y-49095D01*
X91614Y-49123D01*
X91585Y-49151D01*
X91557Y-49207D01*
X91529Y-49320D01*
X91501Y-49376D01*
X91473Y-49404D01*
X91417Y-49432D01*
X91360Y-49432D01*
X91304Y-49404D01*
X91276Y-49376D01*
X91248Y-49320D01*
X91248Y-49179D01*
X91276Y-49095D01*
X91248Y-48926D02*
X91248Y-48589D01*
X91839Y-48757D02*
X91248Y-48757D01*
X91810Y-47970D02*
X91839Y-47886D01*
X91839Y-47745D01*
X91810Y-47689D01*
X91782Y-47661D01*
X91726Y-47632D01*
X91670Y-47632D01*
X91614Y-47661D01*
X91585Y-47689D01*
X91557Y-47745D01*
X91529Y-47857D01*
X91501Y-47914D01*
X91473Y-47942D01*
X91417Y-47970D01*
X91360Y-47970D01*
X91304Y-47942D01*
X91276Y-47914D01*
X91248Y-47857D01*
X91248Y-47717D01*
X91276Y-47632D01*
X91529Y-47379D02*
X91529Y-47183D01*
X91839Y-47098D02*
X91839Y-47379D01*
X91248Y-47379D01*
X91248Y-47098D01*
X91248Y-46929D02*
X91248Y-46592D01*
X91839Y-46761D02*
X91248Y-46761D01*
X88686Y-50782D02*
X88657Y-50810D01*
X88573Y-50839D01*
X88517Y-50839D01*
X88432Y-50810D01*
X88376Y-50754D01*
X88348Y-50698D01*
X88320Y-50585D01*
X88320Y-50501D01*
X88348Y-50389D01*
X88376Y-50332D01*
X88432Y-50276D01*
X88517Y-50248D01*
X88573Y-50248D01*
X88657Y-50276D01*
X88686Y-50304D01*
X88911Y-50670D02*
X89192Y-50670D01*
X88854Y-50839D02*
X89051Y-50248D01*
X89248Y-50839D01*
X89782Y-50839D02*
X89585Y-50557D01*
X89445Y-50839D02*
X89445Y-50248D01*
X89670Y-50248D01*
X89726Y-50276D01*
X89754Y-50304D01*
X89782Y-50360D01*
X89782Y-50445D01*
X89754Y-50501D01*
X89726Y-50529D01*
X89670Y-50557D01*
X89445Y-50557D01*
X90373Y-50839D02*
X90176Y-50557D01*
X90035Y-50839D02*
X90035Y-50248D01*
X90260Y-50248D01*
X90317Y-50276D01*
X90345Y-50304D01*
X90373Y-50360D01*
X90373Y-50445D01*
X90345Y-50501D01*
X90317Y-50529D01*
X90260Y-50557D01*
X90035Y-50557D01*
X90738Y-50557D02*
X90738Y-50839D01*
X90542Y-50248D02*
X90738Y-50557D01*
X90935Y-50248D01*
X91529Y-45073D02*
X91529Y-45270D01*
X91839Y-45270D02*
X91248Y-45270D01*
X91248Y-44988D01*
X91670Y-44792D02*
X91670Y-44510D01*
X91839Y-44848D02*
X91248Y-44651D01*
X91839Y-44454D01*
X91810Y-44285D02*
X91839Y-44201D01*
X91839Y-44060D01*
X91810Y-44004D01*
X91782Y-43976D01*
X91726Y-43948D01*
X91670Y-43948D01*
X91614Y-43976D01*
X91585Y-44004D01*
X91557Y-44060D01*
X91529Y-44173D01*
X91501Y-44229D01*
X91473Y-44257D01*
X91417Y-44285D01*
X91360Y-44285D01*
X91304Y-44257D01*
X91276Y-44229D01*
X91248Y-44173D01*
X91248Y-44032D01*
X91276Y-43948D01*
X91248Y-43779D02*
X91248Y-43442D01*
X91839Y-43610D02*
X91248Y-43610D01*
X91810Y-42823D02*
X91839Y-42739D01*
X91839Y-42598D01*
X91810Y-42542D01*
X91782Y-42514D01*
X91726Y-42486D01*
X91670Y-42486D01*
X91614Y-42514D01*
X91585Y-42542D01*
X91557Y-42598D01*
X91529Y-42711D01*
X91501Y-42767D01*
X91473Y-42795D01*
X91417Y-42823D01*
X91360Y-42823D01*
X91304Y-42795D01*
X91276Y-42767D01*
X91248Y-42711D01*
X91248Y-42570D01*
X91276Y-42486D01*
X91529Y-42232D02*
X91529Y-42036D01*
X91839Y-41951D02*
X91839Y-42232D01*
X91248Y-42232D01*
X91248Y-41951D01*
X91248Y-41783D02*
X91248Y-41445D01*
X91839Y-41614D02*
X91248Y-41614D01*
X89778Y-45239D02*
X89440Y-45239D01*
X89609Y-45239D02*
X89609Y-44648D01*
X89553Y-44732D01*
X89496Y-44789D01*
X89440Y-44817D01*
X90031Y-45239D02*
X90031Y-44648D01*
X90031Y-44929D02*
X90368Y-44929D01*
X90368Y-45239D02*
X90368Y-44648D01*
X90593Y-44648D02*
X90987Y-44648D01*
X90593Y-45239D01*
X90987Y-45239D01*
X91529Y-39792D02*
X91557Y-39707D01*
X91585Y-39679D01*
X91642Y-39651D01*
X91726Y-39651D01*
X91782Y-39679D01*
X91810Y-39707D01*
X91839Y-39763D01*
X91839Y-39988D01*
X91248Y-39988D01*
X91248Y-39792D01*
X91276Y-39735D01*
X91304Y-39707D01*
X91360Y-39679D01*
X91417Y-39679D01*
X91473Y-39707D01*
X91501Y-39735D01*
X91529Y-39792D01*
X91529Y-39988D01*
X91248Y-39398D02*
X91726Y-39398D01*
X91782Y-39370D01*
X91810Y-39342D01*
X91839Y-39285D01*
X91839Y-39173D01*
X91810Y-39117D01*
X91782Y-39088D01*
X91726Y-39060D01*
X91248Y-39060D01*
X91248Y-38835D02*
X91248Y-38442D01*
X91839Y-38835D01*
X91839Y-38442D01*
X91248Y-38273D02*
X91248Y-37879D01*
X91839Y-38273D01*
X91839Y-37879D01*
X91529Y-37654D02*
X91529Y-37457D01*
X91839Y-37373D02*
X91839Y-37654D01*
X91248Y-37654D01*
X91248Y-37373D01*
X91839Y-36783D02*
X91557Y-36979D01*
X91839Y-37120D02*
X91248Y-37120D01*
X91248Y-36895D01*
X91276Y-36839D01*
X91304Y-36811D01*
X91360Y-36783D01*
X91445Y-36783D01*
X91501Y-36811D01*
X91529Y-36839D01*
X91557Y-36895D01*
X91557Y-37120D01*
X89778Y-40039D02*
X89440Y-40039D01*
X89609Y-40039D02*
X89609Y-39448D01*
X89553Y-39532D01*
X89496Y-39589D01*
X89440Y-39617D01*
X90031Y-40039D02*
X90031Y-39448D01*
X90031Y-39729D02*
X90368Y-39729D01*
X90368Y-40039D02*
X90368Y-39448D01*
X90593Y-39448D02*
X90987Y-39448D01*
X90593Y-40039D01*
X90987Y-40039D01*
X91839Y-36060D02*
X91248Y-36060D01*
X91248Y-35835D01*
X91276Y-35779D01*
X91304Y-35751D01*
X91360Y-35723D01*
X91445Y-35723D01*
X91501Y-35751D01*
X91529Y-35779D01*
X91557Y-35835D01*
X91557Y-36060D01*
X91248Y-35526D02*
X91839Y-35385D01*
X91417Y-35273D01*
X91839Y-35160D01*
X91248Y-35020D01*
X91839Y-34457D02*
X91557Y-34654D01*
X91839Y-34795D02*
X91248Y-34795D01*
X91248Y-34570D01*
X91276Y-34513D01*
X91304Y-34485D01*
X91360Y-34457D01*
X91445Y-34457D01*
X91501Y-34485D01*
X91529Y-34513D01*
X91557Y-34570D01*
X91557Y-34795D01*
X91529Y-33557D02*
X91557Y-33473D01*
X91585Y-33445D01*
X91642Y-33417D01*
X91726Y-33417D01*
X91782Y-33445D01*
X91810Y-33473D01*
X91839Y-33529D01*
X91839Y-33754D01*
X91248Y-33754D01*
X91248Y-33557D01*
X91276Y-33501D01*
X91304Y-33473D01*
X91360Y-33445D01*
X91417Y-33445D01*
X91473Y-33473D01*
X91501Y-33501D01*
X91529Y-33557D01*
X91529Y-33754D01*
X91248Y-33051D02*
X91248Y-32939D01*
X91276Y-32882D01*
X91332Y-32826D01*
X91445Y-32798D01*
X91642Y-32798D01*
X91754Y-32826D01*
X91810Y-32882D01*
X91839Y-32939D01*
X91839Y-33051D01*
X91810Y-33107D01*
X91754Y-33164D01*
X91642Y-33192D01*
X91445Y-33192D01*
X91332Y-33164D01*
X91276Y-33107D01*
X91248Y-33051D01*
X91670Y-32573D02*
X91670Y-32292D01*
X91839Y-32629D02*
X91248Y-32432D01*
X91839Y-32236D01*
X91839Y-31701D02*
X91557Y-31898D01*
X91839Y-32039D02*
X91248Y-32039D01*
X91248Y-31814D01*
X91276Y-31758D01*
X91304Y-31729D01*
X91360Y-31701D01*
X91445Y-31701D01*
X91501Y-31729D01*
X91529Y-31758D01*
X91557Y-31814D01*
X91557Y-32039D01*
X91839Y-31448D02*
X91248Y-31448D01*
X91248Y-31308D01*
X91276Y-31223D01*
X91332Y-31167D01*
X91389Y-31139D01*
X91501Y-31111D01*
X91585Y-31111D01*
X91698Y-31139D01*
X91754Y-31167D01*
X91810Y-31223D01*
X91839Y-31308D01*
X91839Y-31448D01*
X89440Y-35814D02*
X89890Y-35814D01*
X89665Y-36039D02*
X89665Y-35589D01*
X90453Y-35448D02*
X90171Y-35448D01*
X90143Y-35729D01*
X90171Y-35701D01*
X90228Y-35673D01*
X90368Y-35673D01*
X90424Y-35701D01*
X90453Y-35729D01*
X90481Y-35785D01*
X90481Y-35926D01*
X90453Y-35982D01*
X90424Y-36010D01*
X90368Y-36039D01*
X90228Y-36039D01*
X90171Y-36010D01*
X90143Y-35982D01*
X90649Y-35448D02*
X90846Y-36039D01*
X91043Y-35448D01*
X18298Y-56639D02*
X18017Y-56639D01*
X18017Y-56048D01*
X18607Y-56048D02*
X18720Y-56048D01*
X18776Y-56076D01*
X18832Y-56132D01*
X18860Y-56245D01*
X18860Y-56442D01*
X18832Y-56554D01*
X18776Y-56610D01*
X18720Y-56639D01*
X18607Y-56639D01*
X18551Y-56610D01*
X18495Y-56554D01*
X18467Y-56442D01*
X18467Y-56245D01*
X18495Y-56132D01*
X18551Y-56076D01*
X18607Y-56048D01*
X19423Y-56076D02*
X19367Y-56048D01*
X19282Y-56048D01*
X19198Y-56076D01*
X19142Y-56132D01*
X19114Y-56189D01*
X19085Y-56301D01*
X19085Y-56385D01*
X19114Y-56498D01*
X19142Y-56554D01*
X19198Y-56610D01*
X19282Y-56639D01*
X19339Y-56639D01*
X19423Y-56610D01*
X19451Y-56582D01*
X19451Y-56385D01*
X19339Y-56385D01*
X19704Y-56639D02*
X19704Y-56048D01*
X20323Y-56582D02*
X20295Y-56610D01*
X20210Y-56639D01*
X20154Y-56639D01*
X20070Y-56610D01*
X20013Y-56554D01*
X19985Y-56498D01*
X19957Y-56385D01*
X19957Y-56301D01*
X19985Y-56189D01*
X20013Y-56132D01*
X20070Y-56076D01*
X20154Y-56048D01*
X20210Y-56048D01*
X20295Y-56076D01*
X20323Y-56104D01*
X21363Y-56582D02*
X21335Y-56610D01*
X21251Y-56639D01*
X21195Y-56639D01*
X21110Y-56610D01*
X21054Y-56554D01*
X21026Y-56498D01*
X20998Y-56385D01*
X20998Y-56301D01*
X21026Y-56189D01*
X21054Y-56132D01*
X21110Y-56076D01*
X21195Y-56048D01*
X21251Y-56048D01*
X21335Y-56076D01*
X21363Y-56104D01*
X21898Y-56639D02*
X21616Y-56639D01*
X21616Y-56048D01*
X22207Y-56048D02*
X22319Y-56048D01*
X22376Y-56076D01*
X22432Y-56132D01*
X22460Y-56245D01*
X22460Y-56442D01*
X22432Y-56554D01*
X22376Y-56610D01*
X22319Y-56639D01*
X22207Y-56639D01*
X22151Y-56610D01*
X22094Y-56554D01*
X22066Y-56442D01*
X22066Y-56245D01*
X22094Y-56132D01*
X22151Y-56076D01*
X22207Y-56048D01*
X23051Y-56582D02*
X23022Y-56610D01*
X22938Y-56639D01*
X22882Y-56639D01*
X22797Y-56610D01*
X22741Y-56554D01*
X22713Y-56498D01*
X22685Y-56385D01*
X22685Y-56301D01*
X22713Y-56189D01*
X22741Y-56132D01*
X22797Y-56076D01*
X22882Y-56048D01*
X22938Y-56048D01*
X23022Y-56076D01*
X23051Y-56104D01*
X23304Y-56639D02*
X23304Y-56048D01*
X23641Y-56639D02*
X23388Y-56301D01*
X23641Y-56048D02*
X23304Y-56385D01*
X24625Y-56639D02*
X24344Y-56639D01*
X24344Y-56048D01*
X24935Y-56048D02*
X25047Y-56048D01*
X25103Y-56076D01*
X25160Y-56132D01*
X25188Y-56245D01*
X25188Y-56442D01*
X25160Y-56554D01*
X25103Y-56610D01*
X25047Y-56639D01*
X24935Y-56639D01*
X24878Y-56610D01*
X24822Y-56554D01*
X24794Y-56442D01*
X24794Y-56245D01*
X24822Y-56132D01*
X24878Y-56076D01*
X24935Y-56048D01*
X25750Y-56076D02*
X25694Y-56048D01*
X25610Y-56048D01*
X25525Y-56076D01*
X25469Y-56132D01*
X25441Y-56189D01*
X25413Y-56301D01*
X25413Y-56385D01*
X25441Y-56498D01*
X25469Y-56554D01*
X25525Y-56610D01*
X25610Y-56639D01*
X25666Y-56639D01*
X25750Y-56610D01*
X25778Y-56582D01*
X25778Y-56385D01*
X25666Y-56385D01*
X26031Y-56639D02*
X26031Y-56048D01*
X26650Y-56582D02*
X26622Y-56610D01*
X26538Y-56639D01*
X26481Y-56639D01*
X26397Y-56610D01*
X26341Y-56554D01*
X26313Y-56498D01*
X26285Y-56385D01*
X26285Y-56301D01*
X26313Y-56189D01*
X26341Y-56132D01*
X26397Y-56076D01*
X26481Y-56048D01*
X26538Y-56048D01*
X26622Y-56076D01*
X26650Y-56104D01*
X27550Y-56329D02*
X27634Y-56357D01*
X27662Y-56385D01*
X27691Y-56442D01*
X27691Y-56526D01*
X27662Y-56582D01*
X27634Y-56610D01*
X27578Y-56639D01*
X27353Y-56639D01*
X27353Y-56048D01*
X27550Y-56048D01*
X27606Y-56076D01*
X27634Y-56104D01*
X27662Y-56160D01*
X27662Y-56217D01*
X27634Y-56273D01*
X27606Y-56301D01*
X27550Y-56329D01*
X27353Y-56329D01*
X28056Y-56048D02*
X28169Y-56048D01*
X28225Y-56076D01*
X28281Y-56132D01*
X28309Y-56245D01*
X28309Y-56442D01*
X28281Y-56554D01*
X28225Y-56610D01*
X28169Y-56639D01*
X28056Y-56639D01*
X28000Y-56610D01*
X27944Y-56554D01*
X27916Y-56442D01*
X27916Y-56245D01*
X27944Y-56132D01*
X28000Y-56076D01*
X28056Y-56048D01*
X28534Y-56470D02*
X28815Y-56470D01*
X28478Y-56639D02*
X28675Y-56048D01*
X28872Y-56639D01*
X29406Y-56639D02*
X29209Y-56357D01*
X29069Y-56639D02*
X29069Y-56048D01*
X29294Y-56048D01*
X29350Y-56076D01*
X29378Y-56104D01*
X29406Y-56160D01*
X29406Y-56245D01*
X29378Y-56301D01*
X29350Y-56329D01*
X29294Y-56357D01*
X29069Y-56357D01*
X29659Y-56639D02*
X29659Y-56048D01*
X29800Y-56048D01*
X29884Y-56076D01*
X29940Y-56132D01*
X29968Y-56189D01*
X29997Y-56301D01*
X29997Y-56385D01*
X29968Y-56498D01*
X29940Y-56554D01*
X29884Y-56610D01*
X29800Y-56639D01*
X29659Y-56639D01*
X31037Y-56639D02*
X30840Y-56357D01*
X30700Y-56639D02*
X30700Y-56048D01*
X30925Y-56048D01*
X30981Y-56076D01*
X31009Y-56104D01*
X31037Y-56160D01*
X31037Y-56245D01*
X31009Y-56301D01*
X30981Y-56329D01*
X30925Y-56357D01*
X30700Y-56357D01*
X31290Y-56329D02*
X31487Y-56329D01*
X31571Y-56639D02*
X31290Y-56639D01*
X31290Y-56048D01*
X31571Y-56048D01*
X31740Y-56048D02*
X31937Y-56639D01*
X32134Y-56048D01*
X33090Y-56639D02*
X32752Y-56639D01*
X32921Y-56639D02*
X32921Y-56048D01*
X32865Y-56132D01*
X32809Y-56189D01*
X32752Y-56217D01*
X33793Y-56639D02*
X33793Y-56048D01*
X33990Y-56470D01*
X34187Y-56048D01*
X34187Y-56639D01*
X34468Y-56639D02*
X34468Y-56048D01*
X35087Y-56582D02*
X35058Y-56610D01*
X34974Y-56639D01*
X34918Y-56639D01*
X34833Y-56610D01*
X34777Y-56554D01*
X34749Y-56498D01*
X34721Y-56385D01*
X34721Y-56301D01*
X34749Y-56189D01*
X34777Y-56132D01*
X34833Y-56076D01*
X34918Y-56048D01*
X34974Y-56048D01*
X35058Y-56076D01*
X35087Y-56104D01*
X35340Y-56639D02*
X35340Y-56048D01*
X35340Y-56329D02*
X35677Y-56329D01*
X35677Y-56639D02*
X35677Y-56048D01*
X35930Y-56470D02*
X36211Y-56470D01*
X35874Y-56639D02*
X36071Y-56048D01*
X36268Y-56639D01*
X36465Y-56329D02*
X36661Y-56329D01*
X36746Y-56639D02*
X36465Y-56639D01*
X36465Y-56048D01*
X36746Y-56048D01*
X37280Y-56639D02*
X36999Y-56639D01*
X36999Y-56048D01*
X38264Y-56582D02*
X38236Y-56610D01*
X38152Y-56639D01*
X38096Y-56639D01*
X38011Y-56610D01*
X37955Y-56554D01*
X37927Y-56498D01*
X37899Y-56385D01*
X37899Y-56301D01*
X37927Y-56189D01*
X37955Y-56132D01*
X38011Y-56076D01*
X38096Y-56048D01*
X38152Y-56048D01*
X38236Y-56076D01*
X38264Y-56104D01*
X38855Y-56639D02*
X38658Y-56357D01*
X38517Y-56639D02*
X38517Y-56048D01*
X38742Y-56048D01*
X38799Y-56076D01*
X38827Y-56104D01*
X38855Y-56160D01*
X38855Y-56245D01*
X38827Y-56301D01*
X38799Y-56329D01*
X38742Y-56357D01*
X38517Y-56357D01*
X39080Y-56470D02*
X39361Y-56470D01*
X39024Y-56639D02*
X39220Y-56048D01*
X39417Y-56639D01*
X39811Y-56329D02*
X39614Y-56329D01*
X39614Y-56639D02*
X39614Y-56048D01*
X39895Y-56048D01*
X40036Y-56048D02*
X40373Y-56048D01*
X40205Y-56639D02*
X40205Y-56048D01*
X41020Y-56639D02*
X41020Y-56048D01*
X41358Y-56639D01*
X41358Y-56048D01*
X41751Y-56048D02*
X41864Y-56048D01*
X41920Y-56076D01*
X41976Y-56132D01*
X42004Y-56245D01*
X42004Y-56442D01*
X41976Y-56554D01*
X41920Y-56610D01*
X41864Y-56639D01*
X41751Y-56639D01*
X41695Y-56610D01*
X41639Y-56554D01*
X41611Y-56442D01*
X41611Y-56245D01*
X41639Y-56132D01*
X41695Y-56076D01*
X41751Y-56048D01*
X42173Y-56048D02*
X42370Y-56639D01*
X42567Y-56048D01*
X43186Y-56104D02*
X43214Y-56076D01*
X43270Y-56048D01*
X43411Y-56048D01*
X43467Y-56076D01*
X43495Y-56104D01*
X43523Y-56160D01*
X43523Y-56217D01*
X43495Y-56301D01*
X43157Y-56639D01*
X43523Y-56639D01*
X43889Y-56048D02*
X43945Y-56048D01*
X44001Y-56076D01*
X44029Y-56104D01*
X44057Y-56160D01*
X44085Y-56273D01*
X44085Y-56414D01*
X44057Y-56526D01*
X44029Y-56582D01*
X44001Y-56610D01*
X43945Y-56639D01*
X43889Y-56639D01*
X43832Y-56610D01*
X43804Y-56582D01*
X43776Y-56526D01*
X43748Y-56414D01*
X43748Y-56273D01*
X43776Y-56160D01*
X43804Y-56104D01*
X43832Y-56076D01*
X43889Y-56048D01*
X44648Y-56639D02*
X44310Y-56639D01*
X44479Y-56639D02*
X44479Y-56048D01*
X44423Y-56132D01*
X44367Y-56189D01*
X44310Y-56217D01*
X44985Y-56301D02*
X44929Y-56273D01*
X44901Y-56245D01*
X44873Y-56189D01*
X44873Y-56160D01*
X44901Y-56104D01*
X44929Y-56076D01*
X44985Y-56048D01*
X45098Y-56048D01*
X45154Y-56076D01*
X45182Y-56104D01*
X45210Y-56160D01*
X45210Y-56189D01*
X45182Y-56245D01*
X45154Y-56273D01*
X45098Y-56301D01*
X44985Y-56301D01*
X44929Y-56329D01*
X44901Y-56357D01*
X44873Y-56414D01*
X44873Y-56526D01*
X44901Y-56582D01*
X44929Y-56610D01*
X44985Y-56639D01*
X45098Y-56639D01*
X45154Y-56610D01*
X45182Y-56582D01*
X45210Y-56526D01*
X45210Y-56414D01*
X45182Y-56357D01*
X45154Y-56329D01*
X45098Y-56301D01*
G54D12*
X86000Y-47700D02*
X84500Y-46200D01*
X84500Y-46200D02*
X84000Y-46200D01*
X84000Y-46200D02*
X83500Y-46700D01*
X83500Y-46700D02*
X83500Y-47700D01*
X83500Y-47700D02*
X84500Y-48700D01*
X84500Y-48700D02*
X85500Y-48700D01*
X85500Y-48700D02*
X86000Y-48200D01*
X86000Y-48200D02*
X86000Y-47700D01*
X78300Y-41400D02*
X79800Y-39900D01*
X79800Y-39900D02*
X79800Y-39400D01*
X79800Y-39400D02*
X79300Y-38900D01*
X79300Y-38900D02*
X78300Y-38900D01*
X78300Y-38900D02*
X77300Y-39900D01*
X77300Y-39900D02*
X77300Y-40900D01*
X77300Y-40900D02*
X77800Y-41400D01*
X77800Y-41400D02*
X78300Y-41400D01*
X44100Y-42300D02*
X44100Y-43300D01*
X44100Y-43300D02*
X35100Y-43300D01*
X35100Y-43300D02*
X35100Y-42300D01*
X44100Y-42300D02*
X35100Y-42300D01*
X36100Y-42300D02*
X36100Y-43300D01*
X56100Y-42300D02*
X56100Y-43300D01*
X56100Y-43300D02*
X47100Y-43300D01*
X47100Y-43300D02*
X47100Y-42300D01*
X56100Y-42300D02*
X47100Y-42300D01*
X48100Y-42300D02*
X48100Y-43300D01*
G54D13*
X68900Y-44000D02*
X67900Y-44000D01*
X69459Y-44000D02*
G75*
G03X69459Y-44000I-559J0D01*
G74*
G01*
X83900Y-30600D02*
X82900Y-30600D01*
X84459Y-30600D02*
G75*
G03X84459Y-30600I-559J0D01*
G74*
G01*
X85500Y-51000D02*
X84500Y-51000D01*
X86059Y-51000D02*
G75*
G03X86059Y-51000I-559J0D01*
G74*
G01*
X84600Y-45100D02*
X84600Y-44100D01*
X85159Y-45100D02*
G75*
G03X85159Y-45100I-559J0D01*
G74*
G01*
X21700Y-42200D02*
X20700Y-42200D01*
X22259Y-42200D02*
G75*
G03X22259Y-42200I-559J0D01*
G74*
G01*
X79200Y-36900D02*
X79200Y-35900D01*
X79759Y-36900D02*
G75*
G03X79759Y-36900I-559J0D01*
G74*
G01*
X27700Y-44000D02*
X28700Y-44000D01*
X28259Y-44000D02*
G75*
G03X28259Y-44000I-559J0D01*
G74*
G01*
X78300Y-44000D02*
X77300Y-44000D01*
X78859Y-44000D02*
G75*
G03X78859Y-44000I-559J0D01*
G74*
G01*
G54D14*
X29600Y-54300D02*
X25600Y-54300D01*
X29600Y-53300D02*
X25600Y-53300D01*
X25600Y-53300D02*
X25600Y-54300D01*
X29600Y-54300D02*
X29600Y-53300D01*
X62800Y-54300D02*
X58800Y-54300D01*
X62800Y-53300D02*
X58800Y-53300D01*
X58800Y-53300D02*
X58800Y-54300D01*
X62800Y-54300D02*
X62800Y-53300D01*
X51400Y-54300D02*
X47400Y-54300D01*
X51400Y-53300D02*
X47400Y-53300D01*
X47400Y-53300D02*
X47400Y-54300D01*
X51400Y-54300D02*
X51400Y-53300D01*
X39000Y-54300D02*
X35000Y-54300D01*
X39000Y-53300D02*
X35000Y-53300D01*
X35000Y-53300D02*
X35000Y-54300D01*
X39000Y-54300D02*
X39000Y-53300D01*
X77000Y-54300D02*
X73000Y-54300D01*
X77000Y-53300D02*
X73000Y-53300D01*
X73000Y-53300D02*
X73000Y-54300D01*
X77000Y-54300D02*
X77000Y-53300D01*
X71600Y-54300D02*
X67600Y-54300D01*
X71600Y-53300D02*
X67600Y-53300D01*
X67600Y-53300D02*
X67600Y-54300D01*
X71600Y-54300D02*
X71600Y-53300D01*
G54D15*
X89300Y-50100D02*
X88300Y-50100D01*
X88300Y-50100D02*
X88300Y-47100D01*
X88300Y-47100D02*
X89300Y-47100D01*
X89300Y-47100D02*
X89300Y-50100D01*
X88300Y-49100D02*
X89300Y-49100D01*
X89300Y-36100D02*
X88300Y-36100D01*
X88300Y-36100D02*
X88300Y-33100D01*
X88300Y-33100D02*
X89300Y-33100D01*
X89300Y-33100D02*
X89300Y-36100D01*
X88300Y-35100D02*
X89300Y-35100D01*
X89300Y-45300D02*
X88300Y-45300D01*
X88300Y-45300D02*
X88300Y-42300D01*
X88300Y-42300D02*
X89300Y-42300D01*
X89300Y-42300D02*
X89300Y-45300D01*
X88300Y-44300D02*
X89300Y-44300D01*
X19900Y-44700D02*
X18900Y-44700D01*
X18900Y-44700D02*
X18900Y-41700D01*
X18900Y-41700D02*
X19900Y-41700D01*
X19900Y-41700D02*
X19900Y-44700D01*
X18900Y-43700D02*
X19900Y-43700D01*
X20800Y-54300D02*
X20800Y-53300D01*
X20800Y-53300D02*
X22800Y-53300D01*
X22800Y-53300D02*
X22800Y-54300D01*
X22800Y-54300D02*
X20800Y-54300D01*
X89300Y-40100D02*
X88300Y-40100D01*
X88300Y-39100D02*
X89300Y-39100D01*
X88300Y-40100D02*
X88300Y-39100D01*
X89300Y-39100D02*
X89300Y-40100D01*
G54D16*
X87520Y-31350D02*
X87520Y-29850D01*
G54D17*
X87207Y-30600D02*
G75*
G03X87207Y-30600I-707J0D01*
G74*
G01*
G54D14*
X87499Y-29849D02*
G75*
G03X87499Y-31350I-999J-750D01*
G74*
G01*
G54D15*
X86500Y-30150D02*
G75*
G03X86050Y-30600I0J-450D01*
G74*
G01*
X86500Y-31050D02*
G75*
G03X86950Y-30600I0J450D01*
G74*
G01*
X86500Y-29950D02*
G75*
G03X85850Y-30600I0J-650D01*
G74*
G01*
X86500Y-31250D02*
G75*
G03X87150Y-30600I0J650D01*
G74*
G01*
X86500Y-29750D02*
G75*
G03X85650Y-30600I0J-850D01*
G74*
G01*
X86500Y-31450D02*
G75*
G03X87350Y-30600I0J850D01*
G74*
G01*
G54D13*
X20700Y-47700D02*
X20700Y-47700D01*
X20700Y-47700D02*
X21200Y-47700D01*
X21200Y-47700D02*
X21200Y-48700D01*
X21200Y-48700D02*
X20700Y-48700D01*
X20700Y-47200D02*
X29700Y-47200D01*
X29700Y-47200D02*
X29700Y-49200D01*
X29700Y-49200D02*
X20700Y-49200D01*
X20700Y-49200D02*
X20700Y-47200D01*
X44500Y-47700D02*
X44500Y-47700D01*
X44500Y-47700D02*
X45000Y-47700D01*
X45000Y-47700D02*
X45000Y-48700D01*
X45000Y-48700D02*
X44500Y-48700D01*
X44500Y-47200D02*
X53500Y-47200D01*
X53500Y-47200D02*
X53500Y-49200D01*
X53500Y-49200D02*
X44500Y-49200D01*
X44500Y-49200D02*
X44500Y-47200D01*
X56300Y-47700D02*
X56300Y-47700D01*
X56300Y-47700D02*
X56800Y-47700D01*
X56800Y-47700D02*
X56800Y-48700D01*
X56800Y-48700D02*
X56300Y-48700D01*
X56300Y-47200D02*
X65300Y-47200D01*
X65300Y-47200D02*
X65300Y-49200D01*
X65300Y-49200D02*
X56300Y-49200D01*
X56300Y-49200D02*
X56300Y-47200D01*
X32500Y-47700D02*
X32500Y-47700D01*
X32500Y-47700D02*
X33000Y-47700D01*
X33000Y-47700D02*
X33000Y-48700D01*
X33000Y-48700D02*
X32500Y-48700D01*
X32500Y-47200D02*
X41500Y-47200D01*
X41500Y-47200D02*
X41500Y-49200D01*
X41500Y-49200D02*
X32500Y-49200D01*
X32500Y-49200D02*
X32500Y-47200D01*
X32500Y-37900D02*
X32500Y-37900D01*
X32500Y-37900D02*
X33000Y-37900D01*
X33000Y-37900D02*
X33000Y-38900D01*
X33000Y-38900D02*
X32500Y-38900D01*
X32500Y-37400D02*
X41500Y-37400D01*
X41500Y-37400D02*
X41500Y-39400D01*
X41500Y-39400D02*
X32500Y-39400D01*
X32500Y-39400D02*
X32500Y-37400D01*
X44500Y-37900D02*
X44500Y-37900D01*
X44500Y-37900D02*
X45000Y-37900D01*
X45000Y-37900D02*
X45000Y-38900D01*
X45000Y-38900D02*
X44500Y-38900D01*
X44500Y-37400D02*
X53500Y-37400D01*
X53500Y-37400D02*
X53500Y-39400D01*
X53500Y-39400D02*
X44500Y-39400D01*
X44500Y-39400D02*
X44500Y-37400D01*
X67900Y-47700D02*
X67900Y-47700D01*
X67900Y-47700D02*
X68400Y-47700D01*
X68400Y-47700D02*
X68400Y-48700D01*
X68400Y-48700D02*
X67900Y-48700D01*
X67900Y-47200D02*
X76900Y-47200D01*
X76900Y-47200D02*
X76900Y-49200D01*
X76900Y-49200D02*
X67900Y-49200D01*
X67900Y-49200D02*
X67900Y-47200D01*
X45600Y-30600D02*
X53600Y-30600D01*
X53600Y-32600D02*
X45600Y-32600D01*
X45600Y-32600D02*
X45600Y-30600D01*
X45600Y-31100D02*
X46100Y-31100D01*
X46100Y-31100D02*
X46100Y-32100D01*
X46100Y-32100D02*
X45600Y-32100D01*
X53600Y-30600D02*
X53600Y-32600D01*
X57400Y-30600D02*
X65400Y-30600D01*
X65400Y-32600D02*
X57400Y-32600D01*
X57400Y-32600D02*
X57400Y-30600D01*
X57400Y-31100D02*
X57900Y-31100D01*
X57900Y-31100D02*
X57900Y-32100D01*
X57900Y-32100D02*
X57400Y-32100D01*
X65400Y-30600D02*
X65400Y-32600D01*
X21400Y-30600D02*
X29400Y-30600D01*
X29400Y-32600D02*
X21400Y-32600D01*
X21400Y-32600D02*
X21400Y-30600D01*
X21400Y-31100D02*
X21900Y-31100D01*
X21900Y-31100D02*
X21900Y-32100D01*
X21900Y-32100D02*
X21400Y-32100D01*
X29400Y-30600D02*
X29400Y-32600D01*
X21400Y-37400D02*
X29400Y-37400D01*
X29400Y-39400D02*
X21400Y-39400D01*
X21400Y-39400D02*
X21400Y-37400D01*
X21400Y-37900D02*
X21900Y-37900D01*
X21900Y-37900D02*
X21900Y-38900D01*
X21900Y-38900D02*
X21400Y-38900D01*
X29400Y-37400D02*
X29400Y-39400D01*
X68000Y-30600D02*
X76000Y-30600D01*
X76000Y-32600D02*
X68000Y-32600D01*
X68000Y-32600D02*
X68000Y-30600D01*
X68000Y-31100D02*
X68500Y-31100D01*
X68500Y-31100D02*
X68500Y-32100D01*
X68500Y-32100D02*
X68000Y-32100D01*
X76000Y-30600D02*
X76000Y-32600D01*
X33400Y-30600D02*
X41400Y-30600D01*
X41400Y-32600D02*
X33400Y-32600D01*
X33400Y-32600D02*
X33400Y-30600D01*
X33400Y-31100D02*
X33900Y-31100D01*
X33900Y-31100D02*
X33900Y-32100D01*
X33900Y-32100D02*
X33400Y-32100D01*
X41400Y-30600D02*
X41400Y-32600D01*
G54D12*
X81500Y-48800D02*
X81200Y-48800D01*
X81200Y-48800D02*
X81200Y-48400D01*
X81200Y-48400D02*
X78800Y-48400D01*
X78800Y-48400D02*
X78800Y-48800D01*
X78800Y-48800D02*
X78500Y-48800D01*
X78800Y-48800D02*
X78800Y-49200D01*
X78800Y-49200D02*
X81200Y-49200D01*
X81200Y-49200D02*
X81200Y-48800D01*
X81000Y-48400D02*
X81000Y-49200D01*
X80900Y-49200D02*
X80900Y-48400D01*
X81500Y-50000D02*
X81200Y-50000D01*
X81200Y-50000D02*
X81200Y-49600D01*
X81200Y-49600D02*
X78800Y-49600D01*
X78800Y-49600D02*
X78800Y-50000D01*
X78800Y-50000D02*
X78500Y-50000D01*
X78800Y-50000D02*
X78800Y-50400D01*
X78800Y-50400D02*
X81200Y-50400D01*
X81200Y-50400D02*
X81200Y-50000D01*
X81000Y-49600D02*
X81000Y-50400D01*
X80900Y-50400D02*
X80900Y-49600D01*
X62300Y-44000D02*
X62600Y-44000D01*
X62600Y-44000D02*
X62600Y-44400D01*
X62600Y-44400D02*
X65000Y-44400D01*
X65000Y-44400D02*
X65000Y-44000D01*
X65000Y-44000D02*
X65300Y-44000D01*
X65000Y-44000D02*
X65000Y-43600D01*
X65000Y-43600D02*
X62600Y-43600D01*
X62600Y-43600D02*
X62600Y-44000D01*
X62800Y-44400D02*
X62800Y-43600D01*
X62900Y-43600D02*
X62900Y-44400D01*
X75900Y-39800D02*
X75600Y-39800D01*
X75600Y-39800D02*
X75600Y-39400D01*
X75600Y-39400D02*
X73200Y-39400D01*
X73200Y-39400D02*
X73200Y-39800D01*
X73200Y-39800D02*
X72900Y-39800D01*
X73200Y-39800D02*
X73200Y-40200D01*
X73200Y-40200D02*
X75600Y-40200D01*
X75600Y-40200D02*
X75600Y-39800D01*
X75400Y-39400D02*
X75400Y-40200D01*
X75300Y-40200D02*
X75300Y-39400D01*
X75900Y-41200D02*
X75600Y-41200D01*
X75600Y-41200D02*
X75600Y-40800D01*
X75600Y-40800D02*
X73200Y-40800D01*
X73200Y-40800D02*
X73200Y-41200D01*
X73200Y-41200D02*
X72900Y-41200D01*
X73200Y-41200D02*
X73200Y-41600D01*
X73200Y-41600D02*
X75600Y-41600D01*
X75600Y-41600D02*
X75600Y-41200D01*
X75400Y-40800D02*
X75400Y-41600D01*
X75300Y-41600D02*
X75300Y-40800D01*
X62300Y-42600D02*
X62600Y-42600D01*
X62600Y-42600D02*
X62600Y-43000D01*
X62600Y-43000D02*
X65000Y-43000D01*
X65000Y-43000D02*
X65000Y-42600D01*
X65000Y-42600D02*
X65300Y-42600D01*
X65000Y-42600D02*
X65000Y-42200D01*
X65000Y-42200D02*
X62600Y-42200D01*
X62600Y-42200D02*
X62600Y-42600D01*
X62800Y-43000D02*
X62800Y-42200D01*
X62900Y-42200D02*
X62900Y-43000D01*
X75900Y-44000D02*
X75600Y-44000D01*
X75600Y-44000D02*
X75600Y-43600D01*
X75600Y-43600D02*
X73200Y-43600D01*
X73200Y-43600D02*
X73200Y-44000D01*
X73200Y-44000D02*
X72900Y-44000D01*
X73200Y-44000D02*
X73200Y-44400D01*
X73200Y-44400D02*
X75600Y-44400D01*
X75600Y-44400D02*
X75600Y-44000D01*
X75400Y-43600D02*
X75400Y-44400D01*
X75300Y-44400D02*
X75300Y-43600D01*
X75900Y-42600D02*
X75600Y-42600D01*
X75600Y-42600D02*
X75600Y-42200D01*
X75600Y-42200D02*
X73200Y-42200D01*
X73200Y-42200D02*
X73200Y-42600D01*
X73200Y-42600D02*
X72900Y-42600D01*
X73200Y-42600D02*
X73200Y-43000D01*
X73200Y-43000D02*
X75600Y-43000D01*
X75600Y-43000D02*
X75600Y-42600D01*
X75400Y-42200D02*
X75400Y-43000D01*
X75300Y-43000D02*
X75300Y-42200D01*
X81500Y-51200D02*
X81200Y-51200D01*
X81200Y-51200D02*
X81200Y-50800D01*
X81200Y-50800D02*
X78800Y-50800D01*
X78800Y-50800D02*
X78800Y-51200D01*
X78800Y-51200D02*
X78500Y-51200D01*
X78800Y-51200D02*
X78800Y-51600D01*
X78800Y-51600D02*
X81200Y-51600D01*
X81200Y-51600D02*
X81200Y-51200D01*
X81000Y-50800D02*
X81000Y-51600D01*
X80900Y-51600D02*
X80900Y-50800D01*
X81500Y-47600D02*
X81200Y-47600D01*
X81200Y-47600D02*
X81200Y-47200D01*
X81200Y-47200D02*
X78800Y-47200D01*
X78800Y-47200D02*
X78800Y-47600D01*
X78800Y-47600D02*
X78500Y-47600D01*
X78800Y-47600D02*
X78800Y-48000D01*
X78800Y-48000D02*
X81200Y-48000D01*
X81200Y-48000D02*
X81200Y-47600D01*
X81000Y-47200D02*
X81000Y-48000D01*
X80900Y-48000D02*
X80900Y-47200D01*
X33700Y-44000D02*
X33400Y-44000D01*
X33400Y-44000D02*
X33400Y-43600D01*
X33400Y-43600D02*
X31000Y-43600D01*
X31000Y-43600D02*
X31000Y-44000D01*
X31000Y-44000D02*
X30700Y-44000D01*
X31000Y-44000D02*
X31000Y-44400D01*
X31000Y-44400D02*
X33400Y-44400D01*
X33400Y-44400D02*
X33400Y-44000D01*
X33200Y-43600D02*
X33200Y-44400D01*
X33100Y-44400D02*
X33100Y-43600D01*
X84400Y-35700D02*
X84400Y-35400D01*
X84400Y-35400D02*
X84800Y-35400D01*
X84800Y-35400D02*
X84800Y-33000D01*
X84800Y-33000D02*
X84400Y-33000D01*
X84400Y-33000D02*
X84400Y-32700D01*
X84400Y-33000D02*
X84000Y-33000D01*
X84000Y-33000D02*
X84000Y-35400D01*
X84000Y-35400D02*
X84400Y-35400D01*
X84800Y-35200D02*
X84000Y-35200D01*
X84000Y-35100D02*
X84800Y-35100D01*
X33700Y-42600D02*
X33400Y-42600D01*
X33400Y-42600D02*
X33400Y-42200D01*
X33400Y-42200D02*
X31000Y-42200D01*
X31000Y-42200D02*
X31000Y-42600D01*
X31000Y-42600D02*
X30700Y-42600D01*
X31000Y-42600D02*
X31000Y-43000D01*
X31000Y-43000D02*
X33400Y-43000D01*
X33400Y-43000D02*
X33400Y-42600D01*
X33200Y-42200D02*
X33200Y-43000D01*
X33100Y-43000D02*
X33100Y-42200D01*
X32500Y-30620D02*
X32500Y-32600D01*
X32500Y-32600D02*
X31500Y-32600D01*
X31500Y-32600D02*
X31500Y-30600D01*
X31500Y-30600D02*
X32500Y-30600D01*
X32250Y-30600D02*
X32500Y-30850D01*
X67100Y-47220D02*
X67100Y-49200D01*
X67100Y-49200D02*
X66100Y-49200D01*
X66100Y-49200D02*
X66100Y-47200D01*
X66100Y-47200D02*
X67100Y-47200D01*
X66850Y-47200D02*
X67100Y-47450D01*
X55500Y-47220D02*
X55500Y-49200D01*
X55500Y-49200D02*
X54500Y-49200D01*
X54500Y-49200D02*
X54500Y-47200D01*
X54500Y-47200D02*
X55500Y-47200D01*
X55250Y-47200D02*
X55500Y-47450D01*
X56700Y-30620D02*
X56700Y-32600D01*
X56700Y-32600D02*
X55700Y-32600D01*
X55700Y-32600D02*
X55700Y-30600D01*
X55700Y-30600D02*
X56700Y-30600D01*
X56450Y-30600D02*
X56700Y-30850D01*
X20700Y-30620D02*
X20700Y-32600D01*
X20700Y-32600D02*
X19700Y-32600D01*
X19700Y-32600D02*
X19700Y-30600D01*
X19700Y-30600D02*
X20700Y-30600D01*
X20450Y-30600D02*
X20700Y-30850D01*
X19900Y-47220D02*
X19900Y-49200D01*
X19900Y-49200D02*
X18900Y-49200D01*
X18900Y-49200D02*
X18900Y-47200D01*
X18900Y-47200D02*
X19900Y-47200D01*
X19650Y-47200D02*
X19900Y-47450D01*
X43700Y-37420D02*
X43700Y-39400D01*
X43700Y-39400D02*
X42700Y-39400D01*
X42700Y-39400D02*
X42700Y-37400D01*
X42700Y-37400D02*
X43700Y-37400D01*
X43450Y-37400D02*
X43700Y-37650D01*
X67300Y-30620D02*
X67300Y-32600D01*
X67300Y-32600D02*
X66300Y-32600D01*
X66300Y-32600D02*
X66300Y-30600D01*
X66300Y-30600D02*
X67300Y-30600D01*
X67050Y-30600D02*
X67300Y-30850D01*
X44900Y-30620D02*
X44900Y-32600D01*
X44900Y-32600D02*
X43900Y-32600D01*
X43900Y-32600D02*
X43900Y-30600D01*
X43900Y-30600D02*
X44900Y-30600D01*
X44650Y-30600D02*
X44900Y-30850D01*
X85900Y-36180D02*
X85900Y-34200D01*
X85900Y-34200D02*
X86900Y-34200D01*
X86900Y-34200D02*
X86900Y-36200D01*
X86900Y-36200D02*
X85900Y-36200D01*
X86150Y-36200D02*
X85900Y-35950D01*
X31700Y-47220D02*
X31700Y-49200D01*
X31700Y-49200D02*
X30700Y-49200D01*
X30700Y-49200D02*
X30700Y-47200D01*
X30700Y-47200D02*
X31700Y-47200D01*
X31450Y-47200D02*
X31700Y-47450D01*
X43700Y-47220D02*
X43700Y-49200D01*
X43700Y-49200D02*
X42700Y-49200D01*
X42700Y-49200D02*
X42700Y-47200D01*
X42700Y-47200D02*
X43700Y-47200D01*
X43450Y-47200D02*
X43700Y-47450D01*
X31700Y-37420D02*
X31700Y-39400D01*
X31700Y-39400D02*
X30700Y-39400D01*
X30700Y-39400D02*
X30700Y-37400D01*
X30700Y-37400D02*
X31700Y-37400D01*
X31450Y-37400D02*
X31700Y-37650D01*
X20700Y-37420D02*
X20700Y-39400D01*
X20700Y-39400D02*
X19700Y-39400D01*
X19700Y-39400D02*
X19700Y-37400D01*
X19700Y-37400D02*
X20700Y-37400D01*
X20450Y-37400D02*
X20700Y-37650D01*
G54D16*
X86700Y-47738D02*
X86680Y-47776D01*
X86642Y-47814D01*
X86585Y-47871D01*
X86566Y-47909D01*
X86566Y-47947D01*
X86661Y-47928D02*
X86642Y-47966D01*
X86604Y-48004D01*
X86528Y-48023D01*
X86395Y-48023D01*
X86319Y-48004D01*
X86280Y-47966D01*
X86261Y-47928D01*
X86261Y-47852D01*
X86280Y-47814D01*
X86319Y-47776D01*
X86395Y-47757D01*
X86528Y-47757D01*
X86604Y-47776D01*
X86642Y-47814D01*
X86661Y-47852D01*
X86661Y-47928D01*
X86261Y-47395D02*
X86261Y-47585D01*
X86452Y-47604D01*
X86433Y-47585D01*
X86414Y-47547D01*
X86414Y-47452D01*
X86433Y-47414D01*
X86452Y-47395D01*
X86490Y-47376D01*
X86585Y-47376D01*
X86623Y-47395D01*
X86642Y-47414D01*
X86661Y-47452D01*
X86661Y-47547D01*
X86642Y-47585D01*
X86623Y-47604D01*
X82761Y-48976D02*
X82761Y-48709D01*
X83161Y-48976D01*
X83161Y-48709D01*
X82761Y-48614D02*
X83161Y-48480D01*
X82761Y-48347D01*
X83161Y-48214D02*
X82761Y-48214D01*
X83161Y-47985D01*
X82761Y-47985D01*
X82895Y-47623D02*
X83161Y-47623D01*
X82742Y-47719D02*
X83028Y-47814D01*
X83028Y-47566D01*
X82800Y-47433D02*
X82780Y-47414D01*
X82761Y-47376D01*
X82761Y-47280D01*
X82780Y-47242D01*
X82800Y-47223D01*
X82838Y-47204D01*
X82876Y-47204D01*
X82933Y-47223D01*
X83161Y-47452D01*
X83161Y-47204D01*
X82761Y-46957D02*
X82761Y-46919D01*
X82780Y-46880D01*
X82800Y-46861D01*
X82838Y-46842D01*
X82914Y-46823D01*
X83009Y-46823D01*
X83085Y-46842D01*
X83123Y-46861D01*
X83142Y-46880D01*
X83161Y-46919D01*
X83161Y-46957D01*
X83142Y-46995D01*
X83123Y-47014D01*
X83085Y-47033D01*
X83009Y-47052D01*
X82914Y-47052D01*
X82838Y-47033D01*
X82800Y-47014D01*
X82780Y-46995D01*
X82761Y-46957D01*
X82761Y-46480D02*
X82761Y-46557D01*
X82780Y-46595D01*
X82800Y-46614D01*
X82857Y-46652D01*
X82933Y-46671D01*
X83085Y-46671D01*
X83123Y-46652D01*
X83142Y-46633D01*
X83161Y-46595D01*
X83161Y-46519D01*
X83142Y-46480D01*
X83123Y-46461D01*
X83085Y-46442D01*
X82990Y-46442D01*
X82952Y-46461D01*
X82933Y-46480D01*
X82914Y-46519D01*
X82914Y-46595D01*
X82933Y-46633D01*
X82952Y-46652D01*
X82990Y-46671D01*
X78261Y-42100D02*
X78223Y-42080D01*
X78185Y-42042D01*
X78128Y-41985D01*
X78090Y-41966D01*
X78052Y-41966D01*
X78071Y-42061D02*
X78033Y-42042D01*
X77995Y-42004D01*
X77976Y-41928D01*
X77976Y-41795D01*
X77995Y-41719D01*
X78033Y-41680D01*
X78071Y-41661D01*
X78147Y-41661D01*
X78185Y-41680D01*
X78223Y-41719D01*
X78242Y-41795D01*
X78242Y-41928D01*
X78223Y-42004D01*
X78185Y-42042D01*
X78147Y-42061D01*
X78071Y-42061D01*
X78585Y-41661D02*
X78509Y-41661D01*
X78471Y-41680D01*
X78452Y-41700D01*
X78414Y-41757D01*
X78395Y-41833D01*
X78395Y-41985D01*
X78414Y-42023D01*
X78433Y-42042D01*
X78471Y-42061D01*
X78547Y-42061D01*
X78585Y-42042D01*
X78604Y-42023D01*
X78623Y-41985D01*
X78623Y-41890D01*
X78604Y-41852D01*
X78585Y-41833D01*
X78547Y-41814D01*
X78471Y-41814D01*
X78433Y-41833D01*
X78414Y-41852D01*
X78395Y-41890D01*
X77023Y-38161D02*
X77290Y-38161D01*
X77023Y-38561D01*
X77290Y-38561D01*
X77385Y-38161D02*
X77519Y-38561D01*
X77652Y-38161D01*
X77785Y-38561D02*
X77785Y-38161D01*
X78014Y-38561D01*
X78014Y-38161D01*
X78376Y-38295D02*
X78376Y-38561D01*
X78280Y-38142D02*
X78185Y-38428D01*
X78433Y-38428D01*
X78566Y-38200D02*
X78585Y-38180D01*
X78623Y-38161D01*
X78719Y-38161D01*
X78757Y-38180D01*
X78776Y-38200D01*
X78795Y-38238D01*
X78795Y-38276D01*
X78776Y-38333D01*
X78547Y-38561D01*
X78795Y-38561D01*
X79042Y-38161D02*
X79080Y-38161D01*
X79119Y-38180D01*
X79138Y-38200D01*
X79157Y-38238D01*
X79176Y-38314D01*
X79176Y-38409D01*
X79157Y-38485D01*
X79138Y-38523D01*
X79119Y-38542D01*
X79080Y-38561D01*
X79042Y-38561D01*
X79004Y-38542D01*
X78985Y-38523D01*
X78966Y-38485D01*
X78947Y-38409D01*
X78947Y-38314D01*
X78966Y-38238D01*
X78985Y-38200D01*
X79004Y-38180D01*
X79042Y-38161D01*
X79519Y-38161D02*
X79442Y-38161D01*
X79404Y-38180D01*
X79385Y-38200D01*
X79347Y-38257D01*
X79328Y-38333D01*
X79328Y-38485D01*
X79347Y-38523D01*
X79366Y-38542D01*
X79404Y-38561D01*
X79480Y-38561D01*
X79519Y-38542D01*
X79538Y-38523D01*
X79557Y-38485D01*
X79557Y-38390D01*
X79538Y-38352D01*
X79519Y-38333D01*
X79480Y-38314D01*
X79404Y-38314D01*
X79366Y-38333D01*
X79347Y-38352D01*
X79328Y-38390D01*
G54D18*
X36314Y-42075D02*
X36172Y-41751D01*
X36070Y-42075D02*
X36070Y-41394D01*
X36233Y-41394D01*
X36273Y-41427D01*
X36294Y-41459D01*
X36314Y-41524D01*
X36314Y-41621D01*
X36294Y-41686D01*
X36273Y-41718D01*
X36233Y-41751D01*
X36070Y-41751D01*
X36742Y-42075D02*
X36600Y-41751D01*
X36498Y-42075D02*
X36498Y-41394D01*
X36661Y-41394D01*
X36701Y-41427D01*
X36722Y-41459D01*
X36742Y-41524D01*
X36742Y-41621D01*
X36722Y-41686D01*
X36701Y-41718D01*
X36661Y-41751D01*
X36498Y-41751D01*
X37150Y-42075D02*
X36905Y-42075D01*
X37028Y-42075D02*
X37028Y-41394D01*
X36987Y-41491D01*
X36946Y-41556D01*
X36905Y-41589D01*
G54D12*
G54D14*
X41133Y-42042D02*
X40904Y-42042D01*
X41019Y-42042D02*
X41019Y-41442D01*
X40980Y-41528D01*
X40942Y-41585D01*
X40904Y-41614D01*
X41380Y-41442D02*
X41419Y-41442D01*
X41457Y-41471D01*
X41476Y-41500D01*
X41495Y-41557D01*
X41514Y-41671D01*
X41514Y-41814D01*
X41495Y-41928D01*
X41476Y-41985D01*
X41457Y-42014D01*
X41419Y-42042D01*
X41380Y-42042D01*
X41342Y-42014D01*
X41323Y-41985D01*
X41304Y-41928D01*
X41285Y-41814D01*
X41285Y-41671D01*
X41304Y-41557D01*
X41323Y-41500D01*
X41342Y-41471D01*
X41380Y-41442D01*
X41761Y-41442D02*
X41800Y-41442D01*
X41838Y-41471D01*
X41857Y-41500D01*
X41876Y-41557D01*
X41895Y-41671D01*
X41895Y-41814D01*
X41876Y-41928D01*
X41857Y-41985D01*
X41838Y-42014D01*
X41800Y-42042D01*
X41761Y-42042D01*
X41723Y-42014D01*
X41704Y-41985D01*
X41685Y-41928D01*
X41666Y-41814D01*
X41666Y-41671D01*
X41685Y-41557D01*
X41704Y-41500D01*
X41723Y-41471D01*
X41761Y-41442D01*
X42066Y-42042D02*
X42066Y-41442D01*
X42295Y-42042D02*
X42123Y-41700D01*
X42295Y-41442D02*
X42066Y-41785D01*
G54D12*
G54D18*
X48314Y-42075D02*
X48172Y-41751D01*
X48070Y-42075D02*
X48070Y-41394D01*
X48233Y-41394D01*
X48273Y-41427D01*
X48294Y-41459D01*
X48314Y-41524D01*
X48314Y-41621D01*
X48294Y-41686D01*
X48273Y-41718D01*
X48233Y-41751D01*
X48070Y-41751D01*
X48742Y-42075D02*
X48600Y-41751D01*
X48498Y-42075D02*
X48498Y-41394D01*
X48661Y-41394D01*
X48701Y-41427D01*
X48722Y-41459D01*
X48742Y-41524D01*
X48742Y-41621D01*
X48722Y-41686D01*
X48701Y-41718D01*
X48661Y-41751D01*
X48498Y-41751D01*
X48905Y-41459D02*
X48926Y-41427D01*
X48966Y-41394D01*
X49068Y-41394D01*
X49109Y-41427D01*
X49129Y-41459D01*
X49150Y-41524D01*
X49150Y-41589D01*
X49129Y-41686D01*
X48885Y-42075D01*
X49150Y-42075D01*
G54D12*
G54D14*
X53133Y-42042D02*
X52904Y-42042D01*
X53019Y-42042D02*
X53019Y-41442D01*
X52980Y-41528D01*
X52942Y-41585D01*
X52904Y-41614D01*
X53380Y-41442D02*
X53419Y-41442D01*
X53457Y-41471D01*
X53476Y-41500D01*
X53495Y-41557D01*
X53514Y-41671D01*
X53514Y-41814D01*
X53495Y-41928D01*
X53476Y-41985D01*
X53457Y-42014D01*
X53419Y-42042D01*
X53380Y-42042D01*
X53342Y-42014D01*
X53323Y-41985D01*
X53304Y-41928D01*
X53285Y-41814D01*
X53285Y-41671D01*
X53304Y-41557D01*
X53323Y-41500D01*
X53342Y-41471D01*
X53380Y-41442D01*
X53761Y-41442D02*
X53800Y-41442D01*
X53838Y-41471D01*
X53857Y-41500D01*
X53876Y-41557D01*
X53895Y-41671D01*
X53895Y-41814D01*
X53876Y-41928D01*
X53857Y-41985D01*
X53838Y-42014D01*
X53800Y-42042D01*
X53761Y-42042D01*
X53723Y-42014D01*
X53704Y-41985D01*
X53685Y-41928D01*
X53666Y-41814D01*
X53666Y-41671D01*
X53685Y-41557D01*
X53704Y-41500D01*
X53723Y-41471D01*
X53761Y-41442D01*
X54066Y-42042D02*
X54066Y-41442D01*
X54295Y-42042D02*
X54123Y-41700D01*
X54295Y-41442D02*
X54066Y-41785D01*
G54D12*
G54D16*
X68478Y-43222D02*
X68311Y-42960D01*
X68192Y-43222D02*
X68192Y-42672D01*
X68383Y-42672D01*
X68430Y-42698D01*
X68454Y-42725D01*
X68478Y-42777D01*
X68478Y-42855D01*
X68454Y-42908D01*
X68430Y-42934D01*
X68383Y-42960D01*
X68192Y-42960D01*
X68645Y-42672D02*
X68954Y-42672D01*
X68788Y-42882D01*
X68859Y-42882D01*
X68907Y-42908D01*
X68930Y-42934D01*
X68954Y-42986D01*
X68954Y-43117D01*
X68930Y-43170D01*
X68907Y-43196D01*
X68859Y-43222D01*
X68716Y-43222D01*
X68669Y-43196D01*
X68645Y-43170D01*
X69383Y-42855D02*
X69383Y-43222D01*
X69264Y-42646D02*
X69145Y-43039D01*
X69454Y-43039D01*
X83478Y-29822D02*
X83311Y-29560D01*
X83192Y-29822D02*
X83192Y-29272D01*
X83383Y-29272D01*
X83430Y-29298D01*
X83454Y-29325D01*
X83478Y-29377D01*
X83478Y-29455D01*
X83454Y-29508D01*
X83430Y-29534D01*
X83383Y-29560D01*
X83192Y-29560D01*
X83669Y-29325D02*
X83692Y-29298D01*
X83740Y-29272D01*
X83859Y-29272D01*
X83907Y-29298D01*
X83930Y-29325D01*
X83954Y-29377D01*
X83954Y-29429D01*
X83930Y-29508D01*
X83645Y-29822D01*
X83954Y-29822D01*
X84192Y-29822D02*
X84288Y-29822D01*
X84335Y-29796D01*
X84359Y-29770D01*
X84407Y-29691D01*
X84430Y-29586D01*
X84430Y-29377D01*
X84407Y-29325D01*
X84383Y-29298D01*
X84335Y-29272D01*
X84240Y-29272D01*
X84192Y-29298D01*
X84169Y-29325D01*
X84145Y-29377D01*
X84145Y-29508D01*
X84169Y-29560D01*
X84192Y-29586D01*
X84240Y-29613D01*
X84335Y-29613D01*
X84383Y-29586D01*
X84407Y-29560D01*
X84430Y-29508D01*
X85078Y-50222D02*
X84911Y-49960D01*
X84792Y-50222D02*
X84792Y-49672D01*
X84983Y-49672D01*
X85030Y-49698D01*
X85054Y-49725D01*
X85078Y-49777D01*
X85078Y-49855D01*
X85054Y-49908D01*
X85030Y-49934D01*
X84983Y-49960D01*
X84792Y-49960D01*
X85245Y-49672D02*
X85554Y-49672D01*
X85388Y-49882D01*
X85459Y-49882D01*
X85507Y-49908D01*
X85530Y-49934D01*
X85554Y-49986D01*
X85554Y-50117D01*
X85530Y-50170D01*
X85507Y-50196D01*
X85459Y-50222D01*
X85316Y-50222D01*
X85269Y-50196D01*
X85245Y-50170D01*
X86007Y-49672D02*
X85769Y-49672D01*
X85745Y-49934D01*
X85769Y-49908D01*
X85816Y-49882D01*
X85935Y-49882D01*
X85983Y-49908D01*
X86007Y-49934D01*
X86030Y-49986D01*
X86030Y-50117D01*
X86007Y-50170D01*
X85983Y-50196D01*
X85935Y-50222D01*
X85816Y-50222D01*
X85769Y-50196D01*
X85745Y-50170D01*
X85822Y-45321D02*
X85560Y-45488D01*
X85822Y-45607D02*
X85272Y-45607D01*
X85272Y-45416D01*
X85298Y-45369D01*
X85325Y-45345D01*
X85377Y-45321D01*
X85455Y-45321D01*
X85508Y-45345D01*
X85534Y-45369D01*
X85560Y-45416D01*
X85560Y-45607D01*
X85272Y-45154D02*
X85272Y-44845D01*
X85482Y-45011D01*
X85482Y-44940D01*
X85508Y-44892D01*
X85534Y-44869D01*
X85586Y-44845D01*
X85717Y-44845D01*
X85770Y-44869D01*
X85796Y-44892D01*
X85822Y-44940D01*
X85822Y-45083D01*
X85796Y-45130D01*
X85770Y-45154D01*
X85822Y-44369D02*
X85822Y-44654D01*
X85822Y-44511D02*
X85272Y-44511D01*
X85351Y-44559D01*
X85403Y-44607D01*
X85429Y-44654D01*
X21278Y-41422D02*
X21111Y-41160D01*
X20992Y-41422D02*
X20992Y-40872D01*
X21183Y-40872D01*
X21230Y-40898D01*
X21254Y-40925D01*
X21278Y-40977D01*
X21278Y-41055D01*
X21254Y-41108D01*
X21230Y-41134D01*
X21183Y-41160D01*
X20992Y-41160D01*
X21445Y-40872D02*
X21754Y-40872D01*
X21588Y-41082D01*
X21659Y-41082D01*
X21707Y-41108D01*
X21730Y-41134D01*
X21754Y-41186D01*
X21754Y-41317D01*
X21730Y-41370D01*
X21707Y-41396D01*
X21659Y-41422D01*
X21516Y-41422D01*
X21469Y-41396D01*
X21445Y-41370D01*
X22064Y-40872D02*
X22111Y-40872D01*
X22159Y-40898D01*
X22183Y-40925D01*
X22207Y-40977D01*
X22230Y-41082D01*
X22230Y-41213D01*
X22207Y-41317D01*
X22183Y-41370D01*
X22159Y-41396D01*
X22111Y-41422D01*
X22064Y-41422D01*
X22016Y-41396D01*
X21992Y-41370D01*
X21969Y-41317D01*
X21945Y-41213D01*
X21945Y-41082D01*
X21969Y-40977D01*
X21992Y-40925D01*
X22016Y-40898D01*
X22064Y-40872D01*
X80422Y-37121D02*
X80160Y-37288D01*
X80422Y-37407D02*
X79872Y-37407D01*
X79872Y-37216D01*
X79898Y-37169D01*
X79925Y-37145D01*
X79977Y-37121D01*
X80055Y-37121D01*
X80108Y-37145D01*
X80134Y-37169D01*
X80160Y-37216D01*
X80160Y-37407D01*
X79872Y-36954D02*
X79872Y-36645D01*
X80082Y-36811D01*
X80082Y-36740D01*
X80108Y-36692D01*
X80134Y-36669D01*
X80186Y-36645D01*
X80317Y-36645D01*
X80370Y-36669D01*
X80396Y-36692D01*
X80422Y-36740D01*
X80422Y-36883D01*
X80396Y-36930D01*
X80370Y-36954D01*
X79925Y-36454D02*
X79898Y-36430D01*
X79872Y-36383D01*
X79872Y-36264D01*
X79898Y-36216D01*
X79925Y-36192D01*
X79977Y-36169D01*
X80029Y-36169D01*
X80108Y-36192D01*
X80422Y-36478D01*
X80422Y-36169D01*
X27478Y-45222D02*
X27311Y-44960D01*
X27192Y-45222D02*
X27192Y-44672D01*
X27383Y-44672D01*
X27430Y-44698D01*
X27454Y-44725D01*
X27478Y-44777D01*
X27478Y-44855D01*
X27454Y-44908D01*
X27430Y-44934D01*
X27383Y-44960D01*
X27192Y-44960D01*
X27645Y-44672D02*
X27954Y-44672D01*
X27788Y-44882D01*
X27859Y-44882D01*
X27907Y-44908D01*
X27930Y-44934D01*
X27954Y-44986D01*
X27954Y-45117D01*
X27930Y-45170D01*
X27907Y-45196D01*
X27859Y-45222D01*
X27716Y-45222D01*
X27669Y-45196D01*
X27645Y-45170D01*
X28121Y-44672D02*
X28430Y-44672D01*
X28264Y-44882D01*
X28335Y-44882D01*
X28383Y-44908D01*
X28407Y-44934D01*
X28430Y-44986D01*
X28430Y-45117D01*
X28407Y-45170D01*
X28383Y-45196D01*
X28335Y-45222D01*
X28192Y-45222D01*
X28145Y-45196D01*
X28121Y-45170D01*
X77878Y-43222D02*
X77711Y-42960D01*
X77592Y-43222D02*
X77592Y-42672D01*
X77783Y-42672D01*
X77830Y-42698D01*
X77854Y-42725D01*
X77878Y-42777D01*
X77878Y-42855D01*
X77854Y-42908D01*
X77830Y-42934D01*
X77783Y-42960D01*
X77592Y-42960D01*
X78045Y-42672D02*
X78354Y-42672D01*
X78188Y-42882D01*
X78259Y-42882D01*
X78307Y-42908D01*
X78330Y-42934D01*
X78354Y-42986D01*
X78354Y-43117D01*
X78330Y-43170D01*
X78307Y-43196D01*
X78259Y-43222D01*
X78116Y-43222D01*
X78069Y-43196D01*
X78045Y-43170D01*
X78783Y-42672D02*
X78688Y-42672D01*
X78640Y-42698D01*
X78616Y-42725D01*
X78569Y-42803D01*
X78545Y-42908D01*
X78545Y-43117D01*
X78569Y-43170D01*
X78592Y-43196D01*
X78640Y-43222D01*
X78735Y-43222D01*
X78783Y-43196D01*
X78807Y-43170D01*
X78830Y-43117D01*
X78830Y-42986D01*
X78807Y-42934D01*
X78783Y-42908D01*
X78735Y-42882D01*
X78640Y-42882D01*
X78592Y-42908D01*
X78569Y-42934D01*
X78545Y-42986D01*
X27114Y-52961D02*
X27114Y-52561D01*
X27266Y-52561D01*
X27304Y-52580D01*
X27323Y-52600D01*
X27342Y-52638D01*
X27342Y-52695D01*
X27323Y-52733D01*
X27304Y-52752D01*
X27266Y-52771D01*
X27114Y-52771D01*
X27495Y-52600D02*
X27514Y-52580D01*
X27552Y-52561D01*
X27647Y-52561D01*
X27685Y-52580D01*
X27704Y-52600D01*
X27723Y-52638D01*
X27723Y-52676D01*
X27704Y-52733D01*
X27476Y-52961D01*
X27723Y-52961D01*
X28104Y-52961D02*
X27876Y-52961D01*
X27990Y-52961D02*
X27990Y-52561D01*
X27952Y-52619D01*
X27914Y-52657D01*
X27876Y-52676D01*
X60314Y-52961D02*
X60314Y-52561D01*
X60466Y-52561D01*
X60504Y-52580D01*
X60523Y-52600D01*
X60542Y-52638D01*
X60542Y-52695D01*
X60523Y-52733D01*
X60504Y-52752D01*
X60466Y-52771D01*
X60314Y-52771D01*
X60923Y-52961D02*
X60695Y-52961D01*
X60809Y-52961D02*
X60809Y-52561D01*
X60771Y-52619D01*
X60733Y-52657D01*
X60695Y-52676D01*
X61057Y-52561D02*
X61323Y-52561D01*
X61152Y-52961D01*
X48914Y-52961D02*
X48914Y-52561D01*
X49066Y-52561D01*
X49104Y-52580D01*
X49123Y-52600D01*
X49142Y-52638D01*
X49142Y-52695D01*
X49123Y-52733D01*
X49104Y-52752D01*
X49066Y-52771D01*
X48914Y-52771D01*
X49523Y-52961D02*
X49295Y-52961D01*
X49409Y-52961D02*
X49409Y-52561D01*
X49371Y-52619D01*
X49333Y-52657D01*
X49295Y-52676D01*
X49866Y-52561D02*
X49790Y-52561D01*
X49752Y-52580D01*
X49733Y-52600D01*
X49695Y-52657D01*
X49676Y-52733D01*
X49676Y-52885D01*
X49695Y-52923D01*
X49714Y-52942D01*
X49752Y-52961D01*
X49828Y-52961D01*
X49866Y-52942D01*
X49885Y-52923D01*
X49904Y-52885D01*
X49904Y-52790D01*
X49885Y-52752D01*
X49866Y-52733D01*
X49828Y-52714D01*
X49752Y-52714D01*
X49714Y-52733D01*
X49695Y-52752D01*
X49676Y-52790D01*
X36514Y-52961D02*
X36514Y-52561D01*
X36666Y-52561D01*
X36704Y-52580D01*
X36723Y-52600D01*
X36742Y-52638D01*
X36742Y-52695D01*
X36723Y-52733D01*
X36704Y-52752D01*
X36666Y-52771D01*
X36514Y-52771D01*
X37123Y-52961D02*
X36895Y-52961D01*
X37009Y-52961D02*
X37009Y-52561D01*
X36971Y-52619D01*
X36933Y-52657D01*
X36895Y-52676D01*
X37485Y-52561D02*
X37295Y-52561D01*
X37276Y-52752D01*
X37295Y-52733D01*
X37333Y-52714D01*
X37428Y-52714D01*
X37466Y-52733D01*
X37485Y-52752D01*
X37504Y-52790D01*
X37504Y-52885D01*
X37485Y-52923D01*
X37466Y-52942D01*
X37428Y-52961D01*
X37333Y-52961D01*
X37295Y-52942D01*
X37276Y-52923D01*
X74514Y-52961D02*
X74514Y-52561D01*
X74666Y-52561D01*
X74704Y-52580D01*
X74723Y-52600D01*
X74742Y-52638D01*
X74742Y-52695D01*
X74723Y-52733D01*
X74704Y-52752D01*
X74666Y-52771D01*
X74514Y-52771D01*
X75123Y-52961D02*
X74895Y-52961D01*
X75009Y-52961D02*
X75009Y-52561D01*
X74971Y-52619D01*
X74933Y-52657D01*
X74895Y-52676D01*
X75314Y-52961D02*
X75390Y-52961D01*
X75428Y-52942D01*
X75447Y-52923D01*
X75485Y-52866D01*
X75504Y-52790D01*
X75504Y-52638D01*
X75485Y-52600D01*
X75466Y-52580D01*
X75428Y-52561D01*
X75352Y-52561D01*
X75314Y-52580D01*
X75295Y-52600D01*
X75276Y-52638D01*
X75276Y-52733D01*
X75295Y-52771D01*
X75314Y-52790D01*
X75352Y-52809D01*
X75428Y-52809D01*
X75466Y-52790D01*
X75485Y-52771D01*
X75504Y-52733D01*
X69114Y-52961D02*
X69114Y-52561D01*
X69266Y-52561D01*
X69304Y-52580D01*
X69323Y-52600D01*
X69342Y-52638D01*
X69342Y-52695D01*
X69323Y-52733D01*
X69304Y-52752D01*
X69266Y-52771D01*
X69114Y-52771D01*
X69723Y-52961D02*
X69495Y-52961D01*
X69609Y-52961D02*
X69609Y-52561D01*
X69571Y-52619D01*
X69533Y-52657D01*
X69495Y-52676D01*
X69952Y-52733D02*
X69914Y-52714D01*
X69895Y-52695D01*
X69876Y-52657D01*
X69876Y-52638D01*
X69895Y-52600D01*
X69914Y-52580D01*
X69952Y-52561D01*
X70028Y-52561D01*
X70066Y-52580D01*
X70085Y-52600D01*
X70104Y-52638D01*
X70104Y-52657D01*
X70085Y-52695D01*
X70066Y-52714D01*
X70028Y-52733D01*
X69952Y-52733D01*
X69914Y-52752D01*
X69895Y-52771D01*
X69876Y-52809D01*
X69876Y-52885D01*
X69895Y-52923D01*
X69914Y-52942D01*
X69952Y-52961D01*
X70028Y-52961D01*
X70066Y-52942D01*
X70085Y-52923D01*
X70104Y-52885D01*
X70104Y-52809D01*
X70085Y-52771D01*
X70066Y-52752D01*
X70028Y-52733D01*
G54D15*
X88111Y-48985D02*
X87711Y-48985D01*
X87711Y-48833D01*
X87730Y-48795D01*
X87750Y-48776D01*
X87788Y-48757D01*
X87845Y-48757D01*
X87883Y-48776D01*
X87902Y-48795D01*
X87921Y-48833D01*
X87921Y-48985D01*
X87750Y-48604D02*
X87730Y-48585D01*
X87711Y-48547D01*
X87711Y-48452D01*
X87730Y-48414D01*
X87750Y-48395D01*
X87788Y-48376D01*
X87826Y-48376D01*
X87883Y-48395D01*
X88111Y-48623D01*
X88111Y-48376D01*
X87711Y-48128D02*
X87711Y-48090D01*
X87730Y-48052D01*
X87750Y-48033D01*
X87788Y-48014D01*
X87864Y-47995D01*
X87959Y-47995D01*
X88035Y-48014D01*
X88073Y-48033D01*
X88092Y-48052D01*
X88111Y-48090D01*
X88111Y-48128D01*
X88092Y-48166D01*
X88073Y-48185D01*
X88035Y-48204D01*
X87959Y-48223D01*
X87864Y-48223D01*
X87788Y-48204D01*
X87750Y-48185D01*
X87730Y-48166D01*
X87711Y-48128D01*
X88111Y-34985D02*
X87711Y-34985D01*
X87711Y-34833D01*
X87730Y-34795D01*
X87750Y-34776D01*
X87788Y-34757D01*
X87845Y-34757D01*
X87883Y-34776D01*
X87902Y-34795D01*
X87921Y-34833D01*
X87921Y-34985D01*
X87750Y-34604D02*
X87730Y-34585D01*
X87711Y-34547D01*
X87711Y-34452D01*
X87730Y-34414D01*
X87750Y-34395D01*
X87788Y-34376D01*
X87826Y-34376D01*
X87883Y-34395D01*
X88111Y-34623D01*
X88111Y-34376D01*
X87750Y-34223D02*
X87730Y-34204D01*
X87711Y-34166D01*
X87711Y-34071D01*
X87730Y-34033D01*
X87750Y-34014D01*
X87788Y-33995D01*
X87826Y-33995D01*
X87883Y-34014D01*
X88111Y-34242D01*
X88111Y-33995D01*
X88111Y-44185D02*
X87711Y-44185D01*
X87711Y-44033D01*
X87730Y-43995D01*
X87750Y-43976D01*
X87788Y-43957D01*
X87845Y-43957D01*
X87883Y-43976D01*
X87902Y-43995D01*
X87921Y-44033D01*
X87921Y-44185D01*
X88111Y-43576D02*
X88111Y-43804D01*
X88111Y-43690D02*
X87711Y-43690D01*
X87769Y-43728D01*
X87807Y-43766D01*
X87826Y-43804D01*
X87711Y-43442D02*
X87711Y-43195D01*
X87864Y-43328D01*
X87864Y-43271D01*
X87883Y-43233D01*
X87902Y-43214D01*
X87940Y-43195D01*
X88035Y-43195D01*
X88073Y-43214D01*
X88092Y-43233D01*
X88111Y-43271D01*
X88111Y-43385D01*
X88092Y-43423D01*
X88073Y-43442D01*
X18711Y-43585D02*
X18311Y-43585D01*
X18311Y-43433D01*
X18330Y-43395D01*
X18350Y-43376D01*
X18388Y-43357D01*
X18445Y-43357D01*
X18483Y-43376D01*
X18502Y-43395D01*
X18521Y-43433D01*
X18521Y-43585D01*
X18711Y-42976D02*
X18711Y-43204D01*
X18711Y-43090D02*
X18311Y-43090D01*
X18369Y-43128D01*
X18407Y-43166D01*
X18426Y-43204D01*
X18711Y-42595D02*
X18711Y-42823D01*
X18711Y-42709D02*
X18311Y-42709D01*
X18369Y-42747D01*
X18407Y-42785D01*
X18426Y-42823D01*
X21435Y-53171D02*
X21435Y-52871D01*
X21550Y-52871D01*
X21578Y-52885D01*
X21592Y-52900D01*
X21607Y-52928D01*
X21607Y-52971D01*
X21592Y-53000D01*
X21578Y-53014D01*
X21550Y-53028D01*
X21435Y-53028D01*
X21892Y-53171D02*
X21721Y-53171D01*
X21807Y-53171D02*
X21807Y-52871D01*
X21778Y-52914D01*
X21750Y-52942D01*
X21721Y-52957D01*
X22007Y-52900D02*
X22021Y-52885D01*
X22050Y-52871D01*
X22121Y-52871D01*
X22150Y-52885D01*
X22164Y-52900D01*
X22178Y-52928D01*
X22178Y-52957D01*
X22164Y-53000D01*
X21992Y-53171D01*
X22178Y-53171D01*
X88435Y-38971D02*
X88435Y-38671D01*
X88550Y-38671D01*
X88578Y-38685D01*
X88592Y-38700D01*
X88607Y-38728D01*
X88607Y-38771D01*
X88592Y-38800D01*
X88578Y-38814D01*
X88550Y-38828D01*
X88435Y-38828D01*
X88892Y-38971D02*
X88721Y-38971D01*
X88807Y-38971D02*
X88807Y-38671D01*
X88778Y-38714D01*
X88750Y-38742D01*
X88721Y-38757D01*
X89150Y-38771D02*
X89150Y-38971D01*
X89078Y-38657D02*
X89007Y-38871D01*
X89192Y-38871D01*
G54D19*
X86035Y-29221D02*
X86035Y-28921D01*
X86107Y-28921D01*
X86150Y-28935D01*
X86178Y-28964D01*
X86192Y-28992D01*
X86207Y-29050D01*
X86207Y-29092D01*
X86192Y-29150D01*
X86178Y-29178D01*
X86150Y-29207D01*
X86107Y-29221D01*
X86035Y-29221D01*
X86321Y-28950D02*
X86335Y-28935D01*
X86364Y-28921D01*
X86435Y-28921D01*
X86464Y-28935D01*
X86478Y-28950D01*
X86492Y-28978D01*
X86492Y-29007D01*
X86478Y-29050D01*
X86307Y-29221D01*
X86492Y-29221D01*
X86764Y-28921D02*
X86621Y-28921D01*
X86607Y-29064D01*
X86621Y-29050D01*
X86650Y-29035D01*
X86721Y-29035D01*
X86750Y-29050D01*
X86764Y-29064D01*
X86778Y-29092D01*
X86778Y-29164D01*
X86764Y-29192D01*
X86750Y-29207D01*
X86721Y-29221D01*
X86650Y-29221D01*
X86621Y-29207D01*
X86607Y-29192D01*
X86207Y-32221D02*
X86064Y-32221D01*
X86064Y-31921D01*
X86307Y-32064D02*
X86407Y-32064D01*
X86450Y-32221D02*
X86307Y-32221D01*
X86307Y-31921D01*
X86450Y-31921D01*
X86578Y-32221D02*
X86578Y-31921D01*
X86650Y-31921D01*
X86692Y-31935D01*
X86721Y-31964D01*
X86735Y-31992D01*
X86750Y-32050D01*
X86750Y-32092D01*
X86735Y-32150D01*
X86721Y-32178D01*
X86692Y-32207D01*
X86650Y-32221D01*
X86578Y-32221D01*
G54D20*
X22142Y-47342D02*
X22142Y-47828D01*
X22164Y-47885D01*
X22185Y-47914D01*
X22228Y-47942D01*
X22314Y-47942D01*
X22357Y-47914D01*
X22378Y-47885D01*
X22400Y-47828D01*
X22400Y-47342D01*
X22850Y-47942D02*
X22592Y-47942D01*
X22721Y-47942D02*
X22721Y-47342D01*
X22678Y-47428D01*
X22635Y-47485D01*
X22592Y-47514D01*
X23107Y-47600D02*
X23064Y-47571D01*
X23042Y-47542D01*
X23021Y-47485D01*
X23021Y-47457D01*
X23042Y-47400D01*
X23064Y-47371D01*
X23107Y-47342D01*
X23192Y-47342D01*
X23235Y-47371D01*
X23257Y-47400D01*
X23278Y-47457D01*
X23278Y-47485D01*
X23257Y-47542D01*
X23235Y-47571D01*
X23192Y-47600D01*
X23107Y-47600D01*
X23064Y-47628D01*
X23042Y-47657D01*
X23021Y-47714D01*
X23021Y-47828D01*
X23042Y-47885D01*
X23064Y-47914D01*
X23107Y-47942D01*
X23192Y-47942D01*
X23235Y-47914D01*
X23257Y-47885D01*
X23278Y-47828D01*
X23278Y-47714D01*
X23257Y-47657D01*
X23235Y-47628D01*
X23192Y-47600D01*
G54D12*
G54D20*
X25642Y-48542D02*
X25642Y-48942D01*
X25535Y-48314D02*
X25428Y-48742D01*
X25707Y-48742D01*
X25964Y-48342D02*
X26007Y-48342D01*
X26050Y-48371D01*
X26071Y-48400D01*
X26092Y-48457D01*
X26114Y-48571D01*
X26114Y-48714D01*
X26092Y-48828D01*
X26071Y-48885D01*
X26050Y-48914D01*
X26007Y-48942D01*
X25964Y-48942D01*
X25921Y-48914D01*
X25900Y-48885D01*
X25878Y-48828D01*
X25857Y-48714D01*
X25857Y-48571D01*
X25878Y-48457D01*
X25900Y-48400D01*
X25921Y-48371D01*
X25964Y-48342D01*
X26285Y-48400D02*
X26307Y-48371D01*
X26350Y-48342D01*
X26457Y-48342D01*
X26500Y-48371D01*
X26521Y-48400D01*
X26542Y-48457D01*
X26542Y-48514D01*
X26521Y-48600D01*
X26264Y-48942D01*
X26542Y-48942D01*
X26757Y-48942D02*
X26842Y-48942D01*
X26885Y-48914D01*
X26907Y-48885D01*
X26950Y-48800D01*
X26971Y-48685D01*
X26971Y-48457D01*
X26950Y-48400D01*
X26928Y-48371D01*
X26885Y-48342D01*
X26800Y-48342D01*
X26757Y-48371D01*
X26735Y-48400D01*
X26714Y-48457D01*
X26714Y-48600D01*
X26735Y-48657D01*
X26757Y-48685D01*
X26800Y-48714D01*
X26885Y-48714D01*
X26928Y-48685D01*
X26950Y-48657D01*
X26971Y-48600D01*
G54D12*
G54D20*
X45942Y-47342D02*
X45942Y-47828D01*
X45964Y-47885D01*
X45985Y-47914D01*
X46028Y-47942D01*
X46114Y-47942D01*
X46157Y-47914D01*
X46178Y-47885D01*
X46200Y-47828D01*
X46200Y-47342D01*
X46392Y-47400D02*
X46414Y-47371D01*
X46457Y-47342D01*
X46564Y-47342D01*
X46607Y-47371D01*
X46628Y-47400D01*
X46650Y-47457D01*
X46650Y-47514D01*
X46628Y-47600D01*
X46371Y-47942D01*
X46650Y-47942D01*
X46928Y-47342D02*
X46971Y-47342D01*
X47014Y-47371D01*
X47035Y-47400D01*
X47057Y-47457D01*
X47078Y-47571D01*
X47078Y-47714D01*
X47057Y-47828D01*
X47035Y-47885D01*
X47014Y-47914D01*
X46971Y-47942D01*
X46928Y-47942D01*
X46885Y-47914D01*
X46864Y-47885D01*
X46842Y-47828D01*
X46821Y-47714D01*
X46821Y-47571D01*
X46842Y-47457D01*
X46864Y-47400D01*
X46885Y-47371D01*
X46928Y-47342D01*
G54D12*
G54D20*
X49442Y-48542D02*
X49442Y-48942D01*
X49335Y-48314D02*
X49228Y-48742D01*
X49507Y-48742D01*
X49764Y-48342D02*
X49807Y-48342D01*
X49850Y-48371D01*
X49871Y-48400D01*
X49892Y-48457D01*
X49914Y-48571D01*
X49914Y-48714D01*
X49892Y-48828D01*
X49871Y-48885D01*
X49850Y-48914D01*
X49807Y-48942D01*
X49764Y-48942D01*
X49721Y-48914D01*
X49700Y-48885D01*
X49678Y-48828D01*
X49657Y-48714D01*
X49657Y-48571D01*
X49678Y-48457D01*
X49700Y-48400D01*
X49721Y-48371D01*
X49764Y-48342D01*
X50085Y-48400D02*
X50107Y-48371D01*
X50150Y-48342D01*
X50257Y-48342D01*
X50300Y-48371D01*
X50321Y-48400D01*
X50342Y-48457D01*
X50342Y-48514D01*
X50321Y-48600D01*
X50064Y-48942D01*
X50342Y-48942D01*
X50557Y-48942D02*
X50642Y-48942D01*
X50685Y-48914D01*
X50707Y-48885D01*
X50750Y-48800D01*
X50771Y-48685D01*
X50771Y-48457D01*
X50750Y-48400D01*
X50728Y-48371D01*
X50685Y-48342D01*
X50600Y-48342D01*
X50557Y-48371D01*
X50535Y-48400D01*
X50514Y-48457D01*
X50514Y-48600D01*
X50535Y-48657D01*
X50557Y-48685D01*
X50600Y-48714D01*
X50685Y-48714D01*
X50728Y-48685D01*
X50750Y-48657D01*
X50771Y-48600D01*
G54D12*
G54D20*
X57742Y-47342D02*
X57742Y-47828D01*
X57764Y-47885D01*
X57785Y-47914D01*
X57828Y-47942D01*
X57914Y-47942D01*
X57957Y-47914D01*
X57978Y-47885D01*
X58000Y-47828D01*
X58000Y-47342D01*
X58192Y-47400D02*
X58214Y-47371D01*
X58257Y-47342D01*
X58364Y-47342D01*
X58407Y-47371D01*
X58428Y-47400D01*
X58450Y-47457D01*
X58450Y-47514D01*
X58428Y-47600D01*
X58171Y-47942D01*
X58450Y-47942D01*
X58878Y-47942D02*
X58621Y-47942D01*
X58750Y-47942D02*
X58750Y-47342D01*
X58707Y-47428D01*
X58664Y-47485D01*
X58621Y-47514D01*
G54D12*
G54D20*
X61242Y-48542D02*
X61242Y-48942D01*
X61135Y-48314D02*
X61028Y-48742D01*
X61307Y-48742D01*
X61564Y-48342D02*
X61607Y-48342D01*
X61650Y-48371D01*
X61671Y-48400D01*
X61692Y-48457D01*
X61714Y-48571D01*
X61714Y-48714D01*
X61692Y-48828D01*
X61671Y-48885D01*
X61650Y-48914D01*
X61607Y-48942D01*
X61564Y-48942D01*
X61521Y-48914D01*
X61500Y-48885D01*
X61478Y-48828D01*
X61457Y-48714D01*
X61457Y-48571D01*
X61478Y-48457D01*
X61500Y-48400D01*
X61521Y-48371D01*
X61564Y-48342D01*
X61885Y-48400D02*
X61907Y-48371D01*
X61950Y-48342D01*
X62057Y-48342D01*
X62100Y-48371D01*
X62121Y-48400D01*
X62142Y-48457D01*
X62142Y-48514D01*
X62121Y-48600D01*
X61864Y-48942D01*
X62142Y-48942D01*
X62357Y-48942D02*
X62442Y-48942D01*
X62485Y-48914D01*
X62507Y-48885D01*
X62550Y-48800D01*
X62571Y-48685D01*
X62571Y-48457D01*
X62550Y-48400D01*
X62528Y-48371D01*
X62485Y-48342D01*
X62400Y-48342D01*
X62357Y-48371D01*
X62335Y-48400D01*
X62314Y-48457D01*
X62314Y-48600D01*
X62335Y-48657D01*
X62357Y-48685D01*
X62400Y-48714D01*
X62485Y-48714D01*
X62528Y-48685D01*
X62550Y-48657D01*
X62571Y-48600D01*
G54D12*
G54D20*
X33942Y-47342D02*
X33942Y-47828D01*
X33964Y-47885D01*
X33985Y-47914D01*
X34028Y-47942D01*
X34114Y-47942D01*
X34157Y-47914D01*
X34178Y-47885D01*
X34200Y-47828D01*
X34200Y-47342D01*
X34650Y-47942D02*
X34392Y-47942D01*
X34521Y-47942D02*
X34521Y-47342D01*
X34478Y-47428D01*
X34435Y-47485D01*
X34392Y-47514D01*
X34864Y-47942D02*
X34950Y-47942D01*
X34992Y-47914D01*
X35014Y-47885D01*
X35057Y-47800D01*
X35078Y-47685D01*
X35078Y-47457D01*
X35057Y-47400D01*
X35035Y-47371D01*
X34992Y-47342D01*
X34907Y-47342D01*
X34864Y-47371D01*
X34842Y-47400D01*
X34821Y-47457D01*
X34821Y-47600D01*
X34842Y-47657D01*
X34864Y-47685D01*
X34907Y-47714D01*
X34992Y-47714D01*
X35035Y-47685D01*
X35057Y-47657D01*
X35078Y-47600D01*
G54D12*
G54D20*
X37442Y-48542D02*
X37442Y-48942D01*
X37335Y-48314D02*
X37228Y-48742D01*
X37507Y-48742D01*
X37764Y-48342D02*
X37807Y-48342D01*
X37850Y-48371D01*
X37871Y-48400D01*
X37892Y-48457D01*
X37914Y-48571D01*
X37914Y-48714D01*
X37892Y-48828D01*
X37871Y-48885D01*
X37850Y-48914D01*
X37807Y-48942D01*
X37764Y-48942D01*
X37721Y-48914D01*
X37700Y-48885D01*
X37678Y-48828D01*
X37657Y-48714D01*
X37657Y-48571D01*
X37678Y-48457D01*
X37700Y-48400D01*
X37721Y-48371D01*
X37764Y-48342D01*
X38085Y-48400D02*
X38107Y-48371D01*
X38150Y-48342D01*
X38257Y-48342D01*
X38300Y-48371D01*
X38321Y-48400D01*
X38342Y-48457D01*
X38342Y-48514D01*
X38321Y-48600D01*
X38064Y-48942D01*
X38342Y-48942D01*
X38557Y-48942D02*
X38642Y-48942D01*
X38685Y-48914D01*
X38707Y-48885D01*
X38750Y-48800D01*
X38771Y-48685D01*
X38771Y-48457D01*
X38750Y-48400D01*
X38728Y-48371D01*
X38685Y-48342D01*
X38600Y-48342D01*
X38557Y-48371D01*
X38535Y-48400D01*
X38514Y-48457D01*
X38514Y-48600D01*
X38535Y-48657D01*
X38557Y-48685D01*
X38600Y-48714D01*
X38685Y-48714D01*
X38728Y-48685D01*
X38750Y-48657D01*
X38771Y-48600D01*
G54D12*
G54D20*
X33942Y-37542D02*
X33942Y-38028D01*
X33964Y-38085D01*
X33985Y-38114D01*
X34028Y-38142D01*
X34114Y-38142D01*
X34157Y-38114D01*
X34178Y-38085D01*
X34200Y-38028D01*
X34200Y-37542D01*
X34650Y-38142D02*
X34392Y-38142D01*
X34521Y-38142D02*
X34521Y-37542D01*
X34478Y-37628D01*
X34435Y-37685D01*
X34392Y-37714D01*
X34800Y-37542D02*
X35078Y-37542D01*
X34928Y-37771D01*
X34992Y-37771D01*
X35035Y-37800D01*
X35057Y-37828D01*
X35078Y-37885D01*
X35078Y-38028D01*
X35057Y-38085D01*
X35035Y-38114D01*
X34992Y-38142D01*
X34864Y-38142D01*
X34821Y-38114D01*
X34800Y-38085D01*
G54D12*
G54D20*
X37442Y-38742D02*
X37442Y-39142D01*
X37335Y-38514D02*
X37228Y-38942D01*
X37507Y-38942D01*
X37764Y-38542D02*
X37807Y-38542D01*
X37850Y-38571D01*
X37871Y-38600D01*
X37892Y-38657D01*
X37914Y-38771D01*
X37914Y-38914D01*
X37892Y-39028D01*
X37871Y-39085D01*
X37850Y-39114D01*
X37807Y-39142D01*
X37764Y-39142D01*
X37721Y-39114D01*
X37700Y-39085D01*
X37678Y-39028D01*
X37657Y-38914D01*
X37657Y-38771D01*
X37678Y-38657D01*
X37700Y-38600D01*
X37721Y-38571D01*
X37764Y-38542D01*
X38128Y-39142D02*
X38214Y-39142D01*
X38257Y-39114D01*
X38278Y-39085D01*
X38321Y-39000D01*
X38342Y-38885D01*
X38342Y-38657D01*
X38321Y-38600D01*
X38300Y-38571D01*
X38257Y-38542D01*
X38171Y-38542D01*
X38128Y-38571D01*
X38107Y-38600D01*
X38085Y-38657D01*
X38085Y-38800D01*
X38107Y-38857D01*
X38128Y-38885D01*
X38171Y-38914D01*
X38257Y-38914D01*
X38300Y-38885D01*
X38321Y-38857D01*
X38342Y-38800D01*
X38728Y-38742D02*
X38728Y-39142D01*
X38621Y-38514D02*
X38514Y-38942D01*
X38792Y-38942D01*
G54D12*
G54D20*
X45942Y-37542D02*
X45942Y-38028D01*
X45964Y-38085D01*
X45985Y-38114D01*
X46028Y-38142D01*
X46114Y-38142D01*
X46157Y-38114D01*
X46178Y-38085D01*
X46200Y-38028D01*
X46200Y-37542D01*
X46650Y-38142D02*
X46392Y-38142D01*
X46521Y-38142D02*
X46521Y-37542D01*
X46478Y-37628D01*
X46435Y-37685D01*
X46392Y-37714D01*
X47035Y-37742D02*
X47035Y-38142D01*
X46928Y-37514D02*
X46821Y-37942D01*
X47100Y-37942D01*
G54D12*
G54D20*
X49442Y-38742D02*
X49442Y-39142D01*
X49335Y-38514D02*
X49228Y-38942D01*
X49507Y-38942D01*
X49764Y-38542D02*
X49807Y-38542D01*
X49850Y-38571D01*
X49871Y-38600D01*
X49892Y-38657D01*
X49914Y-38771D01*
X49914Y-38914D01*
X49892Y-39028D01*
X49871Y-39085D01*
X49850Y-39114D01*
X49807Y-39142D01*
X49764Y-39142D01*
X49721Y-39114D01*
X49700Y-39085D01*
X49678Y-39028D01*
X49657Y-38914D01*
X49657Y-38771D01*
X49678Y-38657D01*
X49700Y-38600D01*
X49721Y-38571D01*
X49764Y-38542D01*
X50128Y-39142D02*
X50214Y-39142D01*
X50257Y-39114D01*
X50278Y-39085D01*
X50321Y-39000D01*
X50342Y-38885D01*
X50342Y-38657D01*
X50321Y-38600D01*
X50300Y-38571D01*
X50257Y-38542D01*
X50171Y-38542D01*
X50128Y-38571D01*
X50107Y-38600D01*
X50085Y-38657D01*
X50085Y-38800D01*
X50107Y-38857D01*
X50128Y-38885D01*
X50171Y-38914D01*
X50257Y-38914D01*
X50300Y-38885D01*
X50321Y-38857D01*
X50342Y-38800D01*
X50728Y-38742D02*
X50728Y-39142D01*
X50621Y-38514D02*
X50514Y-38942D01*
X50792Y-38942D01*
G54D12*
G54D20*
X69342Y-47342D02*
X69342Y-47828D01*
X69364Y-47885D01*
X69385Y-47914D01*
X69428Y-47942D01*
X69514Y-47942D01*
X69557Y-47914D01*
X69578Y-47885D01*
X69600Y-47828D01*
X69600Y-47342D01*
X69792Y-47400D02*
X69814Y-47371D01*
X69857Y-47342D01*
X69964Y-47342D01*
X70007Y-47371D01*
X70028Y-47400D01*
X70050Y-47457D01*
X70050Y-47514D01*
X70028Y-47600D01*
X69771Y-47942D01*
X70050Y-47942D01*
X70221Y-47400D02*
X70242Y-47371D01*
X70285Y-47342D01*
X70392Y-47342D01*
X70435Y-47371D01*
X70457Y-47400D01*
X70478Y-47457D01*
X70478Y-47514D01*
X70457Y-47600D01*
X70200Y-47942D01*
X70478Y-47942D01*
G54D12*
G54D20*
X72842Y-48542D02*
X72842Y-48942D01*
X72735Y-48314D02*
X72628Y-48742D01*
X72907Y-48742D01*
X73292Y-48342D02*
X73078Y-48342D01*
X73057Y-48628D01*
X73078Y-48600D01*
X73121Y-48571D01*
X73228Y-48571D01*
X73271Y-48600D01*
X73292Y-48628D01*
X73314Y-48685D01*
X73314Y-48828D01*
X73292Y-48885D01*
X73271Y-48914D01*
X73228Y-48942D01*
X73121Y-48942D01*
X73078Y-48914D01*
X73057Y-48885D01*
X73742Y-48942D02*
X73485Y-48942D01*
X73614Y-48942D02*
X73614Y-48342D01*
X73571Y-48428D01*
X73528Y-48485D01*
X73485Y-48514D01*
X74000Y-48600D02*
X73957Y-48571D01*
X73935Y-48542D01*
X73914Y-48485D01*
X73914Y-48457D01*
X73935Y-48400D01*
X73957Y-48371D01*
X74000Y-48342D01*
X74085Y-48342D01*
X74128Y-48371D01*
X74150Y-48400D01*
X74171Y-48457D01*
X74171Y-48485D01*
X74150Y-48542D01*
X74128Y-48571D01*
X74085Y-48600D01*
X74000Y-48600D01*
X73957Y-48628D01*
X73935Y-48657D01*
X73914Y-48714D01*
X73914Y-48828D01*
X73935Y-48885D01*
X73957Y-48914D01*
X74000Y-48942D01*
X74085Y-48942D01*
X74128Y-48914D01*
X74150Y-48885D01*
X74171Y-48828D01*
X74171Y-48714D01*
X74150Y-48657D01*
X74128Y-48628D01*
X74085Y-48600D01*
G54D12*
G54D20*
X47042Y-30742D02*
X47042Y-31228D01*
X47064Y-31285D01*
X47085Y-31314D01*
X47128Y-31342D01*
X47214Y-31342D01*
X47257Y-31314D01*
X47278Y-31285D01*
X47300Y-31228D01*
X47300Y-30742D01*
X47750Y-31342D02*
X47492Y-31342D01*
X47621Y-31342D02*
X47621Y-30742D01*
X47578Y-30828D01*
X47535Y-30885D01*
X47492Y-30914D01*
X48157Y-30742D02*
X47942Y-30742D01*
X47921Y-31028D01*
X47942Y-31000D01*
X47985Y-30971D01*
X48092Y-30971D01*
X48135Y-31000D01*
X48157Y-31028D01*
X48178Y-31085D01*
X48178Y-31228D01*
X48157Y-31285D01*
X48135Y-31314D01*
X48092Y-31342D01*
X47985Y-31342D01*
X47942Y-31314D01*
X47921Y-31285D01*
G54D12*
G54D20*
X49542Y-31942D02*
X49542Y-32342D01*
X49435Y-31714D02*
X49328Y-32142D01*
X49607Y-32142D01*
X49864Y-31742D02*
X49907Y-31742D01*
X49950Y-31771D01*
X49971Y-31800D01*
X49992Y-31857D01*
X50014Y-31971D01*
X50014Y-32114D01*
X49992Y-32228D01*
X49971Y-32285D01*
X49950Y-32314D01*
X49907Y-32342D01*
X49864Y-32342D01*
X49821Y-32314D01*
X49800Y-32285D01*
X49778Y-32228D01*
X49757Y-32114D01*
X49757Y-31971D01*
X49778Y-31857D01*
X49800Y-31800D01*
X49821Y-31771D01*
X49864Y-31742D01*
X50164Y-31742D02*
X50464Y-31742D01*
X50271Y-32342D01*
X50871Y-32342D02*
X50614Y-32342D01*
X50742Y-32342D02*
X50742Y-31742D01*
X50700Y-31828D01*
X50657Y-31885D01*
X50614Y-31914D01*
G54D12*
G54D20*
X58842Y-30742D02*
X58842Y-31228D01*
X58864Y-31285D01*
X58885Y-31314D01*
X58928Y-31342D01*
X59014Y-31342D01*
X59057Y-31314D01*
X59078Y-31285D01*
X59100Y-31228D01*
X59100Y-30742D01*
X59292Y-30800D02*
X59314Y-30771D01*
X59357Y-30742D01*
X59464Y-30742D01*
X59507Y-30771D01*
X59528Y-30800D01*
X59550Y-30857D01*
X59550Y-30914D01*
X59528Y-31000D01*
X59271Y-31342D01*
X59550Y-31342D01*
X59700Y-30742D02*
X59978Y-30742D01*
X59828Y-30971D01*
X59892Y-30971D01*
X59935Y-31000D01*
X59957Y-31028D01*
X59978Y-31085D01*
X59978Y-31228D01*
X59957Y-31285D01*
X59935Y-31314D01*
X59892Y-31342D01*
X59764Y-31342D01*
X59721Y-31314D01*
X59700Y-31285D01*
G54D12*
G54D20*
X61342Y-31942D02*
X61342Y-32342D01*
X61235Y-31714D02*
X61128Y-32142D01*
X61407Y-32142D01*
X61664Y-31742D02*
X61707Y-31742D01*
X61750Y-31771D01*
X61771Y-31800D01*
X61792Y-31857D01*
X61814Y-31971D01*
X61814Y-32114D01*
X61792Y-32228D01*
X61771Y-32285D01*
X61750Y-32314D01*
X61707Y-32342D01*
X61664Y-32342D01*
X61621Y-32314D01*
X61600Y-32285D01*
X61578Y-32228D01*
X61557Y-32114D01*
X61557Y-31971D01*
X61578Y-31857D01*
X61600Y-31800D01*
X61621Y-31771D01*
X61664Y-31742D01*
X61964Y-31742D02*
X62264Y-31742D01*
X62071Y-32342D01*
X62671Y-32342D02*
X62414Y-32342D01*
X62542Y-32342D02*
X62542Y-31742D01*
X62500Y-31828D01*
X62457Y-31885D01*
X62414Y-31914D01*
G54D12*
G54D20*
X22842Y-30742D02*
X22842Y-31228D01*
X22864Y-31285D01*
X22885Y-31314D01*
X22928Y-31342D01*
X23014Y-31342D01*
X23057Y-31314D01*
X23078Y-31285D01*
X23100Y-31228D01*
X23100Y-30742D01*
X23292Y-30800D02*
X23314Y-30771D01*
X23357Y-30742D01*
X23464Y-30742D01*
X23507Y-30771D01*
X23528Y-30800D01*
X23550Y-30857D01*
X23550Y-30914D01*
X23528Y-31000D01*
X23271Y-31342D01*
X23550Y-31342D01*
X23957Y-30742D02*
X23742Y-30742D01*
X23721Y-31028D01*
X23742Y-31000D01*
X23785Y-30971D01*
X23892Y-30971D01*
X23935Y-31000D01*
X23957Y-31028D01*
X23978Y-31085D01*
X23978Y-31228D01*
X23957Y-31285D01*
X23935Y-31314D01*
X23892Y-31342D01*
X23785Y-31342D01*
X23742Y-31314D01*
X23721Y-31285D01*
G54D12*
G54D20*
X25342Y-31942D02*
X25342Y-32342D01*
X25235Y-31714D02*
X25128Y-32142D01*
X25407Y-32142D01*
X25664Y-31742D02*
X25707Y-31742D01*
X25750Y-31771D01*
X25771Y-31800D01*
X25792Y-31857D01*
X25814Y-31971D01*
X25814Y-32114D01*
X25792Y-32228D01*
X25771Y-32285D01*
X25750Y-32314D01*
X25707Y-32342D01*
X25664Y-32342D01*
X25621Y-32314D01*
X25600Y-32285D01*
X25578Y-32228D01*
X25557Y-32114D01*
X25557Y-31971D01*
X25578Y-31857D01*
X25600Y-31800D01*
X25621Y-31771D01*
X25664Y-31742D01*
X25964Y-31742D02*
X26264Y-31742D01*
X26071Y-32342D01*
X26414Y-31800D02*
X26435Y-31771D01*
X26478Y-31742D01*
X26585Y-31742D01*
X26628Y-31771D01*
X26650Y-31800D01*
X26671Y-31857D01*
X26671Y-31914D01*
X26650Y-32000D01*
X26392Y-32342D01*
X26671Y-32342D01*
G54D12*
G54D20*
X22842Y-37542D02*
X22842Y-38028D01*
X22864Y-38085D01*
X22885Y-38114D01*
X22928Y-38142D01*
X23014Y-38142D01*
X23057Y-38114D01*
X23078Y-38085D01*
X23100Y-38028D01*
X23100Y-37542D01*
X23550Y-38142D02*
X23292Y-38142D01*
X23421Y-38142D02*
X23421Y-37542D01*
X23378Y-37628D01*
X23335Y-37685D01*
X23292Y-37714D01*
X23935Y-37542D02*
X23850Y-37542D01*
X23807Y-37571D01*
X23785Y-37600D01*
X23742Y-37685D01*
X23721Y-37800D01*
X23721Y-38028D01*
X23742Y-38085D01*
X23764Y-38114D01*
X23807Y-38142D01*
X23892Y-38142D01*
X23935Y-38114D01*
X23957Y-38085D01*
X23978Y-38028D01*
X23978Y-37885D01*
X23957Y-37828D01*
X23935Y-37800D01*
X23892Y-37771D01*
X23807Y-37771D01*
X23764Y-37800D01*
X23742Y-37828D01*
X23721Y-37885D01*
G54D12*
G54D20*
X25342Y-38742D02*
X25342Y-39142D01*
X25235Y-38514D02*
X25128Y-38942D01*
X25407Y-38942D01*
X25664Y-38542D02*
X25707Y-38542D01*
X25750Y-38571D01*
X25771Y-38600D01*
X25792Y-38657D01*
X25814Y-38771D01*
X25814Y-38914D01*
X25792Y-39028D01*
X25771Y-39085D01*
X25750Y-39114D01*
X25707Y-39142D01*
X25664Y-39142D01*
X25621Y-39114D01*
X25600Y-39085D01*
X25578Y-39028D01*
X25557Y-38914D01*
X25557Y-38771D01*
X25578Y-38657D01*
X25600Y-38600D01*
X25621Y-38571D01*
X25664Y-38542D01*
X26242Y-39142D02*
X25985Y-39142D01*
X26114Y-39142D02*
X26114Y-38542D01*
X26071Y-38628D01*
X26028Y-38685D01*
X25985Y-38714D01*
X26392Y-38542D02*
X26671Y-38542D01*
X26521Y-38771D01*
X26585Y-38771D01*
X26628Y-38800D01*
X26650Y-38828D01*
X26671Y-38885D01*
X26671Y-39028D01*
X26650Y-39085D01*
X26628Y-39114D01*
X26585Y-39142D01*
X26457Y-39142D01*
X26414Y-39114D01*
X26392Y-39085D01*
G54D12*
G54D20*
X69442Y-30742D02*
X69442Y-31228D01*
X69464Y-31285D01*
X69485Y-31314D01*
X69528Y-31342D01*
X69614Y-31342D01*
X69657Y-31314D01*
X69678Y-31285D01*
X69700Y-31228D01*
X69700Y-30742D01*
X69892Y-30800D02*
X69914Y-30771D01*
X69957Y-30742D01*
X70064Y-30742D01*
X70107Y-30771D01*
X70128Y-30800D01*
X70150Y-30857D01*
X70150Y-30914D01*
X70128Y-31000D01*
X69871Y-31342D01*
X70150Y-31342D01*
X70535Y-30942D02*
X70535Y-31342D01*
X70428Y-30714D02*
X70321Y-31142D01*
X70600Y-31142D01*
G54D12*
G54D20*
X71942Y-31942D02*
X71942Y-32342D01*
X71835Y-31714D02*
X71728Y-32142D01*
X72007Y-32142D01*
X72392Y-31742D02*
X72178Y-31742D01*
X72157Y-32028D01*
X72178Y-32000D01*
X72221Y-31971D01*
X72328Y-31971D01*
X72371Y-32000D01*
X72392Y-32028D01*
X72414Y-32085D01*
X72414Y-32228D01*
X72392Y-32285D01*
X72371Y-32314D01*
X72328Y-32342D01*
X72221Y-32342D01*
X72178Y-32314D01*
X72157Y-32285D01*
X72671Y-32000D02*
X72628Y-31971D01*
X72607Y-31942D01*
X72585Y-31885D01*
X72585Y-31857D01*
X72607Y-31800D01*
X72628Y-31771D01*
X72671Y-31742D01*
X72757Y-31742D01*
X72800Y-31771D01*
X72821Y-31800D01*
X72842Y-31857D01*
X72842Y-31885D01*
X72821Y-31942D01*
X72800Y-31971D01*
X72757Y-32000D01*
X72671Y-32000D01*
X72628Y-32028D01*
X72607Y-32057D01*
X72585Y-32114D01*
X72585Y-32228D01*
X72607Y-32285D01*
X72628Y-32314D01*
X72671Y-32342D01*
X72757Y-32342D01*
X72800Y-32314D01*
X72821Y-32285D01*
X72842Y-32228D01*
X72842Y-32114D01*
X72821Y-32057D01*
X72800Y-32028D01*
X72757Y-32000D01*
X73228Y-31942D02*
X73228Y-32342D01*
X73121Y-31714D02*
X73014Y-32142D01*
X73292Y-32142D01*
G54D12*
G54D20*
X34842Y-30742D02*
X34842Y-31228D01*
X34864Y-31285D01*
X34885Y-31314D01*
X34928Y-31342D01*
X35014Y-31342D01*
X35057Y-31314D01*
X35078Y-31285D01*
X35100Y-31228D01*
X35100Y-30742D01*
X35550Y-31342D02*
X35292Y-31342D01*
X35421Y-31342D02*
X35421Y-30742D01*
X35378Y-30828D01*
X35335Y-30885D01*
X35292Y-30914D01*
X35700Y-30742D02*
X36000Y-30742D01*
X35807Y-31342D01*
G54D12*
G54D20*
X37342Y-31942D02*
X37342Y-32342D01*
X37235Y-31714D02*
X37128Y-32142D01*
X37407Y-32142D01*
X37664Y-31742D02*
X37707Y-31742D01*
X37750Y-31771D01*
X37771Y-31800D01*
X37792Y-31857D01*
X37814Y-31971D01*
X37814Y-32114D01*
X37792Y-32228D01*
X37771Y-32285D01*
X37750Y-32314D01*
X37707Y-32342D01*
X37664Y-32342D01*
X37621Y-32314D01*
X37600Y-32285D01*
X37578Y-32228D01*
X37557Y-32114D01*
X37557Y-31971D01*
X37578Y-31857D01*
X37600Y-31800D01*
X37621Y-31771D01*
X37664Y-31742D01*
X38071Y-32000D02*
X38028Y-31971D01*
X38007Y-31942D01*
X37985Y-31885D01*
X37985Y-31857D01*
X38007Y-31800D01*
X38028Y-31771D01*
X38071Y-31742D01*
X38157Y-31742D01*
X38200Y-31771D01*
X38221Y-31800D01*
X38242Y-31857D01*
X38242Y-31885D01*
X38221Y-31942D01*
X38200Y-31971D01*
X38157Y-32000D01*
X38071Y-32000D01*
X38028Y-32028D01*
X38007Y-32057D01*
X37985Y-32114D01*
X37985Y-32228D01*
X38007Y-32285D01*
X38028Y-32314D01*
X38071Y-32342D01*
X38157Y-32342D01*
X38200Y-32314D01*
X38221Y-32285D01*
X38242Y-32228D01*
X38242Y-32114D01*
X38221Y-32057D01*
X38200Y-32028D01*
X38157Y-32000D01*
X38671Y-32342D02*
X38414Y-32342D01*
X38542Y-32342D02*
X38542Y-31742D01*
X38500Y-31828D01*
X38457Y-31885D01*
X38414Y-31914D01*
G54D12*
G54D16*
X79514Y-48961D02*
X79514Y-48561D01*
X79609Y-48561D01*
X79666Y-48580D01*
X79704Y-48619D01*
X79723Y-48657D01*
X79742Y-48733D01*
X79742Y-48790D01*
X79723Y-48866D01*
X79704Y-48904D01*
X79666Y-48942D01*
X79609Y-48961D01*
X79514Y-48961D01*
X79895Y-48600D02*
X79914Y-48580D01*
X79952Y-48561D01*
X80047Y-48561D01*
X80085Y-48580D01*
X80104Y-48600D01*
X80123Y-48638D01*
X80123Y-48676D01*
X80104Y-48733D01*
X79876Y-48961D01*
X80123Y-48961D01*
X80466Y-48561D02*
X80390Y-48561D01*
X80352Y-48580D01*
X80333Y-48600D01*
X80295Y-48657D01*
X80276Y-48733D01*
X80276Y-48885D01*
X80295Y-48923D01*
X80314Y-48942D01*
X80352Y-48961D01*
X80428Y-48961D01*
X80466Y-48942D01*
X80485Y-48923D01*
X80504Y-48885D01*
X80504Y-48790D01*
X80485Y-48752D01*
X80466Y-48733D01*
X80428Y-48714D01*
X80352Y-48714D01*
X80314Y-48733D01*
X80295Y-48752D01*
X80276Y-48790D01*
X79514Y-50161D02*
X79514Y-49761D01*
X79609Y-49761D01*
X79666Y-49780D01*
X79704Y-49819D01*
X79723Y-49857D01*
X79742Y-49933D01*
X79742Y-49990D01*
X79723Y-50066D01*
X79704Y-50104D01*
X79666Y-50142D01*
X79609Y-50161D01*
X79514Y-50161D01*
X79876Y-49761D02*
X80123Y-49761D01*
X79990Y-49914D01*
X80047Y-49914D01*
X80085Y-49933D01*
X80104Y-49952D01*
X80123Y-49990D01*
X80123Y-50085D01*
X80104Y-50123D01*
X80085Y-50142D01*
X80047Y-50161D01*
X79933Y-50161D01*
X79895Y-50142D01*
X79876Y-50123D01*
X80276Y-49800D02*
X80295Y-49780D01*
X80333Y-49761D01*
X80428Y-49761D01*
X80466Y-49780D01*
X80485Y-49800D01*
X80504Y-49838D01*
X80504Y-49876D01*
X80485Y-49933D01*
X80257Y-50161D01*
X80504Y-50161D01*
X63314Y-44161D02*
X63314Y-43761D01*
X63409Y-43761D01*
X63466Y-43780D01*
X63504Y-43819D01*
X63523Y-43857D01*
X63542Y-43933D01*
X63542Y-43990D01*
X63523Y-44066D01*
X63504Y-44104D01*
X63466Y-44142D01*
X63409Y-44161D01*
X63314Y-44161D01*
X63676Y-43761D02*
X63923Y-43761D01*
X63790Y-43914D01*
X63847Y-43914D01*
X63885Y-43933D01*
X63904Y-43952D01*
X63923Y-43990D01*
X63923Y-44085D01*
X63904Y-44123D01*
X63885Y-44142D01*
X63847Y-44161D01*
X63733Y-44161D01*
X63695Y-44142D01*
X63676Y-44123D01*
X64304Y-44161D02*
X64076Y-44161D01*
X64190Y-44161D02*
X64190Y-43761D01*
X64152Y-43819D01*
X64114Y-43857D01*
X64076Y-43876D01*
X73914Y-39961D02*
X73914Y-39561D01*
X74009Y-39561D01*
X74066Y-39580D01*
X74104Y-39619D01*
X74123Y-39657D01*
X74142Y-39733D01*
X74142Y-39790D01*
X74123Y-39866D01*
X74104Y-39904D01*
X74066Y-39942D01*
X74009Y-39961D01*
X73914Y-39961D01*
X74276Y-39561D02*
X74523Y-39561D01*
X74390Y-39714D01*
X74447Y-39714D01*
X74485Y-39733D01*
X74504Y-39752D01*
X74523Y-39790D01*
X74523Y-39885D01*
X74504Y-39923D01*
X74485Y-39942D01*
X74447Y-39961D01*
X74333Y-39961D01*
X74295Y-39942D01*
X74276Y-39923D01*
X74657Y-39561D02*
X74923Y-39561D01*
X74752Y-39961D01*
X73914Y-41361D02*
X73914Y-40961D01*
X74009Y-40961D01*
X74066Y-40980D01*
X74104Y-41019D01*
X74123Y-41057D01*
X74142Y-41133D01*
X74142Y-41190D01*
X74123Y-41266D01*
X74104Y-41304D01*
X74066Y-41342D01*
X74009Y-41361D01*
X73914Y-41361D01*
X74276Y-40961D02*
X74523Y-40961D01*
X74390Y-41114D01*
X74447Y-41114D01*
X74485Y-41133D01*
X74504Y-41152D01*
X74523Y-41190D01*
X74523Y-41285D01*
X74504Y-41323D01*
X74485Y-41342D01*
X74447Y-41361D01*
X74333Y-41361D01*
X74295Y-41342D01*
X74276Y-41323D01*
X74657Y-40961D02*
X74904Y-40961D01*
X74771Y-41114D01*
X74828Y-41114D01*
X74866Y-41133D01*
X74885Y-41152D01*
X74904Y-41190D01*
X74904Y-41285D01*
X74885Y-41323D01*
X74866Y-41342D01*
X74828Y-41361D01*
X74714Y-41361D01*
X74676Y-41342D01*
X74657Y-41323D01*
X63314Y-42761D02*
X63314Y-42361D01*
X63409Y-42361D01*
X63466Y-42380D01*
X63504Y-42419D01*
X63523Y-42457D01*
X63542Y-42533D01*
X63542Y-42590D01*
X63523Y-42666D01*
X63504Y-42704D01*
X63466Y-42742D01*
X63409Y-42761D01*
X63314Y-42761D01*
X63676Y-42361D02*
X63923Y-42361D01*
X63790Y-42514D01*
X63847Y-42514D01*
X63885Y-42533D01*
X63904Y-42552D01*
X63923Y-42590D01*
X63923Y-42685D01*
X63904Y-42723D01*
X63885Y-42742D01*
X63847Y-42761D01*
X63733Y-42761D01*
X63695Y-42742D01*
X63676Y-42723D01*
X64285Y-42361D02*
X64095Y-42361D01*
X64076Y-42552D01*
X64095Y-42533D01*
X64133Y-42514D01*
X64228Y-42514D01*
X64266Y-42533D01*
X64285Y-42552D01*
X64304Y-42590D01*
X64304Y-42685D01*
X64285Y-42723D01*
X64266Y-42742D01*
X64228Y-42761D01*
X64133Y-42761D01*
X64095Y-42742D01*
X64076Y-42723D01*
X73914Y-44161D02*
X73914Y-43761D01*
X74009Y-43761D01*
X74066Y-43780D01*
X74104Y-43819D01*
X74123Y-43857D01*
X74142Y-43933D01*
X74142Y-43990D01*
X74123Y-44066D01*
X74104Y-44104D01*
X74066Y-44142D01*
X74009Y-44161D01*
X73914Y-44161D01*
X74295Y-43800D02*
X74314Y-43780D01*
X74352Y-43761D01*
X74447Y-43761D01*
X74485Y-43780D01*
X74504Y-43800D01*
X74523Y-43838D01*
X74523Y-43876D01*
X74504Y-43933D01*
X74276Y-44161D01*
X74523Y-44161D01*
X74714Y-44161D02*
X74790Y-44161D01*
X74828Y-44142D01*
X74847Y-44123D01*
X74885Y-44066D01*
X74904Y-43990D01*
X74904Y-43838D01*
X74885Y-43800D01*
X74866Y-43780D01*
X74828Y-43761D01*
X74752Y-43761D01*
X74714Y-43780D01*
X74695Y-43800D01*
X74676Y-43838D01*
X74676Y-43933D01*
X74695Y-43971D01*
X74714Y-43990D01*
X74752Y-44009D01*
X74828Y-44009D01*
X74866Y-43990D01*
X74885Y-43971D01*
X74904Y-43933D01*
X73914Y-42761D02*
X73914Y-42361D01*
X74009Y-42361D01*
X74066Y-42380D01*
X74104Y-42419D01*
X74123Y-42457D01*
X74142Y-42533D01*
X74142Y-42590D01*
X74123Y-42666D01*
X74104Y-42704D01*
X74066Y-42742D01*
X74009Y-42761D01*
X73914Y-42761D01*
X74295Y-42400D02*
X74314Y-42380D01*
X74352Y-42361D01*
X74447Y-42361D01*
X74485Y-42380D01*
X74504Y-42400D01*
X74523Y-42438D01*
X74523Y-42476D01*
X74504Y-42533D01*
X74276Y-42761D01*
X74523Y-42761D01*
X74657Y-42361D02*
X74923Y-42361D01*
X74752Y-42761D01*
X79514Y-51361D02*
X79514Y-50961D01*
X79609Y-50961D01*
X79666Y-50980D01*
X79704Y-51019D01*
X79723Y-51057D01*
X79742Y-51133D01*
X79742Y-51190D01*
X79723Y-51266D01*
X79704Y-51304D01*
X79666Y-51342D01*
X79609Y-51361D01*
X79514Y-51361D01*
X79895Y-51000D02*
X79914Y-50980D01*
X79952Y-50961D01*
X80047Y-50961D01*
X80085Y-50980D01*
X80104Y-51000D01*
X80123Y-51038D01*
X80123Y-51076D01*
X80104Y-51133D01*
X79876Y-51361D01*
X80123Y-51361D01*
X80352Y-51133D02*
X80314Y-51114D01*
X80295Y-51095D01*
X80276Y-51057D01*
X80276Y-51038D01*
X80295Y-51000D01*
X80314Y-50980D01*
X80352Y-50961D01*
X80428Y-50961D01*
X80466Y-50980D01*
X80485Y-51000D01*
X80504Y-51038D01*
X80504Y-51057D01*
X80485Y-51095D01*
X80466Y-51114D01*
X80428Y-51133D01*
X80352Y-51133D01*
X80314Y-51152D01*
X80295Y-51171D01*
X80276Y-51209D01*
X80276Y-51285D01*
X80295Y-51323D01*
X80314Y-51342D01*
X80352Y-51361D01*
X80428Y-51361D01*
X80466Y-51342D01*
X80485Y-51323D01*
X80504Y-51285D01*
X80504Y-51209D01*
X80485Y-51171D01*
X80466Y-51152D01*
X80428Y-51133D01*
X79514Y-47761D02*
X79514Y-47361D01*
X79609Y-47361D01*
X79666Y-47380D01*
X79704Y-47419D01*
X79723Y-47457D01*
X79742Y-47533D01*
X79742Y-47590D01*
X79723Y-47666D01*
X79704Y-47704D01*
X79666Y-47742D01*
X79609Y-47761D01*
X79514Y-47761D01*
X79876Y-47361D02*
X80123Y-47361D01*
X79990Y-47514D01*
X80047Y-47514D01*
X80085Y-47533D01*
X80104Y-47552D01*
X80123Y-47590D01*
X80123Y-47685D01*
X80104Y-47723D01*
X80085Y-47742D01*
X80047Y-47761D01*
X79933Y-47761D01*
X79895Y-47742D01*
X79876Y-47723D01*
X80466Y-47361D02*
X80390Y-47361D01*
X80352Y-47380D01*
X80333Y-47400D01*
X80295Y-47457D01*
X80276Y-47533D01*
X80276Y-47685D01*
X80295Y-47723D01*
X80314Y-47742D01*
X80352Y-47761D01*
X80428Y-47761D01*
X80466Y-47742D01*
X80485Y-47723D01*
X80504Y-47685D01*
X80504Y-47590D01*
X80485Y-47552D01*
X80466Y-47533D01*
X80428Y-47514D01*
X80352Y-47514D01*
X80314Y-47533D01*
X80295Y-47552D01*
X80276Y-47590D01*
X31714Y-44161D02*
X31714Y-43761D01*
X31809Y-43761D01*
X31866Y-43780D01*
X31904Y-43819D01*
X31923Y-43857D01*
X31942Y-43933D01*
X31942Y-43990D01*
X31923Y-44066D01*
X31904Y-44104D01*
X31866Y-44142D01*
X31809Y-44161D01*
X31714Y-44161D01*
X32076Y-43761D02*
X32323Y-43761D01*
X32190Y-43914D01*
X32247Y-43914D01*
X32285Y-43933D01*
X32304Y-43952D01*
X32323Y-43990D01*
X32323Y-44085D01*
X32304Y-44123D01*
X32285Y-44142D01*
X32247Y-44161D01*
X32133Y-44161D01*
X32095Y-44142D01*
X32076Y-44123D01*
X32666Y-43895D02*
X32666Y-44161D01*
X32571Y-43742D02*
X32476Y-44028D01*
X32723Y-44028D01*
X84561Y-34685D02*
X84161Y-34685D01*
X84161Y-34590D01*
X84180Y-34533D01*
X84219Y-34495D01*
X84257Y-34476D01*
X84333Y-34457D01*
X84390Y-34457D01*
X84466Y-34476D01*
X84504Y-34495D01*
X84542Y-34533D01*
X84561Y-34590D01*
X84561Y-34685D01*
X84200Y-34304D02*
X84180Y-34285D01*
X84161Y-34247D01*
X84161Y-34152D01*
X84180Y-34114D01*
X84200Y-34095D01*
X84238Y-34076D01*
X84276Y-34076D01*
X84333Y-34095D01*
X84561Y-34323D01*
X84561Y-34076D01*
X84295Y-33733D02*
X84561Y-33733D01*
X84142Y-33828D02*
X84428Y-33923D01*
X84428Y-33676D01*
X31714Y-42761D02*
X31714Y-42361D01*
X31809Y-42361D01*
X31866Y-42380D01*
X31904Y-42419D01*
X31923Y-42457D01*
X31942Y-42533D01*
X31942Y-42590D01*
X31923Y-42666D01*
X31904Y-42704D01*
X31866Y-42742D01*
X31809Y-42761D01*
X31714Y-42761D01*
X32076Y-42361D02*
X32323Y-42361D01*
X32190Y-42514D01*
X32247Y-42514D01*
X32285Y-42533D01*
X32304Y-42552D01*
X32323Y-42590D01*
X32323Y-42685D01*
X32304Y-42723D01*
X32285Y-42742D01*
X32247Y-42761D01*
X32133Y-42761D01*
X32095Y-42742D01*
X32076Y-42723D01*
X32571Y-42361D02*
X32609Y-42361D01*
X32647Y-42380D01*
X32666Y-42400D01*
X32685Y-42438D01*
X32704Y-42514D01*
X32704Y-42609D01*
X32685Y-42685D01*
X32666Y-42723D01*
X32647Y-42742D01*
X32609Y-42761D01*
X32571Y-42761D01*
X32533Y-42742D01*
X32514Y-42723D01*
X32495Y-42685D01*
X32476Y-42609D01*
X32476Y-42514D01*
X32495Y-42438D01*
X32514Y-42400D01*
X32533Y-42380D01*
X32571Y-42361D01*
X33023Y-31957D02*
X33042Y-31976D01*
X33061Y-32033D01*
X33061Y-32071D01*
X33042Y-32128D01*
X33004Y-32166D01*
X32966Y-32185D01*
X32890Y-32204D01*
X32833Y-32204D01*
X32757Y-32185D01*
X32719Y-32166D01*
X32680Y-32128D01*
X32661Y-32071D01*
X32661Y-32033D01*
X32680Y-31976D01*
X32700Y-31957D01*
X32700Y-31804D02*
X32680Y-31785D01*
X32661Y-31747D01*
X32661Y-31652D01*
X32680Y-31614D01*
X32700Y-31595D01*
X32738Y-31576D01*
X32776Y-31576D01*
X32833Y-31595D01*
X33061Y-31823D01*
X33061Y-31576D01*
X33061Y-31385D02*
X33061Y-31309D01*
X33042Y-31271D01*
X33023Y-31252D01*
X32966Y-31214D01*
X32890Y-31195D01*
X32738Y-31195D01*
X32700Y-31214D01*
X32680Y-31233D01*
X32661Y-31271D01*
X32661Y-31347D01*
X32680Y-31385D01*
X32700Y-31404D01*
X32738Y-31423D01*
X32833Y-31423D01*
X32871Y-31404D01*
X32890Y-31385D01*
X32909Y-31347D01*
X32909Y-31271D01*
X32890Y-31233D01*
X32871Y-31214D01*
X32833Y-31195D01*
X67623Y-48557D02*
X67642Y-48576D01*
X67661Y-48633D01*
X67661Y-48671D01*
X67642Y-48728D01*
X67604Y-48766D01*
X67566Y-48785D01*
X67490Y-48804D01*
X67433Y-48804D01*
X67357Y-48785D01*
X67319Y-48766D01*
X67280Y-48728D01*
X67261Y-48671D01*
X67261Y-48633D01*
X67280Y-48576D01*
X67300Y-48557D01*
X67300Y-48404D02*
X67280Y-48385D01*
X67261Y-48347D01*
X67261Y-48252D01*
X67280Y-48214D01*
X67300Y-48195D01*
X67338Y-48176D01*
X67376Y-48176D01*
X67433Y-48195D01*
X67661Y-48423D01*
X67661Y-48176D01*
X67433Y-47947D02*
X67414Y-47985D01*
X67395Y-48004D01*
X67357Y-48023D01*
X67338Y-48023D01*
X67300Y-48004D01*
X67280Y-47985D01*
X67261Y-47947D01*
X67261Y-47871D01*
X67280Y-47833D01*
X67300Y-47814D01*
X67338Y-47795D01*
X67357Y-47795D01*
X67395Y-47814D01*
X67414Y-47833D01*
X67433Y-47871D01*
X67433Y-47947D01*
X67452Y-47985D01*
X67471Y-48004D01*
X67509Y-48023D01*
X67585Y-48023D01*
X67623Y-48004D01*
X67642Y-47985D01*
X67661Y-47947D01*
X67661Y-47871D01*
X67642Y-47833D01*
X67623Y-47814D01*
X67585Y-47795D01*
X67509Y-47795D01*
X67471Y-47814D01*
X67452Y-47833D01*
X67433Y-47871D01*
X56023Y-48557D02*
X56042Y-48576D01*
X56061Y-48633D01*
X56061Y-48671D01*
X56042Y-48728D01*
X56004Y-48766D01*
X55966Y-48785D01*
X55890Y-48804D01*
X55833Y-48804D01*
X55757Y-48785D01*
X55719Y-48766D01*
X55680Y-48728D01*
X55661Y-48671D01*
X55661Y-48633D01*
X55680Y-48576D01*
X55700Y-48557D01*
X55700Y-48404D02*
X55680Y-48385D01*
X55661Y-48347D01*
X55661Y-48252D01*
X55680Y-48214D01*
X55700Y-48195D01*
X55738Y-48176D01*
X55776Y-48176D01*
X55833Y-48195D01*
X56061Y-48423D01*
X56061Y-48176D01*
X55661Y-47928D02*
X55661Y-47890D01*
X55680Y-47852D01*
X55700Y-47833D01*
X55738Y-47814D01*
X55814Y-47795D01*
X55909Y-47795D01*
X55985Y-47814D01*
X56023Y-47833D01*
X56042Y-47852D01*
X56061Y-47890D01*
X56061Y-47928D01*
X56042Y-47966D01*
X56023Y-47985D01*
X55985Y-48004D01*
X55909Y-48023D01*
X55814Y-48023D01*
X55738Y-48004D01*
X55700Y-47985D01*
X55680Y-47966D01*
X55661Y-47928D01*
X57223Y-31957D02*
X57242Y-31976D01*
X57261Y-32033D01*
X57261Y-32071D01*
X57242Y-32128D01*
X57204Y-32166D01*
X57166Y-32185D01*
X57090Y-32204D01*
X57033Y-32204D01*
X56957Y-32185D01*
X56919Y-32166D01*
X56880Y-32128D01*
X56861Y-32071D01*
X56861Y-32033D01*
X56880Y-31976D01*
X56900Y-31957D01*
X57261Y-31576D02*
X57261Y-31804D01*
X57261Y-31690D02*
X56861Y-31690D01*
X56919Y-31728D01*
X56957Y-31766D01*
X56976Y-31804D01*
X57261Y-31385D02*
X57261Y-31309D01*
X57242Y-31271D01*
X57223Y-31252D01*
X57166Y-31214D01*
X57090Y-31195D01*
X56938Y-31195D01*
X56900Y-31214D01*
X56880Y-31233D01*
X56861Y-31271D01*
X56861Y-31347D01*
X56880Y-31385D01*
X56900Y-31404D01*
X56938Y-31423D01*
X57033Y-31423D01*
X57071Y-31404D01*
X57090Y-31385D01*
X57109Y-31347D01*
X57109Y-31271D01*
X57090Y-31233D01*
X57071Y-31214D01*
X57033Y-31195D01*
X21223Y-31957D02*
X21242Y-31976D01*
X21261Y-32033D01*
X21261Y-32071D01*
X21242Y-32128D01*
X21204Y-32166D01*
X21166Y-32185D01*
X21090Y-32204D01*
X21033Y-32204D01*
X20957Y-32185D01*
X20919Y-32166D01*
X20880Y-32128D01*
X20861Y-32071D01*
X20861Y-32033D01*
X20880Y-31976D01*
X20900Y-31957D01*
X21261Y-31576D02*
X21261Y-31804D01*
X21261Y-31690D02*
X20861Y-31690D01*
X20919Y-31728D01*
X20957Y-31766D01*
X20976Y-31804D01*
X21033Y-31347D02*
X21014Y-31385D01*
X20995Y-31404D01*
X20957Y-31423D01*
X20938Y-31423D01*
X20900Y-31404D01*
X20880Y-31385D01*
X20861Y-31347D01*
X20861Y-31271D01*
X20880Y-31233D01*
X20900Y-31214D01*
X20938Y-31195D01*
X20957Y-31195D01*
X20995Y-31214D01*
X21014Y-31233D01*
X21033Y-31271D01*
X21033Y-31347D01*
X21052Y-31385D01*
X21071Y-31404D01*
X21109Y-31423D01*
X21185Y-31423D01*
X21223Y-31404D01*
X21242Y-31385D01*
X21261Y-31347D01*
X21261Y-31271D01*
X21242Y-31233D01*
X21223Y-31214D01*
X21185Y-31195D01*
X21109Y-31195D01*
X21071Y-31214D01*
X21052Y-31233D01*
X21033Y-31271D01*
X20423Y-48557D02*
X20442Y-48576D01*
X20461Y-48633D01*
X20461Y-48671D01*
X20442Y-48728D01*
X20404Y-48766D01*
X20366Y-48785D01*
X20290Y-48804D01*
X20233Y-48804D01*
X20157Y-48785D01*
X20119Y-48766D01*
X20080Y-48728D01*
X20061Y-48671D01*
X20061Y-48633D01*
X20080Y-48576D01*
X20100Y-48557D01*
X20461Y-48176D02*
X20461Y-48404D01*
X20461Y-48290D02*
X20061Y-48290D01*
X20119Y-48328D01*
X20157Y-48366D01*
X20176Y-48404D01*
X20061Y-48042D02*
X20061Y-47776D01*
X20461Y-47947D01*
X44223Y-38757D02*
X44242Y-38776D01*
X44261Y-38833D01*
X44261Y-38871D01*
X44242Y-38928D01*
X44204Y-38966D01*
X44166Y-38985D01*
X44090Y-39004D01*
X44033Y-39004D01*
X43957Y-38985D01*
X43919Y-38966D01*
X43880Y-38928D01*
X43861Y-38871D01*
X43861Y-38833D01*
X43880Y-38776D01*
X43900Y-38757D01*
X43900Y-38604D02*
X43880Y-38585D01*
X43861Y-38547D01*
X43861Y-38452D01*
X43880Y-38414D01*
X43900Y-38395D01*
X43938Y-38376D01*
X43976Y-38376D01*
X44033Y-38395D01*
X44261Y-38623D01*
X44261Y-38376D01*
X43861Y-38242D02*
X43861Y-37995D01*
X44014Y-38128D01*
X44014Y-38071D01*
X44033Y-38033D01*
X44052Y-38014D01*
X44090Y-37995D01*
X44185Y-37995D01*
X44223Y-38014D01*
X44242Y-38033D01*
X44261Y-38071D01*
X44261Y-38185D01*
X44242Y-38223D01*
X44223Y-38242D01*
X67823Y-31957D02*
X67842Y-31976D01*
X67861Y-32033D01*
X67861Y-32071D01*
X67842Y-32128D01*
X67804Y-32166D01*
X67766Y-32185D01*
X67690Y-32204D01*
X67633Y-32204D01*
X67557Y-32185D01*
X67519Y-32166D01*
X67480Y-32128D01*
X67461Y-32071D01*
X67461Y-32033D01*
X67480Y-31976D01*
X67500Y-31957D01*
X67500Y-31804D02*
X67480Y-31785D01*
X67461Y-31747D01*
X67461Y-31652D01*
X67480Y-31614D01*
X67500Y-31595D01*
X67538Y-31576D01*
X67576Y-31576D01*
X67633Y-31595D01*
X67861Y-31823D01*
X67861Y-31576D01*
X67500Y-31423D02*
X67480Y-31404D01*
X67461Y-31366D01*
X67461Y-31271D01*
X67480Y-31233D01*
X67500Y-31214D01*
X67538Y-31195D01*
X67576Y-31195D01*
X67633Y-31214D01*
X67861Y-31442D01*
X67861Y-31195D01*
X45423Y-31957D02*
X45442Y-31976D01*
X45461Y-32033D01*
X45461Y-32071D01*
X45442Y-32128D01*
X45404Y-32166D01*
X45366Y-32185D01*
X45290Y-32204D01*
X45233Y-32204D01*
X45157Y-32185D01*
X45119Y-32166D01*
X45080Y-32128D01*
X45061Y-32071D01*
X45061Y-32033D01*
X45080Y-31976D01*
X45100Y-31957D01*
X45100Y-31804D02*
X45080Y-31785D01*
X45061Y-31747D01*
X45061Y-31652D01*
X45080Y-31614D01*
X45100Y-31595D01*
X45138Y-31576D01*
X45176Y-31576D01*
X45233Y-31595D01*
X45461Y-31823D01*
X45461Y-31576D01*
X45461Y-31195D02*
X45461Y-31423D01*
X45461Y-31309D02*
X45061Y-31309D01*
X45119Y-31347D01*
X45157Y-31385D01*
X45176Y-31423D01*
X85623Y-35357D02*
X85642Y-35376D01*
X85661Y-35433D01*
X85661Y-35471D01*
X85642Y-35528D01*
X85604Y-35566D01*
X85566Y-35585D01*
X85490Y-35604D01*
X85433Y-35604D01*
X85357Y-35585D01*
X85319Y-35566D01*
X85280Y-35528D01*
X85261Y-35471D01*
X85261Y-35433D01*
X85280Y-35376D01*
X85300Y-35357D01*
X85661Y-34976D02*
X85661Y-35204D01*
X85661Y-35090D02*
X85261Y-35090D01*
X85319Y-35128D01*
X85357Y-35166D01*
X85376Y-35204D01*
X85261Y-34633D02*
X85261Y-34709D01*
X85280Y-34747D01*
X85300Y-34766D01*
X85357Y-34804D01*
X85433Y-34823D01*
X85585Y-34823D01*
X85623Y-34804D01*
X85642Y-34785D01*
X85661Y-34747D01*
X85661Y-34671D01*
X85642Y-34633D01*
X85623Y-34614D01*
X85585Y-34595D01*
X85490Y-34595D01*
X85452Y-34614D01*
X85433Y-34633D01*
X85414Y-34671D01*
X85414Y-34747D01*
X85433Y-34785D01*
X85452Y-34804D01*
X85490Y-34823D01*
X32223Y-48557D02*
X32242Y-48576D01*
X32261Y-48633D01*
X32261Y-48671D01*
X32242Y-48728D01*
X32204Y-48766D01*
X32166Y-48785D01*
X32090Y-48804D01*
X32033Y-48804D01*
X31957Y-48785D01*
X31919Y-48766D01*
X31880Y-48728D01*
X31861Y-48671D01*
X31861Y-48633D01*
X31880Y-48576D01*
X31900Y-48557D01*
X31900Y-48404D02*
X31880Y-48385D01*
X31861Y-48347D01*
X31861Y-48252D01*
X31880Y-48214D01*
X31900Y-48195D01*
X31938Y-48176D01*
X31976Y-48176D01*
X32033Y-48195D01*
X32261Y-48423D01*
X32261Y-48176D01*
X31995Y-47833D02*
X32261Y-47833D01*
X31842Y-47928D02*
X32128Y-48023D01*
X32128Y-47776D01*
X44223Y-48557D02*
X44242Y-48576D01*
X44261Y-48633D01*
X44261Y-48671D01*
X44242Y-48728D01*
X44204Y-48766D01*
X44166Y-48785D01*
X44090Y-48804D01*
X44033Y-48804D01*
X43957Y-48785D01*
X43919Y-48766D01*
X43880Y-48728D01*
X43861Y-48671D01*
X43861Y-48633D01*
X43880Y-48576D01*
X43900Y-48557D01*
X43900Y-48404D02*
X43880Y-48385D01*
X43861Y-48347D01*
X43861Y-48252D01*
X43880Y-48214D01*
X43900Y-48195D01*
X43938Y-48176D01*
X43976Y-48176D01*
X44033Y-48195D01*
X44261Y-48423D01*
X44261Y-48176D01*
X43861Y-48042D02*
X43861Y-47776D01*
X44261Y-47947D01*
X32223Y-38757D02*
X32242Y-38776D01*
X32261Y-38833D01*
X32261Y-38871D01*
X32242Y-38928D01*
X32204Y-38966D01*
X32166Y-38985D01*
X32090Y-39004D01*
X32033Y-39004D01*
X31957Y-38985D01*
X31919Y-38966D01*
X31880Y-38928D01*
X31861Y-38871D01*
X31861Y-38833D01*
X31880Y-38776D01*
X31900Y-38757D01*
X31900Y-38604D02*
X31880Y-38585D01*
X31861Y-38547D01*
X31861Y-38452D01*
X31880Y-38414D01*
X31900Y-38395D01*
X31938Y-38376D01*
X31976Y-38376D01*
X32033Y-38395D01*
X32261Y-38623D01*
X32261Y-38376D01*
X31861Y-38014D02*
X31861Y-38204D01*
X32052Y-38223D01*
X32033Y-38204D01*
X32014Y-38166D01*
X32014Y-38071D01*
X32033Y-38033D01*
X32052Y-38014D01*
X32090Y-37995D01*
X32185Y-37995D01*
X32223Y-38014D01*
X32242Y-38033D01*
X32261Y-38071D01*
X32261Y-38166D01*
X32242Y-38204D01*
X32223Y-38223D01*
X21223Y-38757D02*
X21242Y-38776D01*
X21261Y-38833D01*
X21261Y-38871D01*
X21242Y-38928D01*
X21204Y-38966D01*
X21166Y-38985D01*
X21090Y-39004D01*
X21033Y-39004D01*
X20957Y-38985D01*
X20919Y-38966D01*
X20880Y-38928D01*
X20861Y-38871D01*
X20861Y-38833D01*
X20880Y-38776D01*
X20900Y-38757D01*
X20900Y-38604D02*
X20880Y-38585D01*
X20861Y-38547D01*
X20861Y-38452D01*
X20880Y-38414D01*
X20900Y-38395D01*
X20938Y-38376D01*
X20976Y-38376D01*
X21033Y-38395D01*
X21261Y-38623D01*
X21261Y-38376D01*
X20861Y-38033D02*
X20861Y-38109D01*
X20880Y-38147D01*
X20900Y-38166D01*
X20957Y-38204D01*
X21033Y-38223D01*
X21185Y-38223D01*
X21223Y-38204D01*
X21242Y-38185D01*
X21261Y-38147D01*
X21261Y-38071D01*
X21242Y-38033D01*
X21223Y-38014D01*
X21185Y-37995D01*
X21090Y-37995D01*
X21052Y-38014D01*
X21033Y-38033D01*
X21014Y-38071D01*
X21014Y-38147D01*
X21033Y-38185D01*
X21052Y-38204D01*
X21090Y-38223D01*
%LPC*%
G54D21*
X84500Y-46700D03*
G54D22*
X84500Y-47700D03*
X85500Y-47700D03*
G54D21*
X79300Y-39900D03*
G54D22*
X78300Y-39900D03*
X78300Y-40900D03*
G54D21*
X35600Y-42800D03*
G54D22*
X36600Y-42800D03*
X37600Y-42800D03*
X38600Y-42800D03*
X39600Y-42800D03*
X40600Y-42800D03*
X41600Y-42800D03*
X42600Y-42800D03*
X43600Y-42800D03*
G54D21*
X47600Y-42800D03*
G54D22*
X48600Y-42800D03*
X49600Y-42800D03*
X50600Y-42800D03*
X51600Y-42800D03*
X52600Y-42800D03*
X53600Y-42800D03*
X54600Y-42800D03*
X55600Y-42800D03*
X68900Y-44000D03*
X67900Y-44000D03*
X83900Y-30600D03*
X82900Y-30600D03*
X85500Y-51000D03*
X84500Y-51000D03*
X84600Y-45100D03*
X84600Y-44100D03*
X21700Y-42200D03*
X20700Y-42200D03*
X79200Y-36900D03*
X79200Y-35900D03*
X27700Y-44000D03*
X28700Y-44000D03*
X78300Y-44000D03*
X77300Y-44000D03*
G54D23*
X26100Y-53800D03*
G54D24*
X27100Y-53800D03*
X28100Y-53800D03*
X29100Y-53800D03*
G54D23*
X59300Y-53800D03*
G54D24*
X60300Y-53800D03*
X61300Y-53800D03*
X62300Y-53800D03*
G54D23*
X47900Y-53800D03*
G54D24*
X48900Y-53800D03*
X49900Y-53800D03*
X50900Y-53800D03*
G54D23*
X35500Y-53800D03*
G54D24*
X36500Y-53800D03*
X37500Y-53800D03*
X38500Y-53800D03*
G54D23*
X73500Y-53800D03*
G54D24*
X74500Y-53800D03*
X75500Y-53800D03*
X76500Y-53800D03*
G54D23*
X68100Y-53800D03*
G54D24*
X69100Y-53800D03*
X70100Y-53800D03*
X71100Y-53800D03*
G54D23*
X88800Y-49600D03*
G54D24*
X88800Y-48600D03*
X88800Y-47600D03*
G54D23*
X88800Y-35600D03*
G54D24*
X88800Y-34600D03*
X88800Y-33600D03*
G54D23*
X88800Y-44800D03*
G54D24*
X88800Y-43800D03*
X88800Y-42800D03*
G54D23*
X19400Y-44200D03*
G54D24*
X19400Y-43200D03*
X19400Y-42200D03*
G54D23*
X21300Y-53800D03*
G54D24*
X22300Y-53800D03*
G54D23*
X88800Y-39600D03*
G54D25*
X85900Y-30600D03*
X86900Y-30600D03*
G54D21*
X21700Y-49700D03*
G54D22*
X22700Y-49700D03*
X23700Y-49700D03*
X24700Y-49700D03*
X25700Y-49700D03*
X26700Y-49700D03*
X27700Y-49700D03*
X28700Y-49700D03*
X28700Y-46700D03*
X27700Y-46700D03*
X26700Y-46700D03*
X25700Y-46700D03*
X24700Y-46700D03*
X23700Y-46700D03*
X22700Y-46700D03*
X21700Y-46700D03*
G54D21*
X45500Y-49700D03*
G54D22*
X46500Y-49700D03*
X47500Y-49700D03*
X48500Y-49700D03*
X49500Y-49700D03*
X50500Y-49700D03*
X51500Y-49700D03*
X52500Y-49700D03*
X52500Y-46700D03*
X51500Y-46700D03*
X50500Y-46700D03*
X49500Y-46700D03*
X48500Y-46700D03*
X47500Y-46700D03*
X46500Y-46700D03*
X45500Y-46700D03*
G54D21*
X57300Y-49700D03*
G54D22*
X58300Y-49700D03*
X59300Y-49700D03*
X60300Y-49700D03*
X61300Y-49700D03*
X62300Y-49700D03*
X63300Y-49700D03*
X64300Y-49700D03*
X64300Y-46700D03*
X63300Y-46700D03*
X62300Y-46700D03*
X61300Y-46700D03*
X60300Y-46700D03*
X59300Y-46700D03*
X58300Y-46700D03*
X57300Y-46700D03*
G54D21*
X33500Y-49700D03*
G54D22*
X34500Y-49700D03*
X35500Y-49700D03*
X36500Y-49700D03*
X37500Y-49700D03*
X38500Y-49700D03*
X39500Y-49700D03*
X40500Y-49700D03*
X40500Y-46700D03*
X39500Y-46700D03*
X38500Y-46700D03*
X37500Y-46700D03*
X36500Y-46700D03*
X35500Y-46700D03*
X34500Y-46700D03*
X33500Y-46700D03*
G54D21*
X33500Y-39900D03*
G54D22*
X34500Y-39900D03*
X35500Y-39900D03*
X36500Y-39900D03*
X37500Y-39900D03*
X38500Y-39900D03*
X39500Y-39900D03*
X40500Y-39900D03*
X40500Y-36900D03*
X39500Y-36900D03*
X38500Y-36900D03*
X37500Y-36900D03*
X36500Y-36900D03*
X35500Y-36900D03*
X34500Y-36900D03*
X33500Y-36900D03*
G54D21*
X45500Y-39900D03*
G54D22*
X46500Y-39900D03*
X47500Y-39900D03*
X48500Y-39900D03*
X49500Y-39900D03*
X50500Y-39900D03*
X51500Y-39900D03*
X52500Y-39900D03*
X52500Y-36900D03*
X51500Y-36900D03*
X50500Y-36900D03*
X49500Y-36900D03*
X48500Y-36900D03*
X47500Y-36900D03*
X46500Y-36900D03*
X45500Y-36900D03*
G54D21*
X68900Y-49700D03*
G54D22*
X69900Y-49700D03*
X70900Y-49700D03*
X71900Y-49700D03*
X72900Y-49700D03*
X73900Y-49700D03*
X74900Y-49700D03*
X75900Y-49700D03*
X75900Y-46700D03*
X74900Y-46700D03*
X73900Y-46700D03*
X72900Y-46700D03*
X71900Y-46700D03*
X70900Y-46700D03*
X69900Y-46700D03*
X68900Y-46700D03*
G54D21*
X46600Y-33100D03*
G54D22*
X47600Y-33100D03*
X48600Y-33100D03*
X49600Y-33100D03*
X50600Y-33100D03*
X51600Y-33100D03*
X52600Y-33100D03*
X52600Y-30100D03*
X51600Y-30100D03*
X50600Y-30100D03*
X49600Y-30100D03*
X48600Y-30100D03*
X47600Y-30100D03*
X46600Y-30100D03*
G54D21*
X58400Y-33100D03*
G54D22*
X59400Y-33100D03*
X60400Y-33100D03*
X61400Y-33100D03*
X62400Y-33100D03*
X63400Y-33100D03*
X64400Y-33100D03*
X64400Y-30100D03*
X63400Y-30100D03*
X62400Y-30100D03*
X61400Y-30100D03*
X60400Y-30100D03*
X59400Y-30100D03*
X58400Y-30100D03*
G54D21*
X22400Y-33100D03*
G54D22*
X23400Y-33100D03*
X24400Y-33100D03*
X25400Y-33100D03*
X26400Y-33100D03*
X27400Y-33100D03*
X28400Y-33100D03*
X28400Y-30100D03*
X27400Y-30100D03*
X26400Y-30100D03*
X25400Y-30100D03*
X24400Y-30100D03*
X23400Y-30100D03*
X22400Y-30100D03*
G54D21*
X22400Y-39900D03*
G54D22*
X23400Y-39900D03*
X24400Y-39900D03*
X25400Y-39900D03*
X26400Y-39900D03*
X27400Y-39900D03*
X28400Y-39900D03*
X28400Y-36900D03*
X27400Y-36900D03*
X26400Y-36900D03*
X25400Y-36900D03*
X24400Y-36900D03*
X23400Y-36900D03*
X22400Y-36900D03*
G54D21*
X69000Y-33100D03*
G54D22*
X70000Y-33100D03*
X71000Y-33100D03*
X72000Y-33100D03*
X73000Y-33100D03*
X74000Y-33100D03*
X75000Y-33100D03*
X75000Y-30100D03*
X74000Y-30100D03*
X73000Y-30100D03*
X72000Y-30100D03*
X71000Y-30100D03*
X70000Y-30100D03*
X69000Y-30100D03*
G54D21*
X34400Y-33100D03*
G54D22*
X35400Y-33100D03*
X36400Y-33100D03*
X37400Y-33100D03*
X38400Y-33100D03*
X39400Y-33100D03*
X40400Y-33100D03*
X40400Y-30100D03*
X39400Y-30100D03*
X38400Y-30100D03*
X37400Y-30100D03*
X36400Y-30100D03*
X35400Y-30100D03*
X34400Y-30100D03*
G54D21*
X81500Y-48800D03*
G54D22*
X78500Y-48800D03*
G54D21*
X81500Y-50000D03*
G54D22*
X78500Y-50000D03*
G54D21*
X62300Y-44000D03*
G54D22*
X65300Y-44000D03*
G54D21*
X75900Y-39800D03*
G54D22*
X72900Y-39800D03*
G54D21*
X75900Y-41200D03*
G54D22*
X72900Y-41200D03*
G54D21*
X62300Y-42600D03*
G54D22*
X65300Y-42600D03*
G54D21*
X75900Y-44000D03*
G54D22*
X72900Y-44000D03*
G54D21*
X75900Y-42600D03*
G54D22*
X72900Y-42600D03*
G54D21*
X81500Y-51200D03*
G54D22*
X78500Y-51200D03*
G54D21*
X81500Y-47600D03*
G54D22*
X78500Y-47600D03*
G54D21*
X33700Y-44000D03*
G54D22*
X30700Y-44000D03*
G54D21*
X84400Y-35700D03*
G54D22*
X84400Y-32700D03*
G54D21*
X33700Y-42600D03*
G54D22*
X30700Y-42600D03*
X32000Y-31100D03*
X32000Y-32100D03*
X66600Y-47700D03*
X66600Y-48700D03*
X55000Y-47700D03*
X55000Y-48700D03*
X56200Y-31100D03*
X56200Y-32100D03*
X20200Y-31100D03*
X20200Y-32100D03*
X19400Y-47700D03*
X19400Y-48700D03*
X43200Y-37900D03*
X43200Y-38900D03*
X66800Y-31100D03*
X66800Y-32100D03*
X44400Y-31100D03*
X44400Y-32100D03*
X86400Y-35700D03*
X86400Y-34700D03*
X31200Y-47700D03*
X31200Y-48700D03*
X43200Y-47700D03*
X43200Y-48700D03*
X31200Y-37900D03*
X31200Y-38900D03*
X20200Y-37900D03*
X20200Y-38900D03*
M02*
