M48
;DRILL file {Pcbnew (2013-jul-07)-stable} date Sat 24 Nov 2018 12:45:41 PM EST
;FORMAT={-:-/ absolute / metric / decimal}
FMAT,2
METRIC,TZ
T1C0.635
T2C0.813
T3C1.016
T4C3.797
%
G90
G05
M71
T1
X54.081Y-110.554
X60.198Y-139.7
X80.36Y-94.856
X80.36Y-99.681
X83.312Y-139.446
X88.9Y-127.762
X95.373Y-95.15
X110.381Y-102.738
X119.38Y-124.714
X121.257Y-99.871
X125.173Y-112.882
X126.701Y-97.536
X133.6Y-98.892
X142.194Y-89.358
X150.622Y-129.54
X151.525Y-88.505
X166.878Y-118.618
X167.132Y-114.046
X169.418Y-140.462
X171.45Y-115.57
X171.45Y-118.618
X180.086Y-122.682
X187.706Y-115.57
X191.516Y-131.064
X191.77Y-120.904
X195.834Y-116.586
X231.648Y-108.712
T2
X49.276Y-121.158
X49.276Y-123.698
X51.308Y-78.994
X51.308Y-81.534
X51.308Y-96.266
X51.308Y-98.806
X52.578Y-107.188
X55.118Y-107.188
X55.118Y-118.618
X55.118Y-126.238
X56.896Y-76.454
X56.896Y-84.074
X56.896Y-93.726
X56.896Y-101.346
X57.658Y-118.618
X57.658Y-126.238
X59.436Y-76.454
X59.436Y-84.074
X59.436Y-93.726
X59.436Y-101.346
X60.198Y-118.618
X60.198Y-126.238
X61.976Y-76.454
X61.976Y-84.074
X61.976Y-93.726
X61.976Y-101.346
X62.738Y-118.618
X62.738Y-126.238
X64.516Y-76.454
X64.516Y-84.074
X64.516Y-93.726
X64.516Y-101.346
X65.278Y-118.618
X65.278Y-126.238
X67.056Y-76.454
X67.056Y-84.074
X67.056Y-93.726
X67.056Y-101.346
X67.818Y-118.618
X67.818Y-126.238
X69.596Y-76.454
X69.596Y-84.074
X69.596Y-93.726
X69.596Y-101.346
X70.358Y-111.76
X70.358Y-118.618
X70.358Y-126.238
X72.136Y-76.454
X72.136Y-84.074
X72.136Y-93.726
X72.136Y-101.346
X72.898Y-111.76
X72.898Y-118.618
X72.898Y-126.238
X77.978Y-108.204
X77.978Y-111.76
X79.248Y-96.266
X79.248Y-98.806
X79.248Y-121.158
X79.248Y-123.698
X81.28Y-78.994
X81.28Y-81.534
X85.09Y-93.726
X85.09Y-101.346
X85.09Y-118.618
X85.09Y-126.238
X85.598Y-108.204
X85.598Y-111.76
X87.376Y-76.454
X87.376Y-84.074
X87.63Y-93.726
X87.63Y-101.346
X87.63Y-118.618
X87.63Y-126.238
X89.916Y-76.454
X89.916Y-84.074
X90.17Y-93.726
X90.17Y-101.346
X90.17Y-118.618
X90.17Y-126.238
X90.424Y-108.712
X92.456Y-76.454
X92.456Y-84.074
X92.71Y-93.726
X92.71Y-101.346
X92.71Y-118.618
X92.71Y-126.238
X92.964Y-108.712
X94.996Y-76.454
X94.996Y-84.074
X95.25Y-93.726
X95.25Y-101.346
X95.25Y-118.618
X95.25Y-126.238
X95.504Y-108.712
X97.536Y-76.454
X97.536Y-84.074
X97.79Y-93.726
X97.79Y-101.346
X97.79Y-118.618
X97.79Y-126.238
X98.044Y-108.712
X100.076Y-76.454
X100.076Y-84.074
X100.33Y-93.726
X100.33Y-101.346
X100.33Y-118.618
X100.33Y-126.238
X100.584Y-108.712
X102.616Y-76.454
X102.616Y-84.074
X102.87Y-93.726
X102.87Y-101.346
X102.87Y-118.618
X102.87Y-126.238
X103.124Y-108.712
X105.664Y-108.712
X108.204Y-108.712
X109.728Y-96.266
X109.728Y-98.806
X109.728Y-121.158
X109.728Y-123.698
X110.744Y-108.712
X112.776Y-78.994
X112.776Y-81.534
X115.57Y-93.726
X115.57Y-101.346
X115.57Y-118.618
X115.57Y-126.238
X118.11Y-93.726
X118.11Y-101.346
X118.11Y-118.618
X118.11Y-126.238
X118.364Y-76.454
X118.364Y-84.074
X120.65Y-93.726
X120.65Y-101.346
X120.65Y-118.618
X120.65Y-126.238
X120.904Y-76.454
X120.904Y-84.074
X120.904Y-108.712
X123.19Y-93.726
X123.19Y-101.346
X123.19Y-118.618
X123.19Y-126.238
X123.444Y-76.454
X123.444Y-84.074
X123.444Y-108.712
X125.73Y-93.726
X125.73Y-101.346
X125.73Y-118.618
X125.73Y-126.238
X125.984Y-76.454
X125.984Y-84.074
X125.984Y-108.712
X128.27Y-93.726
X128.27Y-101.346
X128.27Y-118.618
X128.27Y-126.238
X128.524Y-76.454
X128.524Y-84.074
X128.524Y-108.712
X130.81Y-93.726
X130.81Y-101.346
X130.81Y-118.618
X130.81Y-126.238
X131.064Y-76.454
X131.064Y-84.074
X131.064Y-108.712
X133.35Y-93.726
X133.35Y-101.346
X133.35Y-118.618
X133.35Y-126.238
X133.604Y-76.454
X133.604Y-84.074
X133.604Y-108.712
X136.144Y-108.712
X138.684Y-108.712
X139.7Y-121.158
X139.7Y-123.698
X141.224Y-108.712
X142.748Y-78.994
X142.748Y-81.534
X145.542Y-118.618
X145.542Y-126.238
X148.082Y-118.618
X148.082Y-126.238
X148.336Y-76.454
X148.336Y-84.074
X150.622Y-118.618
X150.622Y-126.238
X150.876Y-76.454
X150.876Y-84.074
X153.162Y-118.618
X153.162Y-126.238
X153.416Y-76.454
X153.416Y-84.074
X155.702Y-118.618
X155.702Y-126.238
X155.956Y-76.454
X155.956Y-84.074
X158.242Y-108.204
X158.242Y-111.76
X158.242Y-118.618
X158.242Y-126.238
X158.496Y-76.454
X158.496Y-84.074
X160.782Y-118.618
X160.782Y-126.238
X161.036Y-76.454
X161.036Y-84.074
X163.322Y-118.618
X163.322Y-126.238
X163.576Y-76.454
X163.576Y-84.074
X165.862Y-108.204
X165.862Y-111.76
X169.164Y-121.158
X169.164Y-123.698
X169.672Y-78.994
X169.672Y-81.534
X172.466Y-111.76
X175.006Y-111.76
X175.006Y-118.618
X175.006Y-126.238
X175.26Y-76.454
X175.26Y-84.074
X177.546Y-118.618
X177.546Y-126.238
X177.8Y-76.454
X177.8Y-84.074
X180.086Y-118.618
X180.086Y-126.238
X180.34Y-76.454
X180.34Y-84.074
X182.626Y-118.618
X182.626Y-126.238
X182.88Y-76.454
X182.88Y-84.074
X185.166Y-101.092
X185.166Y-104.648
X185.166Y-108.204
X185.166Y-111.76
X185.166Y-118.618
X185.166Y-126.238
X185.42Y-76.454
X185.42Y-84.074
X187.706Y-118.618
X187.706Y-126.238
X187.96Y-76.454
X187.96Y-84.074
X190.246Y-118.618
X190.246Y-126.238
X190.5Y-76.454
X190.5Y-84.074
X192.786Y-101.092
X192.786Y-104.648
X192.786Y-108.204
X192.786Y-111.76
X192.786Y-118.618
X192.786Y-126.238
X196.342Y-111.76
X198.882Y-101.346
X198.882Y-103.886
X198.882Y-111.76
X199.39Y-120.904
X199.39Y-123.952
X199.39Y-127.
X199.39Y-130.048
X201.168Y-91.186
X201.168Y-93.726
X201.422Y-101.346
X207.01Y-120.904
X207.01Y-123.952
X207.01Y-127.
X207.01Y-130.048
X210.566Y-77.724
X213.106Y-77.724
X214.376Y-83.058
X214.376Y-90.678
X214.63Y-118.618
X214.63Y-121.158
X214.63Y-129.54
X214.884Y-112.014
X214.884Y-114.554
X217.17Y-121.158
X217.17Y-129.54
X218.186Y-77.724
X219.456Y-88.138
X219.456Y-90.678
X220.726Y-77.724
T3
X49.276Y-107.188
X49.276Y-109.728
X49.276Y-112.268
X54.102Y-136.652
X56.642Y-136.652
X66.294Y-136.652
X68.834Y-136.652
X71.374Y-136.652
X73.914Y-136.652
X90.17Y-136.652
X92.71Y-136.652
X95.25Y-136.652
X97.79Y-136.652
X121.666Y-136.652
X124.206Y-136.652
X126.746Y-136.652
X129.286Y-136.652
X150.622Y-136.652
X153.162Y-136.652
X155.702Y-136.652
X158.242Y-136.652
X172.974Y-136.652
X175.514Y-136.652
X178.054Y-136.652
X180.594Y-136.652
X186.69Y-136.652
X189.23Y-136.652
X191.77Y-136.652
X194.31Y-136.652
X225.552Y-85.344
X225.552Y-87.884
X225.552Y-90.424
X225.552Y-100.584
X225.552Y-108.712
X225.552Y-111.252
X225.552Y-113.792
X225.552Y-120.904
X225.552Y-123.444
X225.552Y-125.984
T4
X48.768Y-74.168
X48.768Y-141.224
X148.336Y-103.632
X229.616Y-74.168
X229.616Y-141.224
T0
M30
