G04 (created by PCBNEW (2013-jul-07)-stable) date Sat 24 Nov 2018 12:45:13 PM EST*
%MOIN*%
G04 Gerber Fmt 3.4, Leading zero omitted, Abs format*
%FSLAX34Y34*%
G01*
G70*
G90*
G04 APERTURE LIST*
%ADD10C,0.00590551*%
%ADD11C,0.2*%
%ADD12R,0.055X0.055*%
%ADD13C,0.055*%
%ADD14R,0.06X0.06*%
%ADD15C,0.06*%
%ADD16C,0.066*%
%ADD17C,0.035*%
%ADD18C,0.01*%
G04 APERTURE END LIST*
G54D10*
G54D11*
X58400Y-40800D03*
X19200Y-29200D03*
X19200Y-55600D03*
X90400Y-55600D03*
G54D12*
X84500Y-46700D03*
G54D13*
X84500Y-47700D03*
X85500Y-47700D03*
G54D12*
X79300Y-39900D03*
G54D13*
X78300Y-39900D03*
X78300Y-40900D03*
G54D12*
X35600Y-42800D03*
G54D13*
X36600Y-42800D03*
X37600Y-42800D03*
X38600Y-42800D03*
X39600Y-42800D03*
X40600Y-42800D03*
X41600Y-42800D03*
X42600Y-42800D03*
X43600Y-42800D03*
G54D12*
X47600Y-42800D03*
G54D13*
X48600Y-42800D03*
X49600Y-42800D03*
X50600Y-42800D03*
X51600Y-42800D03*
X52600Y-42800D03*
X53600Y-42800D03*
X54600Y-42800D03*
X55600Y-42800D03*
X68900Y-44000D03*
X67900Y-44000D03*
X83900Y-30600D03*
X82900Y-30600D03*
X85500Y-51000D03*
X84500Y-51000D03*
X84600Y-45100D03*
X84600Y-44100D03*
X21700Y-42200D03*
X20700Y-42200D03*
X79200Y-36900D03*
X79200Y-35900D03*
X27700Y-44000D03*
X28700Y-44000D03*
X78300Y-44000D03*
X77300Y-44000D03*
G54D14*
X26100Y-53800D03*
G54D15*
X27100Y-53800D03*
X28100Y-53800D03*
X29100Y-53800D03*
G54D14*
X59300Y-53800D03*
G54D15*
X60300Y-53800D03*
X61300Y-53800D03*
X62300Y-53800D03*
G54D14*
X47900Y-53800D03*
G54D15*
X48900Y-53800D03*
X49900Y-53800D03*
X50900Y-53800D03*
G54D14*
X35500Y-53800D03*
G54D15*
X36500Y-53800D03*
X37500Y-53800D03*
X38500Y-53800D03*
G54D14*
X73500Y-53800D03*
G54D15*
X74500Y-53800D03*
X75500Y-53800D03*
X76500Y-53800D03*
G54D14*
X68100Y-53800D03*
G54D15*
X69100Y-53800D03*
X70100Y-53800D03*
X71100Y-53800D03*
G54D14*
X88800Y-49600D03*
G54D15*
X88800Y-48600D03*
X88800Y-47600D03*
G54D14*
X88800Y-35600D03*
G54D15*
X88800Y-34600D03*
X88800Y-33600D03*
G54D14*
X88800Y-44800D03*
G54D15*
X88800Y-43800D03*
X88800Y-42800D03*
G54D14*
X19400Y-44200D03*
G54D15*
X19400Y-43200D03*
X19400Y-42200D03*
G54D14*
X21300Y-53800D03*
G54D15*
X22300Y-53800D03*
G54D14*
X88800Y-39600D03*
G54D16*
X85900Y-30600D03*
X86900Y-30600D03*
G54D12*
X21700Y-49700D03*
G54D13*
X22700Y-49700D03*
X23700Y-49700D03*
X24700Y-49700D03*
X25700Y-49700D03*
X26700Y-49700D03*
X27700Y-49700D03*
X28700Y-49700D03*
X28700Y-46700D03*
X27700Y-46700D03*
X26700Y-46700D03*
X25700Y-46700D03*
X24700Y-46700D03*
X23700Y-46700D03*
X22700Y-46700D03*
X21700Y-46700D03*
G54D12*
X45500Y-49700D03*
G54D13*
X46500Y-49700D03*
X47500Y-49700D03*
X48500Y-49700D03*
X49500Y-49700D03*
X50500Y-49700D03*
X51500Y-49700D03*
X52500Y-49700D03*
X52500Y-46700D03*
X51500Y-46700D03*
X50500Y-46700D03*
X49500Y-46700D03*
X48500Y-46700D03*
X47500Y-46700D03*
X46500Y-46700D03*
X45500Y-46700D03*
G54D12*
X57300Y-49700D03*
G54D13*
X58300Y-49700D03*
X59300Y-49700D03*
X60300Y-49700D03*
X61300Y-49700D03*
X62300Y-49700D03*
X63300Y-49700D03*
X64300Y-49700D03*
X64300Y-46700D03*
X63300Y-46700D03*
X62300Y-46700D03*
X61300Y-46700D03*
X60300Y-46700D03*
X59300Y-46700D03*
X58300Y-46700D03*
X57300Y-46700D03*
G54D12*
X33500Y-49700D03*
G54D13*
X34500Y-49700D03*
X35500Y-49700D03*
X36500Y-49700D03*
X37500Y-49700D03*
X38500Y-49700D03*
X39500Y-49700D03*
X40500Y-49700D03*
X40500Y-46700D03*
X39500Y-46700D03*
X38500Y-46700D03*
X37500Y-46700D03*
X36500Y-46700D03*
X35500Y-46700D03*
X34500Y-46700D03*
X33500Y-46700D03*
G54D12*
X33500Y-39900D03*
G54D13*
X34500Y-39900D03*
X35500Y-39900D03*
X36500Y-39900D03*
X37500Y-39900D03*
X38500Y-39900D03*
X39500Y-39900D03*
X40500Y-39900D03*
X40500Y-36900D03*
X39500Y-36900D03*
X38500Y-36900D03*
X37500Y-36900D03*
X36500Y-36900D03*
X35500Y-36900D03*
X34500Y-36900D03*
X33500Y-36900D03*
G54D12*
X45500Y-39900D03*
G54D13*
X46500Y-39900D03*
X47500Y-39900D03*
X48500Y-39900D03*
X49500Y-39900D03*
X50500Y-39900D03*
X51500Y-39900D03*
X52500Y-39900D03*
X52500Y-36900D03*
X51500Y-36900D03*
X50500Y-36900D03*
X49500Y-36900D03*
X48500Y-36900D03*
X47500Y-36900D03*
X46500Y-36900D03*
X45500Y-36900D03*
G54D12*
X68900Y-49700D03*
G54D13*
X69900Y-49700D03*
X70900Y-49700D03*
X71900Y-49700D03*
X72900Y-49700D03*
X73900Y-49700D03*
X74900Y-49700D03*
X75900Y-49700D03*
X75900Y-46700D03*
X74900Y-46700D03*
X73900Y-46700D03*
X72900Y-46700D03*
X71900Y-46700D03*
X70900Y-46700D03*
X69900Y-46700D03*
X68900Y-46700D03*
G54D12*
X46600Y-33100D03*
G54D13*
X47600Y-33100D03*
X48600Y-33100D03*
X49600Y-33100D03*
X50600Y-33100D03*
X51600Y-33100D03*
X52600Y-33100D03*
X52600Y-30100D03*
X51600Y-30100D03*
X50600Y-30100D03*
X49600Y-30100D03*
X48600Y-30100D03*
X47600Y-30100D03*
X46600Y-30100D03*
G54D12*
X58400Y-33100D03*
G54D13*
X59400Y-33100D03*
X60400Y-33100D03*
X61400Y-33100D03*
X62400Y-33100D03*
X63400Y-33100D03*
X64400Y-33100D03*
X64400Y-30100D03*
X63400Y-30100D03*
X62400Y-30100D03*
X61400Y-30100D03*
X60400Y-30100D03*
X59400Y-30100D03*
X58400Y-30100D03*
G54D12*
X22400Y-33100D03*
G54D13*
X23400Y-33100D03*
X24400Y-33100D03*
X25400Y-33100D03*
X26400Y-33100D03*
X27400Y-33100D03*
X28400Y-33100D03*
X28400Y-30100D03*
X27400Y-30100D03*
X26400Y-30100D03*
X25400Y-30100D03*
X24400Y-30100D03*
X23400Y-30100D03*
X22400Y-30100D03*
G54D12*
X22400Y-39900D03*
G54D13*
X23400Y-39900D03*
X24400Y-39900D03*
X25400Y-39900D03*
X26400Y-39900D03*
X27400Y-39900D03*
X28400Y-39900D03*
X28400Y-36900D03*
X27400Y-36900D03*
X26400Y-36900D03*
X25400Y-36900D03*
X24400Y-36900D03*
X23400Y-36900D03*
X22400Y-36900D03*
G54D12*
X69000Y-33100D03*
G54D13*
X70000Y-33100D03*
X71000Y-33100D03*
X72000Y-33100D03*
X73000Y-33100D03*
X74000Y-33100D03*
X75000Y-33100D03*
X75000Y-30100D03*
X74000Y-30100D03*
X73000Y-30100D03*
X72000Y-30100D03*
X71000Y-30100D03*
X70000Y-30100D03*
X69000Y-30100D03*
G54D12*
X34400Y-33100D03*
G54D13*
X35400Y-33100D03*
X36400Y-33100D03*
X37400Y-33100D03*
X38400Y-33100D03*
X39400Y-33100D03*
X40400Y-33100D03*
X40400Y-30100D03*
X39400Y-30100D03*
X38400Y-30100D03*
X37400Y-30100D03*
X36400Y-30100D03*
X35400Y-30100D03*
X34400Y-30100D03*
G54D12*
X81500Y-48800D03*
G54D13*
X78500Y-48800D03*
G54D12*
X81500Y-50000D03*
G54D13*
X78500Y-50000D03*
G54D12*
X62300Y-44000D03*
G54D13*
X65300Y-44000D03*
G54D12*
X75900Y-39800D03*
G54D13*
X72900Y-39800D03*
G54D12*
X75900Y-41200D03*
G54D13*
X72900Y-41200D03*
G54D12*
X62300Y-42600D03*
G54D13*
X65300Y-42600D03*
G54D12*
X75900Y-44000D03*
G54D13*
X72900Y-44000D03*
G54D12*
X75900Y-42600D03*
G54D13*
X72900Y-42600D03*
G54D12*
X81500Y-51200D03*
G54D13*
X78500Y-51200D03*
G54D12*
X81500Y-47600D03*
G54D13*
X78500Y-47600D03*
G54D12*
X33700Y-44000D03*
G54D13*
X30700Y-44000D03*
G54D12*
X84400Y-35700D03*
G54D13*
X84400Y-32700D03*
G54D12*
X33700Y-42600D03*
G54D13*
X30700Y-42600D03*
X32000Y-31100D03*
X32000Y-32100D03*
X66600Y-47700D03*
X66600Y-48700D03*
X55000Y-47700D03*
X55000Y-48700D03*
X56200Y-31100D03*
X56200Y-32100D03*
X20200Y-31100D03*
X20200Y-32100D03*
X19400Y-47700D03*
X19400Y-48700D03*
X43200Y-37900D03*
X43200Y-38900D03*
X66800Y-31100D03*
X66800Y-32100D03*
X44400Y-31100D03*
X44400Y-32100D03*
X86400Y-35700D03*
X86400Y-34700D03*
X31200Y-47700D03*
X31200Y-48700D03*
X43200Y-47700D03*
X43200Y-48700D03*
X31200Y-37900D03*
X31200Y-38900D03*
X20200Y-37900D03*
X20200Y-38900D03*
G54D11*
X90400Y-29200D03*
G54D17*
X47000Y-49100D03*
X35000Y-50300D03*
X59655Y-34844D03*
X21291Y-43525D03*
X23700Y-55000D03*
X73900Y-45500D03*
X67500Y-46700D03*
X67500Y-45500D03*
X65800Y-44900D03*
X65700Y-46700D03*
X70900Y-48300D03*
X75400Y-51600D03*
X75500Y-47600D03*
X59300Y-51000D03*
X91200Y-42800D03*
X66700Y-55300D03*
X32800Y-54900D03*
X31637Y-37344D03*
X31637Y-39244D03*
X52598Y-38933D03*
X49882Y-38400D03*
X47738Y-39319D03*
X55981Y-35180D03*
X37548Y-37460D03*
X77100Y-45900D03*
X49280Y-44441D03*
X43457Y-40448D03*
G54D18*
X82900Y-28600D02*
X87000Y-28600D01*
X90200Y-33600D02*
X90200Y-35600D01*
X88100Y-31500D02*
X90200Y-33600D01*
X88100Y-29700D02*
X88100Y-31500D01*
X87000Y-28600D02*
X88100Y-29700D01*
X45500Y-36900D02*
X45500Y-37900D01*
X68900Y-44000D02*
X68900Y-46700D01*
X27700Y-46700D02*
X27700Y-44000D01*
X76100Y-45500D02*
X74900Y-46700D01*
X80800Y-45500D02*
X76100Y-45500D01*
X82200Y-44100D02*
X80800Y-45500D01*
X84600Y-44100D02*
X82200Y-44100D01*
X87500Y-41200D02*
X84600Y-44100D01*
X90200Y-35600D02*
X90200Y-40400D01*
X90200Y-40400D02*
X89400Y-41200D01*
X89400Y-41200D02*
X87500Y-41200D01*
X79400Y-35700D02*
X79200Y-35900D01*
X84400Y-35700D02*
X79400Y-35700D01*
X86400Y-35700D02*
X84400Y-35700D01*
X86500Y-35600D02*
X86400Y-35700D01*
X88800Y-35600D02*
X86500Y-35600D01*
X88800Y-35600D02*
X90200Y-35600D01*
X68900Y-46700D02*
X68900Y-47700D01*
X57300Y-46700D02*
X57300Y-47700D01*
X63300Y-46700D02*
X63300Y-47700D01*
X51500Y-46700D02*
X51500Y-47700D01*
X39500Y-46700D02*
X39500Y-47700D01*
X33500Y-46700D02*
X33500Y-47700D01*
X27700Y-46700D02*
X27700Y-47700D01*
X21700Y-46700D02*
X21700Y-47700D01*
X33500Y-36900D02*
X33500Y-37900D01*
X22400Y-36900D02*
X22400Y-37900D01*
X67800Y-30100D02*
X66800Y-31100D01*
X69000Y-30100D02*
X67800Y-30100D01*
X57200Y-30100D02*
X56200Y-31100D01*
X58400Y-30100D02*
X57200Y-30100D01*
X45400Y-30100D02*
X44400Y-31100D01*
X46600Y-30100D02*
X45400Y-30100D01*
X33000Y-30100D02*
X32000Y-31100D01*
X34400Y-30100D02*
X33000Y-30100D01*
X21200Y-30100D02*
X20200Y-31100D01*
X22400Y-30100D02*
X21200Y-30100D01*
X56200Y-31100D02*
X66800Y-31100D01*
X44400Y-31100D02*
X56200Y-31100D01*
X32000Y-31100D02*
X44400Y-31100D01*
X20200Y-31100D02*
X32000Y-31100D01*
X20200Y-37900D02*
X22400Y-37900D01*
X22400Y-37900D02*
X31200Y-37900D01*
X31200Y-37900D02*
X33500Y-37900D01*
X33500Y-37900D02*
X43200Y-37900D01*
X19400Y-47700D02*
X21700Y-47700D01*
X21700Y-47700D02*
X27700Y-47700D01*
X27700Y-47700D02*
X31200Y-47700D01*
X31200Y-47700D02*
X33500Y-47700D01*
X33500Y-47700D02*
X39500Y-47700D01*
X39500Y-47700D02*
X43200Y-47700D01*
X45500Y-46700D02*
X45500Y-47700D01*
X45500Y-47700D02*
X45600Y-47700D01*
X43200Y-47700D02*
X45500Y-47700D01*
X45500Y-47700D02*
X45600Y-47700D01*
X45600Y-47700D02*
X51500Y-47700D01*
X51500Y-47700D02*
X55000Y-47700D01*
X63300Y-47700D02*
X66600Y-47700D01*
X55000Y-47700D02*
X57300Y-47700D01*
X57300Y-47700D02*
X63300Y-47700D01*
X66600Y-47700D02*
X68900Y-47700D01*
X74900Y-47300D02*
X74900Y-46700D01*
X74500Y-47700D02*
X74900Y-47300D01*
X68900Y-47700D02*
X74500Y-47700D01*
X82900Y-30600D02*
X82900Y-28600D01*
X82900Y-28600D02*
X83000Y-28600D01*
X69000Y-28600D02*
X69000Y-30100D01*
X82900Y-28600D02*
X69000Y-28600D01*
X83000Y-28600D02*
X82900Y-28600D01*
X43200Y-37900D02*
X45500Y-37900D01*
X75400Y-35900D02*
X79200Y-35900D01*
X73400Y-37900D02*
X75400Y-35900D01*
X45500Y-37900D02*
X73400Y-37900D01*
X50500Y-50500D02*
X50500Y-49700D01*
X47900Y-53100D02*
X50500Y-50500D01*
X47900Y-53800D02*
X47900Y-53100D01*
X47000Y-54100D02*
X47000Y-49100D01*
X47200Y-54300D02*
X47000Y-54100D01*
X49700Y-54300D02*
X47200Y-54300D01*
X49900Y-54100D02*
X49700Y-54300D01*
X49900Y-53800D02*
X49900Y-54100D01*
X46500Y-54100D02*
X46500Y-49700D01*
X47000Y-54600D02*
X46500Y-54100D01*
X50300Y-54600D02*
X47000Y-54600D01*
X50900Y-54000D02*
X50300Y-54600D01*
X50900Y-53800D02*
X50900Y-54000D01*
X38500Y-50400D02*
X38500Y-49700D01*
X35500Y-53400D02*
X38500Y-50400D01*
X35500Y-53800D02*
X35500Y-53400D01*
X37600Y-45800D02*
X38500Y-46700D01*
X36500Y-45800D02*
X37600Y-45800D01*
X33700Y-43000D02*
X36500Y-45800D01*
X33700Y-42600D02*
X33700Y-43000D01*
X35500Y-45200D02*
X35500Y-46700D01*
X34300Y-44000D02*
X35500Y-45200D01*
X33700Y-44000D02*
X34300Y-44000D01*
X35000Y-54300D02*
X35000Y-50300D01*
X37200Y-54300D02*
X35000Y-54300D01*
X37500Y-54000D02*
X37200Y-54300D01*
X37500Y-53800D02*
X37500Y-54000D01*
X34500Y-54600D02*
X34500Y-49700D01*
X38000Y-54600D02*
X34500Y-54600D01*
X38500Y-54100D02*
X38000Y-54600D01*
X38500Y-53800D02*
X38500Y-54100D01*
X26700Y-51100D02*
X26700Y-49700D01*
X26100Y-51700D02*
X26700Y-51100D01*
X26100Y-53800D02*
X26100Y-51700D01*
X29844Y-34844D02*
X59655Y-34844D01*
X27900Y-36789D02*
X29844Y-34844D01*
X27900Y-37023D02*
X27900Y-36789D01*
X27595Y-37328D02*
X27900Y-37023D01*
X26200Y-37328D02*
X27595Y-37328D01*
X25900Y-37027D02*
X26200Y-37328D01*
X25900Y-36769D02*
X25900Y-37027D01*
X25602Y-36471D02*
X25900Y-36769D01*
X21012Y-36471D02*
X25602Y-36471D01*
X19763Y-37720D02*
X21012Y-36471D01*
X19763Y-40054D02*
X19763Y-37720D01*
X21270Y-41561D02*
X19763Y-40054D01*
X21270Y-43504D02*
X21270Y-41561D01*
X21291Y-43525D02*
X21270Y-43504D01*
X18500Y-47200D02*
X18574Y-47125D01*
X18500Y-52500D02*
X18500Y-47200D01*
X20600Y-54600D02*
X18500Y-52500D01*
X27700Y-54600D02*
X20600Y-54600D01*
X28100Y-54200D02*
X27700Y-54600D01*
X28100Y-53800D02*
X28100Y-54200D01*
X22500Y-45500D02*
X23700Y-46700D01*
X20200Y-45500D02*
X22500Y-45500D01*
X18574Y-47125D02*
X20200Y-45500D01*
X24755Y-29455D02*
X25400Y-30100D01*
X20946Y-29455D02*
X24755Y-29455D01*
X18531Y-31870D02*
X20946Y-29455D01*
X18531Y-47081D02*
X18531Y-31870D01*
X18574Y-47125D02*
X18531Y-47081D01*
X27900Y-55000D02*
X23700Y-55000D01*
X29100Y-53800D02*
X27900Y-55000D01*
X73900Y-46700D02*
X73900Y-45500D01*
X67500Y-46700D02*
X67500Y-45500D01*
X65800Y-46600D02*
X65800Y-44900D01*
X65700Y-46700D02*
X65800Y-46600D01*
X72900Y-44000D02*
X72900Y-46700D01*
X71900Y-41500D02*
X71900Y-46700D01*
X72200Y-41200D02*
X71900Y-41500D01*
X72900Y-41200D02*
X72200Y-41200D01*
X70900Y-40700D02*
X70900Y-46700D01*
X71800Y-39800D02*
X70900Y-40700D01*
X72900Y-39800D02*
X71800Y-39800D01*
X75000Y-48300D02*
X70900Y-48300D01*
X75500Y-48800D02*
X75000Y-48300D01*
X78500Y-48800D02*
X75500Y-48800D01*
X71900Y-50700D02*
X71900Y-49700D01*
X72400Y-51200D02*
X71900Y-50700D01*
X78500Y-51200D02*
X72400Y-51200D01*
X72300Y-49100D02*
X72900Y-49700D01*
X71700Y-49100D02*
X72300Y-49100D01*
X71400Y-49400D02*
X71700Y-49100D01*
X71400Y-52000D02*
X71400Y-49400D01*
X70100Y-53300D02*
X71400Y-52000D01*
X70100Y-53800D02*
X70100Y-53300D01*
X72900Y-50700D02*
X72900Y-49700D01*
X73100Y-50900D02*
X72900Y-50700D01*
X77200Y-50900D02*
X73100Y-50900D01*
X78100Y-50000D02*
X77200Y-50900D01*
X78500Y-50000D02*
X78100Y-50000D01*
X72800Y-51600D02*
X75400Y-51600D01*
X71100Y-53300D02*
X72800Y-51600D01*
X71100Y-53800D02*
X71100Y-53300D01*
X78500Y-47600D02*
X75500Y-47600D01*
X61400Y-51000D02*
X59300Y-51000D01*
X62300Y-50100D02*
X61400Y-51000D01*
X62300Y-49700D02*
X62300Y-50100D01*
X62300Y-44000D02*
X62300Y-46700D01*
X59300Y-44800D02*
X59300Y-46700D01*
X61500Y-42600D02*
X59300Y-44800D01*
X62300Y-42600D02*
X61500Y-42600D01*
X58300Y-50800D02*
X58300Y-49700D01*
X59000Y-51500D02*
X58300Y-50800D01*
X60800Y-51500D02*
X59000Y-51500D01*
X62300Y-53000D02*
X60800Y-51500D01*
X62300Y-53800D02*
X62300Y-53000D01*
X91200Y-42800D02*
X88800Y-42800D01*
X87600Y-43500D02*
X87600Y-47600D01*
X88300Y-42800D02*
X87600Y-43500D01*
X88800Y-42800D02*
X88300Y-42800D01*
X88800Y-47600D02*
X87600Y-47600D01*
X82000Y-46700D02*
X75900Y-46700D01*
X82500Y-47200D02*
X82000Y-46700D01*
X86300Y-47200D02*
X82500Y-47200D01*
X86700Y-47600D02*
X86300Y-47200D01*
X87600Y-47600D02*
X86700Y-47600D01*
X34500Y-40900D02*
X34500Y-39900D01*
X33700Y-41700D02*
X34500Y-40900D01*
X28800Y-41700D02*
X33700Y-41700D01*
X26300Y-44200D02*
X28800Y-41700D01*
X19400Y-44200D02*
X26300Y-44200D01*
X51500Y-51000D02*
X51500Y-49700D01*
X55100Y-54600D02*
X51500Y-51000D01*
X85900Y-54600D02*
X55100Y-54600D01*
X88800Y-51700D02*
X85900Y-54600D01*
X88800Y-49600D02*
X88800Y-51700D01*
X89500Y-43800D02*
X88800Y-43800D01*
X89800Y-44100D02*
X89500Y-43800D01*
X89800Y-51500D02*
X89800Y-44100D01*
X86100Y-55200D02*
X89800Y-51500D01*
X66800Y-55200D02*
X86100Y-55200D01*
X66700Y-55300D02*
X66800Y-55200D01*
X86000Y-54900D02*
X32800Y-54900D01*
X89500Y-51400D02*
X86000Y-54900D01*
X89500Y-49200D02*
X89500Y-51400D01*
X88900Y-48600D02*
X89500Y-49200D01*
X88800Y-48600D02*
X88900Y-48600D01*
X88500Y-39900D02*
X88800Y-39600D01*
X79300Y-39900D02*
X88500Y-39900D01*
X79200Y-39800D02*
X79300Y-39900D01*
X79200Y-36900D02*
X79200Y-39800D01*
X21700Y-41300D02*
X21700Y-42200D01*
X20200Y-39800D02*
X21700Y-41300D01*
X20200Y-38900D02*
X20200Y-39800D01*
X43200Y-39700D02*
X43200Y-38900D01*
X46300Y-42800D02*
X43200Y-39700D01*
X47600Y-42800D02*
X46300Y-42800D01*
X39200Y-41200D02*
X40500Y-39900D01*
X36600Y-41200D02*
X39200Y-41200D01*
X35600Y-42200D02*
X36600Y-41200D01*
X35600Y-42800D02*
X35600Y-42200D01*
X86400Y-34700D02*
X86400Y-32700D01*
X77300Y-32100D02*
X75000Y-32100D01*
X77900Y-32700D02*
X77300Y-32100D01*
X84400Y-32700D02*
X77900Y-32700D01*
X74900Y-48700D02*
X75900Y-49700D01*
X66600Y-48700D02*
X74900Y-48700D01*
X64300Y-49700D02*
X64300Y-48700D01*
X60300Y-46700D02*
X61300Y-46700D01*
X60300Y-49700D02*
X60300Y-48700D01*
X60300Y-49700D02*
X61300Y-49700D01*
X59300Y-49700D02*
X60300Y-49700D01*
X49500Y-49700D02*
X49500Y-48700D01*
X52500Y-49700D02*
X52500Y-48700D01*
X40500Y-49700D02*
X40500Y-48700D01*
X37500Y-49700D02*
X37500Y-48700D01*
X28700Y-49700D02*
X28700Y-48700D01*
X25700Y-49700D02*
X25700Y-48700D01*
X51500Y-38900D02*
X52500Y-39900D01*
X43200Y-38900D02*
X51500Y-38900D01*
X40500Y-39900D02*
X40500Y-38900D01*
X28400Y-39900D02*
X28400Y-38900D01*
X74000Y-30100D02*
X74000Y-32100D01*
X72000Y-30100D02*
X72000Y-29400D01*
X73000Y-33100D02*
X73000Y-32100D01*
X64400Y-33100D02*
X64400Y-32100D01*
X62700Y-29400D02*
X63400Y-30100D01*
X60900Y-29400D02*
X62700Y-29400D01*
X60400Y-29900D02*
X60900Y-29400D01*
X60400Y-30100D02*
X60400Y-29900D01*
X63400Y-30100D02*
X64400Y-30100D01*
X59400Y-30100D02*
X60400Y-30100D01*
X52600Y-33100D02*
X52600Y-32100D01*
X38700Y-29400D02*
X39400Y-30100D01*
X36800Y-29400D02*
X38700Y-29400D01*
X36400Y-29800D02*
X36800Y-29400D01*
X36400Y-30100D02*
X36400Y-29800D01*
X40400Y-33100D02*
X40400Y-32100D01*
X35400Y-30100D02*
X36400Y-30100D01*
X39400Y-30100D02*
X40400Y-30100D01*
X39400Y-33100D02*
X40400Y-33100D01*
X38400Y-33100D02*
X39400Y-33100D01*
X28400Y-33100D02*
X28400Y-32100D01*
X24400Y-33100D02*
X25400Y-33100D01*
X24400Y-33100D02*
X24400Y-32100D01*
X20200Y-32100D02*
X24400Y-32100D01*
X24400Y-32100D02*
X28400Y-32100D01*
X28400Y-32100D02*
X32000Y-32100D01*
X32000Y-32100D02*
X40400Y-32100D01*
X40400Y-32100D02*
X44400Y-32100D01*
X44400Y-32100D02*
X52600Y-32100D01*
X52600Y-32100D02*
X56200Y-32100D01*
X56200Y-32100D02*
X64400Y-32100D01*
X64400Y-32100D02*
X66800Y-32100D01*
X66800Y-32100D02*
X73000Y-32100D01*
X73000Y-32100D02*
X74000Y-32100D01*
X70400Y-29400D02*
X72000Y-29400D01*
X70000Y-29800D02*
X70400Y-29400D01*
X70000Y-30100D02*
X70000Y-29800D01*
X73300Y-29400D02*
X74000Y-30100D01*
X72000Y-29400D02*
X73300Y-29400D01*
X75000Y-33100D02*
X75000Y-32100D01*
X75000Y-32100D02*
X74000Y-32100D01*
X20200Y-38900D02*
X28400Y-38900D01*
X28400Y-38900D02*
X31200Y-38900D01*
X31200Y-38900D02*
X40500Y-38900D01*
X40500Y-38900D02*
X43200Y-38900D01*
X19400Y-48700D02*
X25700Y-48700D01*
X25700Y-48700D02*
X28700Y-48700D01*
X28700Y-48700D02*
X31200Y-48700D01*
X31200Y-48700D02*
X37500Y-48700D01*
X37500Y-48700D02*
X40500Y-48700D01*
X40500Y-48700D02*
X43200Y-48700D01*
X52500Y-48700D02*
X55000Y-48700D01*
X43200Y-48700D02*
X49500Y-48700D01*
X49500Y-48700D02*
X52500Y-48700D01*
X55000Y-48700D02*
X60300Y-48700D01*
X60300Y-48700D02*
X64300Y-48700D01*
X64300Y-48700D02*
X66600Y-48700D01*
X86900Y-32700D02*
X86400Y-32700D01*
X86900Y-30600D02*
X86900Y-32700D01*
X86400Y-32700D02*
X84400Y-32700D01*
X38832Y-40567D02*
X39500Y-39900D01*
X35992Y-40567D02*
X38832Y-40567D01*
X34598Y-41960D02*
X35992Y-40567D01*
X28880Y-41960D02*
X34598Y-41960D01*
X26186Y-44654D02*
X28880Y-41960D01*
X19041Y-44654D02*
X26186Y-44654D01*
X18949Y-44562D02*
X19041Y-44654D01*
X18949Y-38250D02*
X18949Y-44562D01*
X20929Y-36271D02*
X18949Y-38250D01*
X25771Y-36271D02*
X20929Y-36271D01*
X26400Y-36900D02*
X25771Y-36271D01*
X37844Y-39244D02*
X31637Y-39244D01*
X38500Y-39900D02*
X37844Y-39244D01*
X28844Y-37344D02*
X31637Y-37344D01*
X28400Y-36900D02*
X28844Y-37344D01*
X55600Y-41935D02*
X52598Y-38933D01*
X55600Y-42800D02*
X55600Y-41935D01*
X53600Y-40398D02*
X53600Y-42800D01*
X51601Y-38400D02*
X53600Y-40398D01*
X49882Y-38400D02*
X51601Y-38400D01*
X52025Y-42225D02*
X52600Y-42800D01*
X52025Y-39823D02*
X52025Y-42225D01*
X51520Y-39319D02*
X52025Y-39823D01*
X47738Y-39319D02*
X51520Y-39319D01*
X51500Y-42700D02*
X51600Y-42800D01*
X51500Y-39900D02*
X51500Y-42700D01*
X50600Y-43582D02*
X50600Y-42800D01*
X49415Y-44766D02*
X50600Y-43582D01*
X40825Y-44766D02*
X49415Y-44766D01*
X39000Y-46592D02*
X40825Y-44766D01*
X39000Y-46820D02*
X39000Y-46592D01*
X38694Y-47126D02*
X39000Y-46820D01*
X36926Y-47126D02*
X38694Y-47126D01*
X36500Y-46700D02*
X36926Y-47126D01*
X36072Y-39472D02*
X36500Y-39900D01*
X32402Y-39472D02*
X36072Y-39472D01*
X31543Y-40331D02*
X32402Y-39472D01*
X27831Y-40331D02*
X31543Y-40331D01*
X27400Y-39900D02*
X27831Y-40331D01*
X69000Y-33100D02*
X68574Y-33100D01*
X22400Y-33100D02*
X22825Y-33100D01*
X67522Y-34152D02*
X68574Y-33100D01*
X23851Y-34152D02*
X67522Y-34152D01*
X22825Y-33126D02*
X23851Y-34152D01*
X22825Y-33100D02*
X22825Y-33126D01*
X47025Y-33046D02*
X47025Y-33100D01*
X47397Y-32674D02*
X47025Y-33046D01*
X51803Y-32674D02*
X47397Y-32674D01*
X52100Y-32971D02*
X51803Y-32674D01*
X52100Y-33201D02*
X52100Y-32971D01*
X52431Y-33532D02*
X52100Y-33201D01*
X53647Y-33532D02*
X52431Y-33532D01*
X54506Y-32674D02*
X53647Y-33532D01*
X62974Y-32674D02*
X54506Y-32674D01*
X63400Y-33100D02*
X62974Y-32674D01*
X46600Y-33100D02*
X47025Y-33100D01*
X25700Y-39200D02*
X26400Y-39900D01*
X23800Y-39200D02*
X25700Y-39200D01*
X23400Y-39600D02*
X23800Y-39200D01*
X23400Y-39900D02*
X23400Y-39600D01*
X42639Y-37460D02*
X37548Y-37460D01*
X44919Y-35180D02*
X42639Y-37460D01*
X55981Y-35180D02*
X44919Y-35180D01*
X50966Y-33733D02*
X51600Y-33100D01*
X37033Y-33733D02*
X50966Y-33733D01*
X36400Y-33100D02*
X37033Y-33733D01*
X58766Y-33733D02*
X59400Y-33100D01*
X52233Y-33733D02*
X58766Y-33733D01*
X51600Y-33100D02*
X52233Y-33733D01*
X24979Y-44979D02*
X26700Y-46700D01*
X19083Y-44979D02*
X24979Y-44979D01*
X18749Y-44645D02*
X19083Y-44979D01*
X18749Y-31941D02*
X18749Y-44645D01*
X21018Y-29672D02*
X18749Y-31941D01*
X24597Y-29672D02*
X21018Y-29672D01*
X24900Y-29974D02*
X24597Y-29672D01*
X24900Y-30227D02*
X24900Y-29974D01*
X25200Y-30528D02*
X24900Y-30227D01*
X25971Y-30528D02*
X25200Y-30528D01*
X26400Y-30100D02*
X25971Y-30528D01*
X36242Y-33942D02*
X35400Y-33100D01*
X61557Y-33942D02*
X36242Y-33942D01*
X62400Y-33100D02*
X61557Y-33942D01*
X26825Y-33525D02*
X26400Y-33100D01*
X33549Y-33525D02*
X26825Y-33525D01*
X33974Y-33100D02*
X33549Y-33525D01*
X34400Y-33100D02*
X34187Y-33100D01*
X34187Y-33100D02*
X33974Y-33100D01*
X47174Y-33525D02*
X47600Y-33100D01*
X37194Y-33525D02*
X47174Y-33525D01*
X36900Y-33230D02*
X37194Y-33525D01*
X36900Y-32972D02*
X36900Y-33230D01*
X36599Y-32671D02*
X36900Y-32972D01*
X34615Y-32671D02*
X36599Y-32671D01*
X34187Y-33100D02*
X34615Y-32671D01*
X65300Y-44000D02*
X67900Y-44000D01*
X65300Y-42600D02*
X65300Y-44000D01*
X46500Y-45600D02*
X46500Y-46700D01*
X47100Y-45000D02*
X46500Y-45600D01*
X58000Y-45000D02*
X47100Y-45000D01*
X61100Y-41900D02*
X58000Y-45000D01*
X64800Y-41900D02*
X61100Y-41900D01*
X65300Y-42400D02*
X64800Y-41900D01*
X65300Y-42600D02*
X65300Y-42400D01*
X78200Y-39800D02*
X78300Y-39900D01*
X75900Y-39800D02*
X78200Y-39800D01*
X75900Y-44000D02*
X77300Y-44000D01*
X75900Y-39800D02*
X75900Y-41200D01*
X75900Y-44000D02*
X75900Y-42600D01*
X75900Y-42600D02*
X75900Y-41200D01*
X84400Y-47600D02*
X84500Y-47700D01*
X81500Y-47600D02*
X84400Y-47600D01*
X81500Y-50000D02*
X81500Y-51200D01*
X81500Y-48800D02*
X81500Y-50000D01*
X84500Y-51000D02*
X84500Y-47700D01*
X81500Y-47600D02*
X81500Y-48800D01*
X77200Y-45800D02*
X77100Y-45900D01*
X80900Y-45800D02*
X77200Y-45800D01*
X81600Y-45100D02*
X80900Y-45800D01*
X84600Y-45100D02*
X81600Y-45100D01*
X84500Y-45200D02*
X84600Y-45100D01*
X84500Y-46700D02*
X84500Y-45200D01*
X83900Y-30600D02*
X85900Y-30600D01*
X19400Y-42200D02*
X20700Y-42200D01*
X45500Y-39900D02*
X45500Y-40325D01*
X48072Y-43233D02*
X49280Y-44441D01*
X48072Y-42472D02*
X48072Y-43233D01*
X45925Y-40325D02*
X48072Y-42472D01*
X45500Y-40325D02*
X45925Y-40325D01*
X28700Y-44000D02*
X30700Y-44000D01*
X30700Y-42600D02*
X30700Y-43137D01*
X30700Y-43137D02*
X30700Y-44000D01*
X41530Y-42374D02*
X43457Y-40448D01*
X37399Y-42374D02*
X41530Y-42374D01*
X37100Y-42674D02*
X37399Y-42374D01*
X37100Y-42918D02*
X37100Y-42674D01*
X36792Y-43225D02*
X37100Y-42918D01*
X35097Y-43225D02*
X36792Y-43225D01*
X34046Y-42174D02*
X35097Y-43225D01*
X32381Y-42174D02*
X34046Y-42174D01*
X31418Y-43137D02*
X32381Y-42174D01*
X30700Y-43137D02*
X31418Y-43137D01*
M02*
