G04 (created by PCBNEW (2013-jul-07)-stable) date Fri 23 Nov 2018 10:58:42 PM EST*
%MOIN*%
G04 Gerber Fmt 3.4, Leading zero omitted, Abs format*
%FSLAX34Y34*%
G01*
G70*
G90*
G04 APERTURE LIST*
%ADD10C,0.00590551*%
%ADD11R,0.055X0.055*%
%ADD12C,0.055*%
%ADD13R,0.06X0.06*%
%ADD14C,0.06*%
%ADD15C,0.066*%
%ADD16C,0.035*%
%ADD17C,0.01*%
G04 APERTURE END LIST*
G54D10*
G54D11*
X84500Y-46700D03*
G54D12*
X84500Y-47700D03*
X85500Y-47700D03*
G54D11*
X79300Y-39900D03*
G54D12*
X78300Y-39900D03*
X78300Y-40900D03*
G54D11*
X35600Y-42800D03*
G54D12*
X36600Y-42800D03*
X37600Y-42800D03*
X38600Y-42800D03*
X39600Y-42800D03*
X40600Y-42800D03*
X41600Y-42800D03*
X42600Y-42800D03*
X43600Y-42800D03*
G54D11*
X47600Y-42800D03*
G54D12*
X48600Y-42800D03*
X49600Y-42800D03*
X50600Y-42800D03*
X51600Y-42800D03*
X52600Y-42800D03*
X53600Y-42800D03*
X54600Y-42800D03*
X55600Y-42800D03*
X68900Y-44000D03*
X67900Y-44000D03*
X83900Y-30600D03*
X82900Y-30600D03*
X85500Y-51000D03*
X84500Y-51000D03*
X84600Y-45100D03*
X84600Y-44100D03*
X21700Y-42200D03*
X20700Y-42200D03*
X79200Y-36900D03*
X79200Y-35900D03*
X27700Y-44000D03*
X28700Y-44000D03*
X78300Y-44000D03*
X77300Y-44000D03*
G54D13*
X26100Y-53800D03*
G54D14*
X27100Y-53800D03*
X28100Y-53800D03*
X29100Y-53800D03*
G54D13*
X59300Y-53800D03*
G54D14*
X60300Y-53800D03*
X61300Y-53800D03*
X62300Y-53800D03*
G54D13*
X47900Y-53800D03*
G54D14*
X48900Y-53800D03*
X49900Y-53800D03*
X50900Y-53800D03*
G54D13*
X35500Y-53800D03*
G54D14*
X36500Y-53800D03*
X37500Y-53800D03*
X38500Y-53800D03*
G54D13*
X73500Y-53800D03*
G54D14*
X74500Y-53800D03*
X75500Y-53800D03*
X76500Y-53800D03*
G54D13*
X68100Y-53800D03*
G54D14*
X69100Y-53800D03*
X70100Y-53800D03*
X71100Y-53800D03*
G54D13*
X88800Y-49600D03*
G54D14*
X88800Y-48600D03*
X88800Y-47600D03*
G54D13*
X88800Y-35600D03*
G54D14*
X88800Y-34600D03*
X88800Y-33600D03*
G54D13*
X88800Y-44800D03*
G54D14*
X88800Y-43800D03*
X88800Y-42800D03*
G54D13*
X19400Y-44200D03*
G54D14*
X19400Y-43200D03*
X19400Y-42200D03*
G54D13*
X21300Y-53800D03*
G54D14*
X22300Y-53800D03*
G54D13*
X88800Y-39600D03*
G54D15*
X85900Y-30600D03*
X86900Y-30600D03*
G54D11*
X21700Y-49700D03*
G54D12*
X22700Y-49700D03*
X23700Y-49700D03*
X24700Y-49700D03*
X25700Y-49700D03*
X26700Y-49700D03*
X27700Y-49700D03*
X28700Y-49700D03*
X28700Y-46700D03*
X27700Y-46700D03*
X26700Y-46700D03*
X25700Y-46700D03*
X24700Y-46700D03*
X23700Y-46700D03*
X22700Y-46700D03*
X21700Y-46700D03*
G54D11*
X45500Y-49700D03*
G54D12*
X46500Y-49700D03*
X47500Y-49700D03*
X48500Y-49700D03*
X49500Y-49700D03*
X50500Y-49700D03*
X51500Y-49700D03*
X52500Y-49700D03*
X52500Y-46700D03*
X51500Y-46700D03*
X50500Y-46700D03*
X49500Y-46700D03*
X48500Y-46700D03*
X47500Y-46700D03*
X46500Y-46700D03*
X45500Y-46700D03*
G54D11*
X57300Y-49700D03*
G54D12*
X58300Y-49700D03*
X59300Y-49700D03*
X60300Y-49700D03*
X61300Y-49700D03*
X62300Y-49700D03*
X63300Y-49700D03*
X64300Y-49700D03*
X64300Y-46700D03*
X63300Y-46700D03*
X62300Y-46700D03*
X61300Y-46700D03*
X60300Y-46700D03*
X59300Y-46700D03*
X58300Y-46700D03*
X57300Y-46700D03*
G54D11*
X33500Y-49700D03*
G54D12*
X34500Y-49700D03*
X35500Y-49700D03*
X36500Y-49700D03*
X37500Y-49700D03*
X38500Y-49700D03*
X39500Y-49700D03*
X40500Y-49700D03*
X40500Y-46700D03*
X39500Y-46700D03*
X38500Y-46700D03*
X37500Y-46700D03*
X36500Y-46700D03*
X35500Y-46700D03*
X34500Y-46700D03*
X33500Y-46700D03*
G54D11*
X33500Y-39900D03*
G54D12*
X34500Y-39900D03*
X35500Y-39900D03*
X36500Y-39900D03*
X37500Y-39900D03*
X38500Y-39900D03*
X39500Y-39900D03*
X40500Y-39900D03*
X40500Y-36900D03*
X39500Y-36900D03*
X38500Y-36900D03*
X37500Y-36900D03*
X36500Y-36900D03*
X35500Y-36900D03*
X34500Y-36900D03*
X33500Y-36900D03*
G54D11*
X45500Y-39900D03*
G54D12*
X46500Y-39900D03*
X47500Y-39900D03*
X48500Y-39900D03*
X49500Y-39900D03*
X50500Y-39900D03*
X51500Y-39900D03*
X52500Y-39900D03*
X52500Y-36900D03*
X51500Y-36900D03*
X50500Y-36900D03*
X49500Y-36900D03*
X48500Y-36900D03*
X47500Y-36900D03*
X46500Y-36900D03*
X45500Y-36900D03*
G54D11*
X68900Y-49700D03*
G54D12*
X69900Y-49700D03*
X70900Y-49700D03*
X71900Y-49700D03*
X72900Y-49700D03*
X73900Y-49700D03*
X74900Y-49700D03*
X75900Y-49700D03*
X75900Y-46700D03*
X74900Y-46700D03*
X73900Y-46700D03*
X72900Y-46700D03*
X71900Y-46700D03*
X70900Y-46700D03*
X69900Y-46700D03*
X68900Y-46700D03*
G54D11*
X46600Y-33100D03*
G54D12*
X47600Y-33100D03*
X48600Y-33100D03*
X49600Y-33100D03*
X50600Y-33100D03*
X51600Y-33100D03*
X52600Y-33100D03*
X52600Y-30100D03*
X51600Y-30100D03*
X50600Y-30100D03*
X49600Y-30100D03*
X48600Y-30100D03*
X47600Y-30100D03*
X46600Y-30100D03*
G54D11*
X58400Y-33100D03*
G54D12*
X59400Y-33100D03*
X60400Y-33100D03*
X61400Y-33100D03*
X62400Y-33100D03*
X63400Y-33100D03*
X64400Y-33100D03*
X64400Y-30100D03*
X63400Y-30100D03*
X62400Y-30100D03*
X61400Y-30100D03*
X60400Y-30100D03*
X59400Y-30100D03*
X58400Y-30100D03*
G54D11*
X22400Y-33100D03*
G54D12*
X23400Y-33100D03*
X24400Y-33100D03*
X25400Y-33100D03*
X26400Y-33100D03*
X27400Y-33100D03*
X28400Y-33100D03*
X28400Y-30100D03*
X27400Y-30100D03*
X26400Y-30100D03*
X25400Y-30100D03*
X24400Y-30100D03*
X23400Y-30100D03*
X22400Y-30100D03*
G54D11*
X22400Y-39900D03*
G54D12*
X23400Y-39900D03*
X24400Y-39900D03*
X25400Y-39900D03*
X26400Y-39900D03*
X27400Y-39900D03*
X28400Y-39900D03*
X28400Y-36900D03*
X27400Y-36900D03*
X26400Y-36900D03*
X25400Y-36900D03*
X24400Y-36900D03*
X23400Y-36900D03*
X22400Y-36900D03*
G54D11*
X69000Y-33100D03*
G54D12*
X70000Y-33100D03*
X71000Y-33100D03*
X72000Y-33100D03*
X73000Y-33100D03*
X74000Y-33100D03*
X75000Y-33100D03*
X75000Y-30100D03*
X74000Y-30100D03*
X73000Y-30100D03*
X72000Y-30100D03*
X71000Y-30100D03*
X70000Y-30100D03*
X69000Y-30100D03*
G54D11*
X34400Y-33100D03*
G54D12*
X35400Y-33100D03*
X36400Y-33100D03*
X37400Y-33100D03*
X38400Y-33100D03*
X39400Y-33100D03*
X40400Y-33100D03*
X40400Y-30100D03*
X39400Y-30100D03*
X38400Y-30100D03*
X37400Y-30100D03*
X36400Y-30100D03*
X35400Y-30100D03*
X34400Y-30100D03*
G54D11*
X81500Y-48800D03*
G54D12*
X78500Y-48800D03*
G54D11*
X81500Y-50000D03*
G54D12*
X78500Y-50000D03*
G54D11*
X62300Y-44000D03*
G54D12*
X65300Y-44000D03*
G54D11*
X75900Y-39800D03*
G54D12*
X72900Y-39800D03*
G54D11*
X75900Y-41200D03*
G54D12*
X72900Y-41200D03*
G54D11*
X62300Y-42600D03*
G54D12*
X65300Y-42600D03*
G54D11*
X75900Y-44000D03*
G54D12*
X72900Y-44000D03*
G54D11*
X75900Y-42600D03*
G54D12*
X72900Y-42600D03*
G54D11*
X81500Y-51200D03*
G54D12*
X78500Y-51200D03*
G54D11*
X81500Y-47600D03*
G54D12*
X78500Y-47600D03*
G54D11*
X33700Y-44000D03*
G54D12*
X30700Y-44000D03*
G54D11*
X84400Y-35700D03*
G54D12*
X84400Y-32700D03*
G54D11*
X33700Y-42600D03*
G54D12*
X30700Y-42600D03*
X32000Y-31100D03*
X32000Y-32100D03*
X66600Y-47700D03*
X66600Y-48700D03*
X55000Y-47700D03*
X55000Y-48700D03*
X56200Y-31100D03*
X56200Y-32100D03*
X20200Y-31100D03*
X20200Y-32100D03*
X19400Y-47700D03*
X19400Y-48700D03*
X43200Y-37900D03*
X43200Y-38900D03*
X66800Y-31100D03*
X66800Y-32100D03*
X44400Y-31100D03*
X44400Y-32100D03*
X86400Y-35700D03*
X86400Y-34700D03*
X31200Y-47700D03*
X31200Y-48700D03*
X43200Y-47700D03*
X43200Y-48700D03*
X31200Y-37900D03*
X31200Y-38900D03*
X20200Y-37900D03*
X20200Y-38900D03*
G54D16*
X47000Y-49100D03*
X35000Y-50300D03*
X59655Y-34844D03*
X21291Y-43525D03*
X23700Y-55000D03*
X73900Y-45500D03*
X67500Y-46700D03*
X67500Y-45500D03*
X65800Y-44900D03*
X65700Y-46700D03*
X70900Y-48300D03*
X75400Y-51600D03*
X75500Y-47600D03*
X59300Y-51000D03*
X91200Y-42800D03*
X66700Y-55300D03*
X32800Y-54900D03*
X31637Y-37344D03*
X31637Y-39244D03*
X52598Y-38933D03*
X49882Y-38400D03*
X47738Y-39319D03*
X55981Y-35180D03*
X37548Y-37460D03*
X77100Y-45900D03*
X49280Y-44441D03*
X43457Y-40448D03*
G54D17*
X69900Y-47700D02*
X68900Y-46700D01*
X69900Y-49700D02*
X69900Y-47700D01*
X50500Y-47400D02*
X50500Y-46700D01*
X49000Y-48900D02*
X50500Y-47400D01*
X49000Y-50200D02*
X49000Y-48900D01*
X48900Y-50300D02*
X49000Y-50200D01*
X48900Y-53800D02*
X48900Y-50300D01*
X47500Y-48600D02*
X47500Y-46700D01*
X47000Y-49100D02*
X47500Y-48600D01*
X38500Y-47400D02*
X38500Y-46700D01*
X37000Y-48900D02*
X38500Y-47400D01*
X37000Y-50300D02*
X37000Y-48900D01*
X36500Y-50800D02*
X37000Y-50300D01*
X36500Y-53800D02*
X36500Y-50800D01*
X35500Y-46900D02*
X35500Y-46700D01*
X35000Y-47400D02*
X35500Y-46900D01*
X35000Y-50300D02*
X35000Y-47400D01*
X24900Y-32600D02*
X27400Y-30100D01*
X24900Y-33477D02*
X24900Y-32600D01*
X20634Y-37743D02*
X24900Y-33477D01*
X20634Y-39073D02*
X20634Y-37743D01*
X18124Y-41582D02*
X20634Y-39073D01*
X18124Y-51746D02*
X18124Y-41582D01*
X21717Y-55339D02*
X18124Y-51746D01*
X24110Y-55339D02*
X21717Y-55339D01*
X25649Y-53800D02*
X24110Y-55339D01*
X26100Y-53800D02*
X25649Y-53800D01*
X61400Y-33100D02*
X59655Y-34844D01*
X22200Y-44433D02*
X21291Y-43525D01*
X22200Y-47696D02*
X22200Y-44433D01*
X23200Y-48696D02*
X22200Y-47696D01*
X23200Y-49900D02*
X23200Y-48696D01*
X27100Y-53800D02*
X23200Y-49900D01*
X23700Y-55000D02*
X23500Y-54800D01*
X23300Y-50300D02*
X22700Y-49700D01*
X23300Y-54600D02*
X23300Y-50300D01*
X23500Y-54800D02*
X23300Y-54600D01*
X71439Y-33539D02*
X71000Y-33100D01*
X72180Y-33539D02*
X71439Y-33539D01*
X72433Y-33287D02*
X72180Y-33539D01*
X72433Y-32914D02*
X72433Y-33287D01*
X70047Y-30529D02*
X72433Y-32914D01*
X68799Y-30529D02*
X70047Y-30529D01*
X66455Y-28185D02*
X68799Y-30529D01*
X27712Y-28185D02*
X66455Y-28185D01*
X25963Y-29933D02*
X27712Y-28185D01*
X25963Y-30535D02*
X25963Y-29933D01*
X26581Y-30535D02*
X25963Y-30535D01*
X26974Y-30142D02*
X26581Y-30535D01*
X26974Y-29923D02*
X26974Y-30142D01*
X27223Y-29674D02*
X26974Y-29923D01*
X27576Y-29674D02*
X27223Y-29674D01*
X27825Y-29923D02*
X27576Y-29674D01*
X27825Y-30757D02*
X27825Y-29923D01*
X25950Y-32631D02*
X27825Y-30757D01*
X25950Y-33169D02*
X25950Y-32631D01*
X22761Y-36358D02*
X25950Y-33169D01*
X22316Y-36358D02*
X22761Y-36358D01*
X20917Y-37757D02*
X22316Y-36358D01*
X20917Y-39072D02*
X20917Y-37757D01*
X18325Y-41665D02*
X20917Y-39072D01*
X18325Y-51650D02*
X18325Y-41665D01*
X21475Y-54800D02*
X18325Y-51650D01*
X23500Y-54800D02*
X21475Y-54800D01*
X24835Y-30535D02*
X24400Y-30100D01*
X25963Y-30535D02*
X24835Y-30535D01*
X21300Y-53800D02*
X21300Y-53349D01*
X18529Y-41770D02*
X23400Y-36900D01*
X18529Y-50579D02*
X18529Y-41770D01*
X21300Y-53349D02*
X18529Y-50579D01*
X47046Y-34653D02*
X48600Y-33100D01*
X33561Y-34653D02*
X47046Y-34653D01*
X29809Y-38406D02*
X33561Y-34653D01*
X27292Y-38406D02*
X29809Y-38406D01*
X25900Y-39798D02*
X27292Y-38406D01*
X25900Y-40028D02*
X25900Y-39798D01*
X25496Y-40432D02*
X25900Y-40028D01*
X20519Y-40432D02*
X25496Y-40432D01*
X18741Y-42210D02*
X20519Y-40432D01*
X18741Y-50241D02*
X18741Y-42210D01*
X22300Y-53800D02*
X18741Y-50241D01*
X67500Y-45500D02*
X73900Y-45500D01*
X73500Y-54000D02*
X73500Y-53800D01*
X71700Y-55800D02*
X73500Y-54000D01*
X66600Y-55800D02*
X71700Y-55800D01*
X66200Y-55400D02*
X66600Y-55800D01*
X66200Y-50500D02*
X66200Y-55400D01*
X67500Y-49200D02*
X66200Y-50500D01*
X67500Y-46700D02*
X67500Y-49200D01*
X73900Y-43600D02*
X73900Y-45500D01*
X72900Y-42600D02*
X73900Y-43600D01*
X72900Y-44400D02*
X72900Y-44000D01*
X72400Y-44900D02*
X72900Y-44400D01*
X65800Y-44900D02*
X72400Y-44900D01*
X65700Y-55300D02*
X65700Y-46700D01*
X66500Y-56100D02*
X65700Y-55300D01*
X72400Y-56100D02*
X66500Y-56100D01*
X74500Y-54000D02*
X72400Y-56100D01*
X74500Y-53800D02*
X74500Y-54000D01*
X75500Y-53200D02*
X75500Y-53800D01*
X72400Y-50100D02*
X75500Y-53200D01*
X72400Y-48300D02*
X72400Y-50100D01*
X71800Y-47700D02*
X72400Y-48300D01*
X71100Y-47700D02*
X71800Y-47700D01*
X70400Y-47000D02*
X71100Y-47700D01*
X70400Y-46400D02*
X70400Y-47000D01*
X70600Y-46200D02*
X70400Y-46400D01*
X71500Y-46200D02*
X70600Y-46200D01*
X71900Y-46600D02*
X71500Y-46200D01*
X71900Y-46700D02*
X71900Y-46600D01*
X71600Y-47400D02*
X70900Y-46700D01*
X72900Y-47400D02*
X71600Y-47400D01*
X73400Y-47900D02*
X72900Y-47400D01*
X73400Y-50300D02*
X73400Y-47900D01*
X76500Y-53400D02*
X73400Y-50300D01*
X76500Y-53800D02*
X76500Y-53400D01*
X70900Y-51000D02*
X70900Y-49700D01*
X68100Y-53800D02*
X70900Y-51000D01*
X70900Y-48300D02*
X70900Y-49700D01*
X71900Y-50500D02*
X71900Y-49700D01*
X69100Y-53300D02*
X71900Y-50500D01*
X69100Y-53800D02*
X69100Y-53300D01*
X73900Y-50100D02*
X73900Y-49700D01*
X75400Y-51600D02*
X73900Y-50100D01*
X73900Y-49200D02*
X73900Y-49700D01*
X75500Y-47600D02*
X73900Y-49200D01*
X59300Y-51000D02*
X59300Y-53800D01*
X62300Y-47400D02*
X62300Y-46700D01*
X62800Y-47900D02*
X62300Y-47400D01*
X62800Y-50300D02*
X62800Y-47900D01*
X63000Y-50500D02*
X62800Y-50300D01*
X63000Y-54100D02*
X63000Y-50500D01*
X62800Y-54300D02*
X63000Y-54100D01*
X60700Y-54300D02*
X62800Y-54300D01*
X60300Y-53900D02*
X60700Y-54300D01*
X60300Y-53800D02*
X60300Y-53900D01*
X59300Y-47500D02*
X59300Y-46700D01*
X59800Y-48000D02*
X59300Y-47500D01*
X59800Y-50500D02*
X59800Y-48000D01*
X61300Y-52000D02*
X59800Y-50500D01*
X61300Y-53800D02*
X61300Y-52000D01*
X91200Y-35700D02*
X91200Y-42800D01*
X89100Y-33600D02*
X91200Y-35700D01*
X88800Y-33600D02*
X89100Y-33600D01*
X35500Y-40600D02*
X35500Y-39900D01*
X35000Y-41100D02*
X35500Y-40600D01*
X27200Y-41100D02*
X35000Y-41100D01*
X25100Y-43200D02*
X27200Y-41100D01*
X19400Y-43200D02*
X25100Y-43200D01*
X46626Y-40773D02*
X47500Y-39900D01*
X43322Y-40773D02*
X46626Y-40773D01*
X40000Y-37450D02*
X43322Y-40773D01*
X40000Y-36781D02*
X40000Y-37450D01*
X39266Y-36047D02*
X40000Y-36781D01*
X35737Y-36047D02*
X39266Y-36047D01*
X35071Y-36713D02*
X35737Y-36047D01*
X35071Y-39471D02*
X35071Y-36713D01*
X35500Y-39900D02*
X35071Y-39471D01*
X66700Y-50900D02*
X66700Y-55300D01*
X67900Y-49700D02*
X66700Y-50900D01*
X68900Y-49700D02*
X67900Y-49700D01*
X32800Y-48400D02*
X34500Y-46700D01*
X32800Y-54900D02*
X32800Y-48400D01*
X90000Y-43600D02*
X88800Y-44800D01*
X90000Y-41900D02*
X90000Y-43600D01*
X88800Y-40700D02*
X90000Y-41900D01*
X88800Y-39600D02*
X88800Y-40700D01*
X64300Y-46700D02*
X64300Y-49700D01*
X63800Y-46200D02*
X64300Y-46700D01*
X61500Y-46200D02*
X63800Y-46200D01*
X61300Y-46400D02*
X61500Y-46200D01*
X61300Y-46700D02*
X61300Y-46400D01*
X75900Y-48200D02*
X75900Y-49700D01*
X78300Y-45800D02*
X75900Y-48200D01*
X78300Y-44000D02*
X78300Y-45800D01*
X78300Y-40900D02*
X78300Y-44000D01*
X88700Y-34700D02*
X88800Y-34600D01*
X86400Y-34700D02*
X88700Y-34700D01*
X78500Y-52900D02*
X85500Y-52900D01*
X75900Y-50300D02*
X78500Y-52900D01*
X75900Y-49700D02*
X75900Y-50300D01*
X90800Y-36600D02*
X88800Y-34600D01*
X90800Y-50400D02*
X90800Y-36600D01*
X88300Y-52900D02*
X90800Y-50400D01*
X85500Y-52900D02*
X88300Y-52900D01*
X77300Y-34700D02*
X86400Y-34700D01*
X73500Y-38500D02*
X77300Y-34700D01*
X53900Y-38500D02*
X73500Y-38500D01*
X52500Y-39900D02*
X53900Y-38500D01*
X53000Y-49200D02*
X52500Y-49700D01*
X53000Y-47200D02*
X53000Y-49200D01*
X52500Y-46700D02*
X53000Y-47200D01*
X41000Y-49200D02*
X40500Y-49700D01*
X41000Y-47200D02*
X41000Y-49200D01*
X40500Y-46700D02*
X41000Y-47200D01*
X29200Y-49200D02*
X28700Y-49700D01*
X29200Y-47300D02*
X29200Y-49200D01*
X28700Y-46800D02*
X29200Y-47300D01*
X28700Y-46700D02*
X28700Y-46800D01*
X64900Y-30600D02*
X64400Y-30100D01*
X64900Y-32600D02*
X64900Y-30600D01*
X64400Y-33100D02*
X64900Y-32600D01*
X39400Y-33100D02*
X39400Y-30100D01*
X85500Y-47700D02*
X85500Y-51000D01*
X85500Y-51000D02*
X85500Y-52900D01*
X41051Y-43251D02*
X40600Y-42800D01*
X42777Y-43251D02*
X41051Y-43251D01*
X43033Y-42995D02*
X42777Y-43251D01*
X43033Y-41536D02*
X43033Y-42995D01*
X38967Y-37470D02*
X43033Y-41536D01*
X38466Y-37470D02*
X38967Y-37470D01*
X38000Y-37004D02*
X38466Y-37470D01*
X38000Y-36789D02*
X38000Y-37004D01*
X37478Y-36267D02*
X38000Y-36789D01*
X36132Y-36267D02*
X37478Y-36267D01*
X35500Y-36900D02*
X36132Y-36267D01*
X26696Y-47703D02*
X24700Y-49700D01*
X27310Y-47703D02*
X26696Y-47703D01*
X28200Y-46814D02*
X27310Y-47703D01*
X28200Y-46591D02*
X28200Y-46814D01*
X29871Y-44919D02*
X28200Y-46591D01*
X38480Y-44919D02*
X29871Y-44919D01*
X40600Y-42800D02*
X38480Y-44919D01*
X39500Y-42700D02*
X39600Y-42800D01*
X39500Y-39900D02*
X39500Y-42700D01*
X38500Y-42700D02*
X38500Y-39900D01*
X38600Y-42800D02*
X38500Y-42700D01*
X31637Y-39244D02*
X31637Y-37344D01*
X48350Y-50550D02*
X47500Y-49700D01*
X48350Y-53902D02*
X48350Y-50550D01*
X48713Y-54266D02*
X48350Y-53902D01*
X49078Y-54266D02*
X48713Y-54266D01*
X49400Y-53944D02*
X49078Y-54266D01*
X49400Y-53599D02*
X49400Y-53944D01*
X53562Y-49437D02*
X49400Y-53599D01*
X53562Y-44837D02*
X53562Y-49437D01*
X55600Y-42800D02*
X53562Y-44837D01*
X52533Y-38933D02*
X52598Y-38933D01*
X50500Y-36900D02*
X52533Y-38933D01*
X54160Y-42360D02*
X52423Y-42360D01*
X54600Y-42800D02*
X54160Y-42360D01*
X52100Y-43100D02*
X48500Y-46700D01*
X52100Y-42684D02*
X52100Y-43100D01*
X52423Y-42360D02*
X52100Y-42684D01*
X51000Y-40936D02*
X52423Y-42360D01*
X51000Y-38400D02*
X51000Y-40936D01*
X49500Y-36900D02*
X51000Y-38400D01*
X53400Y-42800D02*
X49500Y-46700D01*
X53600Y-42800D02*
X53400Y-42800D01*
X48500Y-37017D02*
X49882Y-38400D01*
X48500Y-36900D02*
X48500Y-37017D01*
X47500Y-39080D02*
X47738Y-39319D01*
X47500Y-36900D02*
X47500Y-39080D01*
X48500Y-48362D02*
X48500Y-49700D01*
X49000Y-47862D02*
X48500Y-48362D01*
X49000Y-46483D02*
X49000Y-47862D01*
X52600Y-42883D02*
X49000Y-46483D01*
X52600Y-42800D02*
X52600Y-42883D01*
X36043Y-50243D02*
X35500Y-49700D01*
X36043Y-53982D02*
X36043Y-50243D01*
X36325Y-54264D02*
X36043Y-53982D01*
X39541Y-54264D02*
X36325Y-54264D01*
X47000Y-46805D02*
X39541Y-54264D01*
X47000Y-46253D02*
X47000Y-46805D01*
X49585Y-43668D02*
X47000Y-46253D01*
X50731Y-43668D02*
X49585Y-43668D01*
X51600Y-42800D02*
X50731Y-43668D01*
X50500Y-42700D02*
X50500Y-39900D01*
X50600Y-42800D02*
X50500Y-42700D01*
X49600Y-40000D02*
X49600Y-42800D01*
X49500Y-39900D02*
X49600Y-40000D01*
X46519Y-45880D02*
X49600Y-42800D01*
X38319Y-45880D02*
X46519Y-45880D01*
X37500Y-46700D02*
X38319Y-45880D01*
X41171Y-42371D02*
X41600Y-42800D01*
X40399Y-42371D02*
X41171Y-42371D01*
X40100Y-42671D02*
X40399Y-42371D01*
X40100Y-42901D02*
X40100Y-42671D01*
X39759Y-43242D02*
X40100Y-42901D01*
X37025Y-43242D02*
X39759Y-43242D01*
X37025Y-37425D02*
X37025Y-43242D01*
X36500Y-36900D02*
X37025Y-37425D01*
X26125Y-46274D02*
X25700Y-46700D01*
X28018Y-46274D02*
X26125Y-46274D01*
X29574Y-44719D02*
X28018Y-46274D01*
X35548Y-44719D02*
X29574Y-44719D01*
X37025Y-43242D02*
X35548Y-44719D01*
X38697Y-38097D02*
X37500Y-36900D01*
X39306Y-38097D02*
X38697Y-38097D01*
X42600Y-41390D02*
X39306Y-38097D01*
X42600Y-42800D02*
X42600Y-41390D01*
X25383Y-46016D02*
X24700Y-46700D01*
X27993Y-46016D02*
X25383Y-46016D01*
X32243Y-41766D02*
X27993Y-46016D01*
X34617Y-41766D02*
X32243Y-41766D01*
X36060Y-40324D02*
X34617Y-41766D01*
X36060Y-36729D02*
X36060Y-40324D01*
X36321Y-36467D02*
X36060Y-36729D01*
X37067Y-36467D02*
X36321Y-36467D01*
X37500Y-36900D02*
X37067Y-36467D01*
X43600Y-41783D02*
X43600Y-42800D01*
X38716Y-36900D02*
X43600Y-41783D01*
X38500Y-36900D02*
X38716Y-36900D01*
X24132Y-50132D02*
X23700Y-49700D01*
X30671Y-50132D02*
X24132Y-50132D01*
X34000Y-46804D02*
X30671Y-50132D01*
X34000Y-46588D02*
X34000Y-46804D01*
X35469Y-45119D02*
X34000Y-46588D01*
X41280Y-45119D02*
X35469Y-45119D01*
X43600Y-42800D02*
X41280Y-45119D01*
X57300Y-49700D02*
X57300Y-49274D01*
X56874Y-48849D02*
X57300Y-49274D01*
X56874Y-43466D02*
X56874Y-48849D01*
X55200Y-41792D02*
X56874Y-43466D01*
X53778Y-41792D02*
X55200Y-41792D01*
X52074Y-40087D02*
X53778Y-41792D01*
X52074Y-39715D02*
X52074Y-40087D01*
X52441Y-39348D02*
X52074Y-39715D01*
X52643Y-39348D02*
X52441Y-39348D01*
X53436Y-38555D02*
X52643Y-39348D01*
X53436Y-29753D02*
X53436Y-38555D01*
X52470Y-28786D02*
X53436Y-29753D01*
X48309Y-28786D02*
X52470Y-28786D01*
X47166Y-29929D02*
X48309Y-28786D01*
X47166Y-30281D02*
X47166Y-29929D01*
X47627Y-30742D02*
X47166Y-30281D01*
X48957Y-30742D02*
X47627Y-30742D01*
X49600Y-30100D02*
X48957Y-30742D01*
X33500Y-48574D02*
X33500Y-49700D01*
X35070Y-47003D02*
X33500Y-48574D01*
X35070Y-46527D02*
X35070Y-47003D01*
X36278Y-45319D02*
X35070Y-46527D01*
X42695Y-45319D02*
X36278Y-45319D01*
X48074Y-39940D02*
X42695Y-45319D01*
X48074Y-36714D02*
X48074Y-39940D01*
X48720Y-36068D02*
X48074Y-36714D01*
X49400Y-36068D02*
X48720Y-36068D01*
X52159Y-33309D02*
X49400Y-36068D01*
X52159Y-31988D02*
X52159Y-33309D01*
X53036Y-31111D02*
X52159Y-31988D01*
X53036Y-29920D02*
X53036Y-31111D01*
X52303Y-29187D02*
X53036Y-29920D01*
X48825Y-29187D02*
X52303Y-29187D01*
X48166Y-29845D02*
X48825Y-29187D01*
X48166Y-30288D02*
X48166Y-29845D01*
X48420Y-30542D02*
X48166Y-30288D01*
X48768Y-30542D02*
X48420Y-30542D01*
X49100Y-30210D02*
X48768Y-30542D01*
X49100Y-29997D02*
X49100Y-30210D01*
X49437Y-29660D02*
X49100Y-29997D01*
X50160Y-29660D02*
X49437Y-29660D01*
X50600Y-30100D02*
X50160Y-29660D01*
X36600Y-40000D02*
X36600Y-42800D01*
X36500Y-39900D02*
X36600Y-40000D01*
X48600Y-40000D02*
X48600Y-42800D01*
X48500Y-39900D02*
X48600Y-40000D01*
X36500Y-47425D02*
X36500Y-49700D01*
X37070Y-46854D02*
X36500Y-47425D01*
X37070Y-46527D02*
X37070Y-46854D01*
X38078Y-45520D02*
X37070Y-46527D01*
X45879Y-45520D02*
X38078Y-45520D01*
X48600Y-42800D02*
X45879Y-45520D01*
X23400Y-30100D02*
X23400Y-33100D01*
X63826Y-33526D02*
X63400Y-33100D01*
X69573Y-33526D02*
X63826Y-33526D01*
X70000Y-33100D02*
X69573Y-33526D01*
X47846Y-34853D02*
X49600Y-33100D01*
X33644Y-34853D02*
X47846Y-34853D01*
X29777Y-38720D02*
X33644Y-34853D01*
X27970Y-38720D02*
X29777Y-38720D01*
X26829Y-39861D02*
X27970Y-38720D01*
X26829Y-40086D02*
X26829Y-39861D01*
X25966Y-40948D02*
X26829Y-40086D01*
X21324Y-40948D02*
X25966Y-40948D01*
X19572Y-42700D02*
X21324Y-40948D01*
X19240Y-42700D02*
X19572Y-42700D01*
X18941Y-42998D02*
X19240Y-42700D01*
X18941Y-44777D02*
X18941Y-42998D01*
X21700Y-47535D02*
X18941Y-44777D01*
X21700Y-49700D02*
X21700Y-47535D01*
X27400Y-37000D02*
X27400Y-36900D01*
X26800Y-37600D02*
X27400Y-37000D01*
X25100Y-37600D02*
X26800Y-37600D01*
X24400Y-36900D02*
X25100Y-37600D01*
X43925Y-40325D02*
X40500Y-36900D01*
X46074Y-40325D02*
X43925Y-40325D01*
X46500Y-39900D02*
X46074Y-40325D01*
X37600Y-40000D02*
X37500Y-39900D01*
X37600Y-42800D02*
X37600Y-40000D01*
X57974Y-33187D02*
X55981Y-35180D01*
X57974Y-33100D02*
X57974Y-33187D01*
X37500Y-37508D02*
X37548Y-37460D01*
X37500Y-39900D02*
X37500Y-37508D01*
X58400Y-33100D02*
X57974Y-33100D01*
X28774Y-33525D02*
X25400Y-36900D01*
X35974Y-33525D02*
X28774Y-33525D01*
X36400Y-33100D02*
X35974Y-33525D01*
X27025Y-29474D02*
X26400Y-30100D01*
X31774Y-29474D02*
X27025Y-29474D01*
X35400Y-33100D02*
X31774Y-29474D01*
X69774Y-30874D02*
X72000Y-33100D01*
X68828Y-30874D02*
X69774Y-30874D01*
X66338Y-28385D02*
X68828Y-30874D01*
X45930Y-28385D02*
X66338Y-28385D01*
X40161Y-34153D02*
X45930Y-28385D01*
X32065Y-34153D02*
X40161Y-34153D01*
X28419Y-37800D02*
X32065Y-34153D01*
X26499Y-37800D02*
X28419Y-37800D01*
X24400Y-39900D02*
X26499Y-37800D01*
X23974Y-37900D02*
X22400Y-39474D01*
X23974Y-35525D02*
X23974Y-37900D01*
X26400Y-33100D02*
X23974Y-35525D01*
X22400Y-39900D02*
X22400Y-39474D01*
X27094Y-38205D02*
X25400Y-39900D01*
X28766Y-38205D02*
X27094Y-38205D01*
X32542Y-34429D02*
X28766Y-38205D01*
X40182Y-34429D02*
X32542Y-34429D01*
X46026Y-28585D02*
X40182Y-34429D01*
X55885Y-28585D02*
X46026Y-28585D01*
X60400Y-33100D02*
X55885Y-28585D01*
X46500Y-46470D02*
X46500Y-46700D01*
X49502Y-43468D02*
X46500Y-46470D01*
X49556Y-43468D02*
X49502Y-43468D01*
X50039Y-42985D02*
X49556Y-43468D01*
X50039Y-38761D02*
X50039Y-42985D01*
X50214Y-38586D02*
X50039Y-38761D01*
X50214Y-38235D02*
X50214Y-38586D01*
X49073Y-37094D02*
X50214Y-38235D01*
X49073Y-36678D02*
X49073Y-37094D01*
X51923Y-33828D02*
X49073Y-36678D01*
X52495Y-33828D02*
X51923Y-33828D01*
X53236Y-33086D02*
X52495Y-33828D01*
X53236Y-29837D02*
X53236Y-33086D01*
X52386Y-28986D02*
X53236Y-29837D01*
X48713Y-28986D02*
X52386Y-28986D01*
X47600Y-30100D02*
X48713Y-28986D01*
X58300Y-46600D02*
X58300Y-46700D01*
X59000Y-45900D02*
X58300Y-46600D01*
X77100Y-45900D02*
X59000Y-45900D01*
X51600Y-31000D02*
X51600Y-30100D01*
X50600Y-32000D02*
X51600Y-31000D01*
X50600Y-33100D02*
X50600Y-32000D01*
X50900Y-29400D02*
X51600Y-30100D01*
X48900Y-29400D02*
X50900Y-29400D01*
X48600Y-29700D02*
X48900Y-29400D01*
X48600Y-30100D02*
X48600Y-29700D01*
X34500Y-37700D02*
X34500Y-36900D01*
X33500Y-38700D02*
X34500Y-37700D01*
X33500Y-39900D02*
X33500Y-38700D01*
X33500Y-40400D02*
X33500Y-39900D01*
X33200Y-40700D02*
X33500Y-40400D01*
X27100Y-40700D02*
X33200Y-40700D01*
X25100Y-42700D02*
X27100Y-40700D01*
X21300Y-42700D02*
X25100Y-42700D01*
X20800Y-42200D02*
X21300Y-42700D01*
X20700Y-42200D02*
X20800Y-42200D01*
X69400Y-46200D02*
X69900Y-46700D01*
X65600Y-46200D02*
X69400Y-46200D01*
X65200Y-46600D02*
X65600Y-46200D01*
X65200Y-55200D02*
X65200Y-46600D01*
X66400Y-56400D02*
X65200Y-55200D01*
X76100Y-56400D02*
X66400Y-56400D01*
X77300Y-55200D02*
X76100Y-56400D01*
X77300Y-52800D02*
X77300Y-55200D01*
X74900Y-50400D02*
X77300Y-52800D01*
X74900Y-49700D02*
X74900Y-50400D01*
X46500Y-35100D02*
X46600Y-35100D01*
X35500Y-35100D02*
X46500Y-35100D01*
X34500Y-36100D02*
X35500Y-35100D01*
X34500Y-36900D02*
X34500Y-36100D01*
X46500Y-35100D02*
X46600Y-35100D01*
X50600Y-34300D02*
X50600Y-33100D01*
X49800Y-35100D02*
X50600Y-34300D01*
X46600Y-35100D02*
X49800Y-35100D01*
X45500Y-37900D02*
X45500Y-39900D01*
X46500Y-36900D02*
X45500Y-37900D01*
X46600Y-55200D02*
X65200Y-55200D01*
X45500Y-54100D02*
X46600Y-55200D01*
X45500Y-49700D02*
X45500Y-54100D01*
X46500Y-36900D02*
X46500Y-35100D01*
X45500Y-49700D02*
X45925Y-49700D01*
X45925Y-49646D02*
X45925Y-49700D01*
X46297Y-49274D02*
X45925Y-49646D01*
X46695Y-49274D02*
X46297Y-49274D01*
X46856Y-49435D02*
X46695Y-49274D01*
X47143Y-49435D02*
X46856Y-49435D01*
X48058Y-48520D02*
X47143Y-49435D01*
X48058Y-45663D02*
X48058Y-48520D01*
X49280Y-44441D02*
X48058Y-45663D01*
X23700Y-45700D02*
X22700Y-46700D01*
X27300Y-45700D02*
X23700Y-45700D01*
X28700Y-44300D02*
X27300Y-45700D01*
X28700Y-44000D02*
X28700Y-44300D01*
X43546Y-40537D02*
X43457Y-40448D01*
X46484Y-40537D02*
X43546Y-40537D01*
X47000Y-40022D02*
X46484Y-40537D01*
X47000Y-36785D02*
X47000Y-40022D01*
X48055Y-35729D02*
X47000Y-36785D01*
X49456Y-35729D02*
X48055Y-35729D01*
X51100Y-34085D02*
X49456Y-35729D01*
X51100Y-32730D02*
X51100Y-34085D01*
X52600Y-31230D02*
X51100Y-32730D01*
X52600Y-30100D02*
X52600Y-31230D01*
M02*
